<?xml version="1.0" encoding="utf-8"?>
<!-- Generator: Adobe Illustrator 23.0.1, SVG Export Plug-In . SVG Version: 6.00 Build 0)  -->
<svg version="1.1" id="Layer_1" xmlns="http://www.w3.org/2000/svg" xmlns:xlink="http://www.w3.org/1999/xlink" x="0px" y="0px"
	 viewBox="0 0 1600 800" style="enable-background:new 0 0 1600 800;" xml:space="preserve">
<style type="text/css">
	.st0{fill:#8CB63F;}
	.st1{fill:#0D8241;}
	.st2{fill:url(#SVGID_1_);}
</style>
<g>
	<g>
		<g>
			<path class="st0" d="M1104.74,260.21c-0.01,1.71-1.58,3.92-4.72,6.61c-2.29,1.99-3.39,10.03-3.29,24.14l-0.34,96.16
				c0,1.14-0.31,5.06-0.9,11.75c-0.74,8.26-4.47,14.02-11.17,17.27c-4.28,2.12-9.34,2.67-15.18,1.66c-2.56-0.44-3.84-1.58-3.84-3.43
				c-0.14-0.71,1.01-2.59,3.44-5.64c2.43-3.05,3.66-7.21,3.68-12.48l0.02-4.91c0.02-6.41-1.61-11.54-4.89-15.4l-44.48-52.29
				c-0.99-1.16-1.98-1.74-2.97-1.75c-2.41-0.01-3.63,1.92-3.64,5.77l-0.19,52.47c-0.03,9.14-0.48,15.85-1.35,20.13
				c-0.87,4.85-3.03,8.95-6.46,12.29c-3.43,3.34-7.57,5.01-12.41,4.99c-4.27-0.02-6.98-0.17-8.12-0.46
				c-1.71-0.43-2.56-1.5-2.55-3.22c0-1.14,0.5-2.42,1.51-3.85c1.72-2.13,2.65-3.2,2.79-3.2c2-3.56,3.02-8.4,3.04-14.54l0.34-95.64
				c0.03-7.85-1.81-12.27-5.51-13.28c-2.56-0.72-3.84-2.22-3.83-4.51c0.01-1.85,1.3-4.27,3.87-7.26c3.57-4.12,7.72-8.03,12.43-11.72
				c6.14-4.68,11.07-7.02,14.77-7.01c3.42,0.01,6.25,3.87,8.51,11.57c1.4,4.85,6.37,12.35,14.88,22.49l26.81,31.72
				c1.51,1.86,2.97,2.79,4.36,2.79c2.22,0.01,3.33-1.62,3.34-4.9l0.09-25.64c0.05-14.24-0.96-22.3-3.03-24.16
				c-0.97-0.86-2.01-1.75-3.11-2.68c-1.11-0.93-1.66-2.11-1.65-3.53c0.01-3.27,2.44-4.55,7.28-3.82c8.68,1.46,17.3,1.49,25.86,0.09
				C1102.55,256.21,1104.75,257.36,1104.74,260.21z"/>
			<path class="st0" d="M1215.96,411.26c-1.01,2.42-3.86,4.76-8.57,7.02c-2.71,1.41-6.42,2.11-11.12,2.1l-1.92-0.01
				c-5.84-0.02-10.46-3.03-13.86-9.02c-6.15,5.96-14.64,8.92-25.46,8.88c-10.26-0.04-18.97-3.6-26.14-10.67
				c-7.17-7.08-10.73-15.74-10.7-26c0.04-10.11,3.98-18.72,11.85-25.81c7.86-7.09,16.99-10.62,27.39-10.59
				c9.54,0.03,16.31,1.2,20.29,3.49l0.03-7.91c0.04-11.25-4.29-16.9-12.97-16.93c-3.71-0.01-7.52,1.76-11.45,5.3
				c-3.93,3.55-7.68,5.32-11.24,5.3c-5.55-0.02-9.89-2.1-13.01-6.24c-2.41-3.14-3.61-6.49-3.6-10.06
				c0.03-7.98,1.47-11.96,4.32-11.95c1.56,0.01,3.91,0.84,7.04,2.48c3.13,1.65,6.97,2.48,11.53,2.5c3.99,0.01,8.51-0.79,13.58-2.41
				c5.06-1.62,10.37-2.42,15.93-2.4c7.98,0.03,14.87,2.76,20.7,8.2c6.82,6.44,10.2,15.14,10.16,26.11l-0.17,47.44
				c-0.03,7.12,0.03,11.25,0.17,12.4c0.28,2,1.19,3.57,2.76,4.71c1.14,0.57,2.27,1.15,3.41,1.72
				C1216.03,409.48,1216.39,410.27,1215.96,411.26z M1177.54,398.73v-0.21l0.12-34.19c-2.28-1.29-5.62-1.94-10.04-1.96
				c-4.84-0.02-9.12,2.03-12.84,6.15c-3.72,4.12-5.59,9.03-5.61,14.72c-0.02,5.84,1.46,10.66,4.43,14.44
				c2.98,3.79,6.89,5.69,11.73,5.7C1170.9,403.4,1174.96,401.85,1177.54,398.73z"/>
			<path class="st0" d="M1375.37,411.62c-1.01,2.42-3.94,4.83-8.79,7.23c-2.71,1.27-6.42,1.9-11.12,1.88l-2.99-0.01
				c-4.27-0.02-8.15-2.06-11.63-6.13c-3.48-4.07-5.2-9.31-5.18-15.72l0.18-51.07c0.02-6.41-0.32-10.69-1.02-12.83
				c-1.13-3.42-3.69-5.14-7.68-5.15c-6.13-0.02-9.21,5.95-9.25,17.92l-0.21,57.7c-0.02,4.13-1.52,7.69-4.53,10.67
				c-3,2.98-6.57,4.46-10.7,4.45l-1.71,0c-4.13-0.02-7.69-1.52-10.67-4.53c-2.98-3-4.46-6.57-4.45-10.7l0.21-57.7
				c0.02-6.41-0.32-10.69-1.02-12.83c-1.27-3.42-3.83-5.14-7.68-5.15c-6.13-0.02-9.21,5.95-9.25,17.92l-0.21,57.7
				c-0.02,4.14-1.52,7.69-4.53,10.67c-3,2.98-6.57,4.46-10.7,4.45l-1.71-0.01c-4.27-0.01-7.87-1.52-10.77-4.53
				c-2.91-3-4.36-6.57-4.34-10.7l0.24-65.6c0.01-3.42-0.62-6.2-1.89-8.34c-0.28-0.57-1.31-1.57-3.09-3
				c-1.78-1.43-2.66-2.86-2.65-4.28c0.01-2.7,3.58-5.97,10.72-9.79c6.71-3.68,11.91-5.51,15.62-5.5c5.84,0.02,9.6,3.53,11.29,10.51
				c6.86-7.38,15.85-11.05,26.96-11.01c9.97,0.04,17.22,4.19,21.75,12.47c4.43-4.69,8.68-7.91,12.75-9.68
				c4.07-1.77,9.23-2.64,15.5-2.62c5.98,0.02,11.67,2.61,17.07,7.75c5.39,5.15,8.08,11.35,8.05,18.62l-0.2,55.56
				c-0.03,7.12,0.1,11.26,0.39,12.39c0.27,2.14,1.19,3.78,2.76,4.93c1.14,0.57,2.24,1.15,3.31,1.72
				C1375.27,409.84,1375.65,410.62,1375.37,411.62z"/>
			<path class="st0" d="M1485.2,412.23c-1.01,2.42-3.86,4.76-8.57,7.02c-2.71,1.41-6.42,2.12-11.12,2.1l-1.92-0.01
				c-5.84-0.02-10.46-3.03-13.86-9.02c-6.15,5.96-14.64,8.92-25.46,8.89c-10.26-0.04-18.97-3.6-26.14-10.67
				c-7.17-7.08-10.73-15.75-10.7-26c0.04-10.11,3.98-18.72,11.85-25.81c7.86-7.09,16.99-10.62,27.39-10.59
				c9.54,0.03,16.31,1.2,20.29,3.49l0.03-7.91c0.04-11.25-4.29-16.9-12.97-16.93c-3.71-0.01-7.52,1.76-11.45,5.3
				c-3.93,3.55-7.68,5.32-11.24,5.3c-5.55-0.02-9.89-2.1-13.01-6.24c-2.41-3.14-3.61-6.49-3.6-10.06
				c0.03-7.98,1.47-11.96,4.32-11.95c1.56,0.01,3.91,0.84,7.04,2.48c3.13,1.65,6.97,2.48,11.53,2.5c3.99,0.02,8.51-0.79,13.58-2.41
				c5.06-1.62,10.37-2.42,15.93-2.4c7.98,0.03,14.87,2.76,20.7,8.2c6.82,6.44,10.2,15.14,10.16,26.11l-0.17,47.44
				c-0.03,7.12,0.03,11.25,0.17,12.39c0.28,2,1.19,3.57,2.76,4.71c1.14,0.57,2.27,1.15,3.41,1.72
				C1485.27,410.45,1485.63,411.23,1485.2,412.23z M1446.78,399.69v-0.21l0.12-34.19c-2.28-1.29-5.62-1.94-10.04-1.96
				c-4.84-0.02-9.12,2.03-12.84,6.15c-3.72,4.12-5.59,9.03-5.61,14.72c-0.02,5.84,1.46,10.66,4.43,14.44
				c2.98,3.79,6.89,5.69,11.73,5.71C1440.14,404.37,1444.2,402.82,1446.78,399.69z"/>
			<path class="st0" d="M1591.82,412.61c-1.01,2.42-3.86,4.76-8.57,7.02c-2.71,1.41-6.42,2.11-11.12,2.1l-1.92,0
				c-5.84-0.02-10.46-3.03-13.86-9.03c-6.15,5.96-14.64,8.92-25.46,8.88c-10.26-0.04-18.97-3.59-26.14-10.67
				c-7.17-7.08-10.73-15.75-10.7-26c0.04-10.11,3.98-18.72,11.85-25.81c7.86-7.09,16.99-10.62,27.39-10.59
				c9.54,0.03,16.31,1.2,20.29,3.49l0.03-7.91c0.04-11.25-4.29-16.9-12.97-16.93c-3.71-0.01-7.52,1.76-11.45,5.3
				c-3.93,3.55-7.68,5.31-11.24,5.3c-5.55-0.02-9.89-2.1-13.01-6.24c-2.41-3.14-3.61-6.49-3.6-10.06
				c0.03-7.98,1.46-11.96,4.32-11.95c1.56,0.01,3.91,0.84,7.04,2.48c3.13,1.65,6.97,2.48,11.53,2.5c3.99,0.01,8.51-0.79,13.58-2.41
				c5.06-1.62,10.37-2.42,15.93-2.4c7.98,0.03,14.87,2.76,20.7,8.19c6.82,6.44,10.2,15.14,10.16,26.11l-0.17,47.44
				c-0.03,7.12,0.03,11.26,0.17,12.39c0.28,2,1.19,3.57,2.76,4.71c1.14,0.58,2.27,1.15,3.41,1.72
				C1591.9,410.83,1592.25,411.62,1591.82,412.61z M1553.41,400.08v-0.21l0.12-34.19c-2.28-1.29-5.62-1.94-10.04-1.96
				c-4.84-0.02-9.12,2.03-12.84,6.15c-3.72,4.12-5.59,9.03-5.61,14.72c-0.02,5.84,1.46,10.66,4.43,14.44
				c2.98,3.79,6.89,5.69,11.73,5.71C1546.76,404.75,1550.83,403.2,1553.41,400.08z"/>
		</g>
		<g>
			<path class="st0" d="M1089.44,551.43c0.14,3.28-1.14,4.92-3.85,4.92c-1.71,0-3.28-0.8-4.7-2.38c-7.27-8.67-18.88-13-34.83-13
				h-22.44c2.14,3.44,3.21,8.23,3.21,14.38v34.77h19.02c6.98,0,13.53-0.85,19.66-2.56c3.42-0.99,5.7-0.35,6.84,1.92
				c0.57,1.43,0.85,3.06,0.85,4.91c0,4.27-1.35,9.76-4.06,16.46c-3.28,7.69-6.77,11.54-10.47,11.54c-2.43,0-4.06-1.01-4.92-3.04
				c-1.57-4.05-3.49-6.79-5.77-8.24c-3.42-2.02-9.4-3.04-17.95-3.04h-3.21v45.43c0,3.86-0.29,7.75-0.85,11.68
				c-0.57,3.93-2.03,7.57-4.38,10.93c-2.35,3.36-4.95,5.47-7.8,6.32c-2.28,0.72-6.84,1.28-13.68,1.71c-6.56,0.28-10.9,0.28-13.04,0
				c-2.56,0.28-3.85-0.86-3.85-3.42c0-0.71,1.18-2.6,3.53-5.66c2.35-3.06,3.53-6.87,3.53-11.43V545.45c0-7.55-1.21-11.97-3.63-13.25
				c-2.85-1.56-4.27-3.49-4.27-5.77c0-3.27,1.42-4.77,4.27-4.49c1.42,0.14,8.4,0.5,20.94,1.07h44.87c7.41,0,13.39-0.78,17.95-2.35
				c2.99-0.99,5.7-0.35,8.12,1.92C1085.24,528.85,1088.87,538.47,1089.44,551.43z"/>
			<path class="st0" d="M1187.74,628.36c0.71,0.43,1.07,1.21,1.07,2.35c-0.14,1.14-0.72,2-1.71,2.56
				c-4.42,1.85-8.33,2.78-11.75,2.78c-4.84,0-8.83-0.78-11.97-2.35c-4.13-2.28-6.2-6.41-6.2-12.39c0-1.28,0.07-2.56,0.21-3.85
				l2.14-10.04c0.57-3.56-0.11-6.48-2.03-8.76c-1.92-2.28-4.74-3.42-8.44-3.42c-8.69,0-13.04,5.34-13.04,16.03v44.23
				c0,6.98,0.07,11.11,0.21,12.39c0.28,2.14,1.21,3.78,2.78,4.92c1.14,0.57,2.24,1.14,3.31,1.71c1.07,0.57,1.46,1.35,1.17,2.35
				c-0.85,2.14-3.71,4.56-8.55,7.27c-3.13,1.28-6.84,1.92-11.11,1.92h-2.99c-4.42,0-8.34-2.03-11.75-6.09
				c-3.42-4.06-5.13-9.3-5.13-15.71v-58.98c0-3.27-0.64-6.05-1.92-8.33c-0.29-0.43-1.43-1.5-3.42-3.21
				c-1.57-1.28-2.35-2.64-2.35-4.06c0-2.7,3.56-5.98,10.68-9.83c6.69-3.7,11.89-5.56,15.6-5.56c5.84,0,9.61,3.49,11.32,10.47
				c6.69-7.41,15.81-11.11,27.35-11.11c7.26,0,13.43,2.57,18.48,7.69c5.05,5.13,7.59,10.97,7.59,17.52c0,1.14-0.07,2.28-0.21,3.42
				l-1.71,7.69c-0.72,2.99-1.21,5.49-1.5,7.48C1183.04,622.3,1184.32,625.94,1187.74,628.36z"/>
			<path class="st0" d="M1301.85,677.08c-1,2.43-3.85,4.77-8.55,7.05c-2.71,1.42-6.41,2.14-11.11,2.14h-1.92
				c-3.28,0-6.34-0.93-9.19-2.78c-3.42-2.14-5.55-5.2-6.41-9.19c-6.41,7.83-16.88,11.82-31.41,11.97c-8.41,0-14.89-2.72-19.45-8.14
				c-3.99-4.71-5.98-10.77-5.98-18.2v-13.7v-41.32c0-3.28-0.64-6.07-1.92-8.35c-0.29-0.43-1.36-1.5-3.21-3.21
				c-1.43-1.28-2.14-2.64-2.14-4.07c0-2.71,3.63-6,10.9-9.85c6.84-3.71,12.11-5.57,15.81-5.57c5.7,0,9.47,3.71,11.32,11.11
				c0.86,6.13,1.28,10.83,1.28,14.1v51.28c0,9.4,3.92,14.1,11.75,14.1c7.12,0,10.68-4.7,10.68-14.1V588.4
				c0-4.13,1.5-7.69,4.49-10.68c2.99-2.99,6.55-4.49,10.68-4.49h1.71c4.13,0,7.69,1.5,10.68,4.49c2.99,2.99,4.49,6.55,4.49,10.68
				v66.03c0,7.12,0.07,11.32,0.21,12.61c0.28,2.85,1.21,4.84,2.78,5.98c1.14,0.57,2.24,1.14,3.31,1.71
				C1301.74,675.3,1302.13,676.08,1301.85,677.08z"/>
			<path class="st0" d="M1358.26,540.32c0,5.7-2,10.54-5.98,14.53c-3.99,3.99-8.84,5.98-14.53,5.98c-5.7,0-10.54-1.99-14.53-5.98
				c-3.99-3.99-5.98-8.83-5.98-14.53c0-5.7,1.99-10.54,5.98-14.53c3.99-3.99,8.83-5.98,14.53-5.98c5.7,0,10.54,2,14.53,5.98
				C1356.26,529.78,1358.26,534.62,1358.26,540.32z M1364.24,676.86c-0.85,2.14-3.71,4.56-8.55,7.27
				c-3.13,1.28-6.84,1.92-11.11,1.92h-2.99c-4.42,0-8.34-2.03-11.75-6.09c-3.42-4.06-5.13-9.3-5.13-15.71V602.5
				c0-3.27-0.62-6.05-1.87-8.33c-0.28-0.43-1.39-1.5-3.33-3.21c-1.52-1.28-2.28-2.64-2.28-4.06c0-2.7,3.54-5.98,10.63-9.83
				c6.66-3.7,11.83-5.56,15.52-5.56c5.81,0,9.56,3.49,11.26,10.47c1.42,8.12,2.13,17.6,2.13,28.42v45.09
				c0,6.98,0.07,11.11,0.21,12.39c0.28,2.14,1.21,3.78,2.78,4.92c1.14,0.57,2.24,1.14,3.31,1.71
				C1364.13,675.08,1364.52,675.87,1364.24,676.86z"/>
			<path class="st0" d="M1436.89,574.29l-8.12,17.95h-10.9v69.42c0,8,2.85,12,8.55,12c1.71,0,3.21-0.5,4.49-1.5
				c0.71-0.57,1.28-0.57,1.71,0c0.43,0.43,0.43,1.14,0,2.14c-3.56,8.26-11.04,12.32-22.44,12.18c-16.24,0-24.36-8.69-24.36-26.07
				V558.05l32.05-17.74v33.98H1436.89z"/>
			<path class="st0" d="M1533.26,652.9c0,22.96-15.81,34.43-47.44,34.43c-7.69,0-14.32-1.14-19.87-3.42
				c-3.71-1.56-8.12-4.34-13.25-8.33c-4.13-3.13-6.2-6.12-6.2-8.97c0-3.28,1.78-4.92,5.34-4.92c1.14,0,2.28,0.29,3.42,0.85
				c12.68,5.84,22.87,8.76,30.56,8.76c3.99,0,7.19-1.07,9.62-3.21c2.42-2.14,3.63-4.84,3.63-8.12c0-6.98-4.2-12.11-12.61-15.39
				c0,0.14-5.63-1.92-16.88-6.2c-14.82-5.7-22.23-16.45-22.23-32.27c0-8.69,3.1-16.24,9.3-22.65c6.2-6.41,13.92-9.62,23.19-9.62
				c4.13,0,8.9,0.93,14.32,2.78c2.42,0.85,5.2,1.28,8.34,1.28c3.85,0,7.05-0.57,9.62-1.71c4.27-2.14,7.05-3.21,8.33-3.21
				c3.27,0,4.92,4.35,4.92,13.03c0,2.85-1.14,5.84-3.42,8.97c-2.99,3.85-6.84,5.77-11.54,5.77c-3.42,0-7.05-1.64-10.9-4.91
				c-3.84-3.28-7.62-4.92-11.32-4.92c-7.69,0-11.54,3.54-11.54,10.63c0,6.1,3.08,10.42,9.23,12.97c3.98,1.44,11.6,4.31,22.84,8.61
				c7.54,2.85,13.52,7.06,17.93,12.62C1531.06,641.36,1533.26,647.06,1533.26,652.9z"/>
		</g>
	</g>
	<g>
		<path class="st0" d="M370.02,273.91c13.58-19.29,26.84-43.58,35.42-73.03c1.35-4.63,2.52-9.19,3.54-13.65
			c0.68-3.82,1.37-7.64,2.05-11.46c0.77-3.12,1.64-6.27,2.61-9.44c12.96-42.31,40.07-73.66,66.88-95.96c0,0,34.89-31.99,110.5-37.8
			S678.24,6.4,678.24,6.4c5.25,18.21,19.95,77.96-8.72,142.48c-5.35,12.04-33.65,75.73-95.96,98.86
			c-14.52,5.39-27.61,7.11-53.79,10.54c-40.32,5.29-74.06,5.14-97.41,4c0,0,122.13-72.69,130.85-122.13
			C553.21,140.15,468.88,233.2,370.02,273.91z"/>
		<path class="st1" d="M442.49,357.38c0,0,51.77-88.66,180.18-79.05c128.41,9.61,165.73,147.85,165.73,147.85
			s39.79,202.16,123.49,184.39c0,0-115.78,91.75-228.87,26.27S568.45,333.27,496.32,335.8c-72.13,2.54,0,0,0,0
			S479.11,323.33,442.49,357.38"/>
		
			<radialGradient id="SVGID_1_" cx="510.0633" cy="550.1563" r="177.4115" gradientTransform="matrix(0.1013 -0.9949 0.4974 0.0506 184.7378 1029.7352)" gradientUnits="userSpaceOnUse">
			<stop  offset="0.029" style="stop-color:#FFFFFF"/>
			<stop  offset="0.1529" style="stop-color:#F7FAF0"/>
			<stop  offset="0.3912" style="stop-color:#E4EEC9"/>
			<stop  offset="0.7162" style="stop-color:#C4DA8A"/>
			<stop  offset="1" style="stop-color:#A6C74E"/>
		</radialGradient>
		<path class="st2" d="M392.07,469.51c1.73-17.98,11.5-102.63,70.99-131.62c5.54-2.7,11.76-5.04,18.72-6.74
			c6.7-1.85,16.3-3.33,26.34-0.09c20.84,6.72,28.85,29.95,39.26,53.36c23.26,52.34,34.89,101.77,49.43,136.67
			c14.54,34.89,31.99,61.06,31.99,61.06s-78.51,186.1-119.22,189.01C468.88,774.05,393.77,586.59,392.07,469.51
			C390.37,352.42,392.07,469.51,392.07,469.51"/>
		<path class="st1" d="M8,211.39c12.59-15.44,46.02-52.11,101.77-66.88c8.73-2.31,92.91-23.28,165.74,31.99
			c44.62,33.85,61.31,78.34,66.88,95.96c17.61,48.94,28.45,89.53,34.89,116.31c35.98,149.45,51.71,271.97,90.14,337.3
			c29.08,49.43,46.52,43.62,46.52,43.62s-84.33,49.43-177.37,8.72C247.39,739.39,214.3,632.15,194.1,566.14
			c-28.19-92.09-48.12-242.86-87.23-308.22c-14.37-24.02-30.05-34.37-40.58-39.47C43.14,207.24,20.07,209.34,8,211.39z"/>
	</g>
</g>
</svg>
