<?xml version="1.0" encoding="utf-8"?>
<!-- Generator: Adobe Illustrator 23.0.1, SVG Export Plug-In . SVG Version: 6.00 Build 0)  -->
<svg version="1.1" id="Layer_1" xmlns="http://www.w3.org/2000/svg" xmlns:xlink="http://www.w3.org/1999/xlink" x="0px" y="0px"
	 viewBox="0 0 800 500" style="enable-background:new 0 0 800 500;" xml:space="preserve">
<style type="text/css">
	.st0{fill:#3B4552;}
	.st1{fill:#0C4087;}
</style>
<path class="st0" d="M788.58,452.87c0,0-15.71-16.6-30.71-33.2c-14.81-16.39-27.32-16.5-27.65-16.5c4.17-4.71,6.61-10.4,6.61-16.54
	V57.28c0-16.16-16.92-29.28-37.78-29.28h-56.8l-25.51,26.84h76.02c4.34,0,7.87,2.73,7.87,6.1v322.03c0,3.37-3.53,6.1-7.87,6.1
	H107.24c-4.34,0-7.87-2.73-7.87-6.1V60.93c0-3.37,3.53-6.1,7.87-6.1h332.01L464.77,28H100.95c-20.86,0-37.78,13.11-37.78,29.28
	v329.35c0,6.14,2.44,11.83,6.61,16.54c-0.33,0-12.84,0.11-27.65,16.5c-15,16.6-30.71,33.2-30.71,33.2s-37.85,34.33,24.29,40.96
	c90.36,9.66,666.47,6.65,728.59,0C826.44,487.2,788.58,452.87,788.58,452.87z M717.16,448.91h-196.4v9.97c0,0,2.86,7.2-15,6.64
	c-17.85-0.55-100.04,0.04-100.04,0.04s-82.19-0.59-100.04-0.04c-17.86,0.56-15-6.64-15-6.64v-9.97H94.27c0,0-24.29-1.66-13.58-19.92
	c1.18-2,5.21-9.01,14.5-12.17c7.74-2.65,144.27,0.79,310.53-1.11c166.26,1.9,302.78-1.54,310.53,1.11
	c9.29,3.16,13.32,10.17,14.5,12.17C741.44,447.25,717.16,448.91,717.16,448.91z"/>
<path class="st1" d="M364.49,264.49c-8.84-8.84-17.68-17.68-26.53-26.53c9.78-14.33,22.91-32.6,39.35-53.03
	C462.63,78.95,578.28-11.84,592.25,1.06c18.16,16.76-143.68,201.08-173.79,225.02C397.96,242.37,379.33,255.07,364.49,264.49z"/>
<path class="st1" d="M332.48,249.07l25.61,22.74c0,0,6.4,48.48-41.16,70.43s-46.65,20.12-56.71,34.76
	C260.22,377,198.02,256.52,332.48,249.07z"/>
</svg>
