<svg id="Layer_1" data-name="Layer 1" xmlns="http://www.w3.org/2000/svg" viewBox="0 0 415 662.17"><defs><style>.cls-1{fill:#003472;}</style></defs><title>icon</title><path class="cls-1" d="M302.89,552.31,301.25,551c-6.85-5.45-10.4-10.77-10.78-16.35-.38-6.46,3.55-13.69,10.52-19,7.23-5.57,15.59-7.35,22.43-5.07,8.11,2.79,16.1,12.68,14.45,22.18h0C336,543.56,323.8,546.73,311,550.15c-1.9.51-3.92,1-5.83,1.52ZM317.21,518a19.4,19.4,0,0,0-11.28,4.31c-4.56,3.55-7.47,8.24-7.22,11.79.13,2.66,2.28,5.7,6.08,9,1.27-.38,2.67-.64,3.93-1,10.65-2.79,19.9-5.19,20.79-10.77.88-4.94-4.19-11.28-8.87-12.93A16,16,0,0,0,317.21,518Z" transform="translate(-177 -41.37)"/><path class="cls-1" d="M298.33,694.12c0,3.42-1,5.58-2.28,6.84-14.19,13.57-104.93-28-117.48-84.27C163.74,549.77,258,494,293.52,473.1c3.16-1.9,6-3.55,8.11-4.82,10.64-6.59,38.4-22.68,65.26-29.65,24-6.21,42.21-3.93,54,6.71,17.36,15.72,20.91,51.2,8,80.86-6.09,14.07-15.34,25.6-26.87,33.58-28.39,19.65-65,14-87.57,3.17a69.49,69.49,0,0,1-10.14-5.83c-.64-.38-1.27-.88-1.9-1.26a39,39,0,0,0-18,9.12c-16.86,15.59-12.67,43.72-11.15,54.12,1.65,11.53,3.93,13,16.73,50.18C293.52,679.55,296.43,688.29,298.33,694.12Zm92.52-244.85a80.42,80.42,0,0,0-20.41,3.05c-25.09,6.46-51.32,21.79-61.34,28-2.15,1.4-5.07,3-8.23,4.95-24.46,14.44-112.8,69.83-108.23,128.25,3.8,48.16,70.08,86.94,84.78,76.42,18-12.8-37.51-100.5-3-135.48a40.38,40.38,0,0,1,14.45-9.25l-.64-.51,2.41-.76a20.28,20.28,0,0,1-3.17-9.25c-.51-7.35,3.93-15.71,11.66-21.54,8-6.09,17.36-8.24,25.22-5.58,9.51,3.3,18.38,14.32,16.35,25.6C339,542.68,331,547,321.65,550c20.66,9.5,50.69,12.42,72.24-2.54,9.25-6.34,16.73-15.84,21.8-27.37,10.26-23.58,8.23-53.1-4.44-64.51C406.43,451.43,399.59,449.27,390.85,449.27Z" transform="translate(-177 -41.37)"/><path class="cls-1" d="M514.92,591.09c-24.84,0-56.78-21.42-91.38-61.85s-68.81-96.7-88.84-146.37h0a436.3,436.3,0,0,1-28.38-105.7c-9-67.55.63-127.49,28.51-178.19l.63-1.14c11-20,31.43-57.15,50.32-51.7,10.9,3.17,9.37,23.82,6.59,65.14-3.17,46.38-8,116.46,3.67,198.59,2.41,17.36,6.85,36.88,10.14,42.2,1.14-4.69,1.27-17.11,1.52-29.28,1-55.63,2.92-171.34,72.49-245.22C492.87,64,502.12,54.25,513.9,55.77c35.87,4.69,59.19,115.45,68.19,208.85,13.81,142.83,2.4,305.3-55,324.44A35.08,35.08,0,0,1,514.92,591.09ZM340.15,380.58c19.9,49.18,53.48,104.69,87.83,144.73,38.91,45.37,73.38,66,97.2,58.17,52-17.23,64.89-173.11,51-318.22C564.85,148.79,539,65.15,513.14,61.73c-8.36-1.15-16,6.46-28.64,19.89-67.93,72.11-70,186.3-70.84,241.17-.51,26.75-.64,35.87-6.59,36.25-4.31.25-8-3.93-12.8-25.09-2.54-11.54-4.18-23.2-4.18-23.32-11.79-82.76-7-153.22-3.81-199.86,2.16-30.67,3.93-57.28-2.28-59.06-14.32-4.05-35.48,34.35-43.34,48.92l-.63,1.14c-58.43,106.33-19.39,230.4.12,278.81l-2.79,1.15Z" transform="translate(-177 -41.37)"/><path class="cls-1" d="M514.92,595.27c-26.36,0-59.06-21.93-94.55-63.24-35-40.93-69.32-97.46-89.6-147.52A437.56,437.56,0,0,1,302.13,277.8c-9.12-68.43.64-129.26,29-180.84l.64-1.14c12.29-22.44,32.95-60.08,55.13-53.74,14.06,4.06,12.67,24.59,9.63,69.45-3.17,46.26-8,116,3.67,197.7.89,6.34,2,12.8,3.3,18.63,0-1.77,0-3.42.13-5.07,1-56.26,3-173.11,73.63-248,13.05-13.94,23.44-24.84,37.38-23.07,49.43,6.47,68.57,178.19,71.86,212.66,14.45,149.29,2,308.85-57.79,328.75A47,47,0,0,1,514.92,595.27ZM343.7,378.05l.38.89c19.64,48.79,53.1,103.79,87.19,143.59,37.14,43.34,71,64.12,92.65,56.9,49.29-16.35,61.59-173.88,48-313.79-12.17-126.35-39.67-197.2-59.44-199.73-6.46-.89-13.69,6.59-25.09,18.63-66.79,71-68.82,184-69.71,238.38-.5,29.66-.63,39.67-10.52,40.3-9,.51-13.05-9.88-17.1-28.39-2.41-10.77-3.93-21.54-4.31-23.57-11.79-83.26-7-154-3.81-200.74,1.4-21.17,3.43-49.94.26-54.75-4.44-.76-15.08,4.94-38.15,47l-.63,1.14C286.42,208,324.31,329.64,343.7,378.05Z" transform="translate(-177 -41.37)"/></svg>