<?xml version="1.0" encoding="utf-8"?>
<!-- Generator: Adobe Illustrator 23.0.1, SVG Export Plug-In . SVG Version: 6.00 Build 0)  -->
<svg version="1.1" id="Layer_1" xmlns="http://www.w3.org/2000/svg" xmlns:xlink="http://www.w3.org/1999/xlink" x="0px" y="0px"
	 viewBox="0 0 299.57 98.71" style="enable-background:new 0 0 299.57 98.71;" xml:space="preserve">
<style type="text/css">
	.st0{display:none;fill:url(#SVGID_1_);}
	.st1{fill:url(#SVGID_2_);}
	.st2{fill:url(#SVGID_3_);}
	.st3{fill:url(#SVGID_4_);}
	.st4{fill:url(#SVGID_5_);}
	.st5{fill:url(#SVGID_6_);}
	.st6{fill:url(#SVGID_7_);}
	.st7{fill:#FFFFFF;}
	.st8{fill:#E6E6E6;}
</style>
<g>
	<g>
		<linearGradient id="SVGID_1_" gradientUnits="userSpaceOnUse" x1="9.7085" y1="50.8836" x2="12.8031" y2="50.8836">
			<stop  offset="0" style="stop-color:#3F80FF"/>
			<stop  offset="0" style="stop-color:#3F7FFD"/>
			<stop  offset="0" style="stop-color:#407DF5"/>
			<stop  offset="0" style="stop-color:#407CF3"/>
			<stop  offset="0" style="stop-color:#407CF3"/>
			<stop  offset="0" style="stop-color:#407CF3"/>
			<stop  offset="0" style="stop-color:#97B8F8"/>
			<stop  offset="0" style="stop-color:#FFFFFF"/>
			<stop  offset="0.4916" style="stop-color:#FFFFFF"/>
			<stop  offset="1" style="stop-color:#F6FAFF"/>
		</linearGradient>
		<path class="st0" d="M12.79,50.99c-0.13,0.75-1.22,0.92-2.35,1.23c-0.35-0.28-0.7-0.64-0.73-1.06c-0.06-0.84,1.22-1.89,2.16-1.56
			C12.4,49.79,12.89,50.43,12.79,50.99z"/>
		<linearGradient id="SVGID_2_" gradientUnits="userSpaceOnUse" x1="9.3785" y1="50.9003" x2="13.1334" y2="50.9003">
			<stop  offset="0" style="stop-color:#3F80FF"/>
			<stop  offset="0" style="stop-color:#3F7FFD"/>
			<stop  offset="0" style="stop-color:#407DF5"/>
			<stop  offset="0" style="stop-color:#407CF3"/>
			<stop  offset="0" style="stop-color:#407CF3"/>
			<stop  offset="0" style="stop-color:#407CF3"/>
			<stop  offset="0" style="stop-color:#97B8F8"/>
			<stop  offset="0" style="stop-color:#FFFFFF"/>
			<stop  offset="0.4916" style="stop-color:#FFFFFF"/>
			<stop  offset="1" style="stop-color:#F6FAFF"/>
		</linearGradient>
		<path class="st1" d="M10.37,52.59l-0.13-0.1c-0.54-0.43-0.82-0.85-0.85-1.29c-0.03-0.51,0.28-1.08,0.83-1.5
			c0.57-0.44,1.23-0.58,1.77-0.4c0.64,0.22,1.27,1,1.14,1.75l0,0c-0.15,0.85-1.11,1.1-2.12,1.37c-0.15,0.04-0.31,0.08-0.46,0.12
			L10.37,52.59z M11.5,49.88c-0.28,0-0.6,0.12-0.89,0.34c-0.36,0.28-0.59,0.65-0.57,0.93c0.01,0.21,0.18,0.45,0.48,0.71
			c0.1-0.03,0.21-0.05,0.31-0.08c0.84-0.22,1.57-0.41,1.64-0.85c0.07-0.39-0.33-0.89-0.7-1.02C11.68,49.89,11.59,49.88,11.5,49.88z"
			/>
	</g>
	<g>
		<linearGradient id="SVGID_3_" gradientUnits="userSpaceOnUse" x1="0.4324" y1="53.9238" x2="20.9196" y2="53.9238">
			<stop  offset="0" style="stop-color:#3F80FF"/>
			<stop  offset="0" style="stop-color:#3F7FFD"/>
			<stop  offset="0" style="stop-color:#407DF5"/>
			<stop  offset="0" style="stop-color:#407CF3"/>
			<stop  offset="0" style="stop-color:#407CF3"/>
			<stop  offset="0" style="stop-color:#407CF3"/>
			<stop  offset="0" style="stop-color:#97B8F8"/>
			<stop  offset="0" style="stop-color:#FFFFFF"/>
			<stop  offset="0.4916" style="stop-color:#FFFFFF"/>
			<stop  offset="1" style="stop-color:#F6FAFF"/>
		</linearGradient>
		<path class="st2" d="M10.01,63.78c0,0.27-0.08,0.44-0.18,0.54c-1.12,1.07-8.28-2.21-9.27-6.65c-1.17-5.28,6.27-9.68,9.07-11.33
			c0.25-0.15,0.47-0.28,0.64-0.38c0.84-0.52,3.03-1.79,5.15-2.34c1.89-0.49,3.33-0.31,4.26,0.53c1.37,1.24,1.65,4.04,0.63,6.38
			c-0.48,1.11-1.21,2.02-2.12,2.65c-2.24,1.55-5.13,1.1-6.91,0.25c-0.29-0.14-0.56-0.29-0.8-0.46c-0.05-0.03-0.1-0.07-0.15-0.1
			c-0.39,0.09-0.95,0.28-1.42,0.72c-1.33,1.23-1,3.45-0.88,4.27c0.13,0.91,0.31,1.03,1.32,3.96C9.63,62.63,9.86,63.32,10.01,63.78z
			 M17.31,44.46c-0.47,0-1.01,0.08-1.61,0.24c-1.98,0.51-4.05,1.72-4.84,2.21c-0.17,0.11-0.4,0.24-0.65,0.39
			c-1.93,1.14-8.9,5.51-8.54,10.12c0.3,3.8,5.53,6.86,6.69,6.03c1.42-1.01-2.96-7.93-0.24-10.69c0.41-0.42,0.88-0.63,1.14-0.73
			l-0.05-0.04l0.19-0.06c-0.15-0.24-0.23-0.48-0.25-0.73c-0.04-0.58,0.31-1.24,0.92-1.7c0.63-0.48,1.37-0.65,1.99-0.44
			c0.75,0.26,1.45,1.13,1.29,2.02c-0.13,0.75-0.76,1.09-1.5,1.33c1.63,0.75,4,0.98,5.7-0.2c0.73-0.5,1.32-1.25,1.72-2.16
			c0.81-1.86,0.65-4.19-0.35-5.09C18.54,44.63,18,44.46,17.31,44.46z"/>
	</g>
	<g>
		<linearGradient id="SVGID_4_" gradientUnits="userSpaceOnUse" x1="16.1707" y1="62.1287" x2="87.2216" y2="62.1287">
			<stop  offset="0" style="stop-color:#3F80FF"/>
			<stop  offset="0" style="stop-color:#3F7FFD"/>
			<stop  offset="0" style="stop-color:#407DF5"/>
			<stop  offset="0" style="stop-color:#407CF3"/>
			<stop  offset="0" style="stop-color:#407CF3"/>
			<stop  offset="0" style="stop-color:#407CF3"/>
			<stop  offset="0" style="stop-color:#97B8F8"/>
			<stop  offset="0" style="stop-color:#FFFFFF"/>
			<stop  offset="0.4916" style="stop-color:#FFFFFF"/>
			<stop  offset="1" style="stop-color:#F6FAFF"/>
		</linearGradient>
		<path class="st3" d="M68.12,86.4c-2.03,0-4.18-0.17-6.43-0.52c-10.63-1.65-22.37-7.16-33.11-15.53
			c-0.39,1.99-2.31,10.85-5.74,13.08c-0.74,0.48-1.51,0.63-2.29,0.44c-5.24-1.28-4.34-16.72-4.3-17.37l0.47,0.03
			c-0.01,0.16-0.92,15.7,3.94,16.88c0.66,0.16,1.28,0.04,1.92-0.38c3.62-2.35,5.58-13.04,5.6-13.15l0.07-0.39l0.31,0.24
			c10.76,8.45,22.55,14.01,33.2,15.67c9.65,1.5,17.44-0.3,21.37-4.94c2.86-3.38,4.11-8.83,3.43-14.96
			c-0.95-8.51-5.4-16.53-11.92-21.44c-12.31-9.29-30.25-7.14-40.84,4.88l-0.35-0.31c5.23-5.94,12.41-9.69,20.22-10.58
			c7.73-0.88,15.28,1.12,21.26,5.64c6.62,4.99,11.14,13.13,12.1,21.77c0.7,6.26-0.6,11.84-3.54,15.32
			C80.38,84.45,74.94,86.4,68.12,86.4z"/>
		<linearGradient id="SVGID_5_" gradientUnits="userSpaceOnUse" x1="15.676" y1="62.1289" x2="87.5514" y2="62.1289">
			<stop  offset="0" style="stop-color:#3F80FF"/>
			<stop  offset="0" style="stop-color:#3F7FFD"/>
			<stop  offset="0" style="stop-color:#407DF5"/>
			<stop  offset="0" style="stop-color:#407CF3"/>
			<stop  offset="0" style="stop-color:#407CF3"/>
			<stop  offset="0" style="stop-color:#407CF3"/>
			<stop  offset="0" style="stop-color:#97B8F8"/>
			<stop  offset="0" style="stop-color:#FFFFFF"/>
			<stop  offset="0.4916" style="stop-color:#FFFFFF"/>
			<stop  offset="1" style="stop-color:#F6FAFF"/>
		</linearGradient>
		<path class="st4" d="M68.12,86.73c-2.06,0-4.24-0.18-6.48-0.53c-10.53-1.64-22.18-7.06-32.85-15.27
			c-0.63,3.02-2.51,10.65-5.78,12.77c-0.82,0.53-1.67,0.69-2.54,0.48c-3.29-0.8-3.97-5.74-4.31-8.48c-0.24-1.96-0.46-3.92-0.47-5.9
			c0-0.91-0.09-2.05,0.17-2.93c0.12-0.4-0.04-0.75,0.44-0.79c1.24-0.11,0.66,3.12,0.66,3.74c0.01,1.85,0.09,3.71,0.31,5.55
			c0.26,2.21,0.7,7.04,3.46,7.71c0.57,0.14,1.1,0.03,1.66-0.33c2.14-1.39,3.13-4.52,3.88-6.81c0.36-1.09,0.55-2.24,0.82-3.36
			c0.2-0.85,0.28-2.44,0.89-3.08c0.97-1.02,2.56,1.33,3.45,1.98c1.28,0.93,2.58,1.83,3.9,2.7c2.7,1.78,5.5,3.42,8.38,4.88
			c5.69,2.88,11.77,5.04,18.09,6.02c9.53,1.48,17.21-0.27,21.07-4.82c2.8-3.31,4.03-8.67,3.36-14.71
			C85.3,57.13,80.9,49.2,74.45,44.34c-9.01-6.8-21.45-7.38-31.37-2.23c-1.82,0.94-3.54,2.08-5.13,3.37
			c-0.85,0.69-1.66,1.41-2.44,2.18c-0.36,0.36-0.67,0.81-1.08,1.12c-0.5,0.38-0.94,0.56-1.4-0.03c0.63-1.5,2.78-3.02,4.04-4.04
			c1.59-1.29,3.3-2.42,5.1-3.38c3.55-1.89,7.46-3.13,11.46-3.58c7.81-0.89,15.45,1.14,21.5,5.7c6.69,5.05,11.26,13.27,12.23,21.99
			c0.71,6.35-0.61,12.02-3.62,15.57C80.61,84.69,75.06,86.73,68.12,86.73z"/>
	</g>
	<g>
		<linearGradient id="SVGID_6_" gradientUnits="userSpaceOnUse" x1="10.3817" y1="34.1252" x2="32.8216" y2="34.1252">
			<stop  offset="0" style="stop-color:#3F80FF"/>
			<stop  offset="0" style="stop-color:#3F7FFD"/>
			<stop  offset="0" style="stop-color:#407DF5"/>
			<stop  offset="0" style="stop-color:#407CF3"/>
			<stop  offset="0" style="stop-color:#407CF3"/>
			<stop  offset="0" style="stop-color:#407CF3"/>
			<stop  offset="0" style="stop-color:#97B8F8"/>
			<stop  offset="0" style="stop-color:#FFFFFF"/>
			<stop  offset="0.4916" style="stop-color:#FFFFFF"/>
			<stop  offset="1" style="stop-color:#F6FAFF"/>
		</linearGradient>
		<path class="st5" d="M27.1,55.65c-1.96,0-4.48-1.69-7.21-4.88c-2.74-3.2-5.43-7.63-7.01-11.55l0,0c-1.12-2.77-1.87-5.57-2.24-8.34
			c-0.71-5.33,0.05-10.06,2.25-14.06l0.05-0.09c0.87-1.58,2.48-4.51,3.97-4.08c0.86,0.25,0.74,1.88,0.52,5.14
			c-0.25,3.66-0.63,9.19,0.29,15.67c0.19,1.37,0.54,2.91,0.8,3.33c0.09-0.37,0.1-1.35,0.12-2.31c0.08-4.39,0.23-13.52,5.72-19.35
			c1-1.07,1.73-1.84,2.66-1.72c2.83,0.37,4.67,9.11,5.38,16.48c1.09,11.27,0.19,24.09-4.34,25.6C27.76,55.6,27.44,55.65,27.1,55.65z
			 M13.31,39.04c1.57,3.88,4.22,8.26,6.93,11.42c3.07,3.58,5.79,5.21,7.67,4.59c4.1-1.36,5.12-13.66,4.02-25.11
			c-0.89-9.19-2.93-15.79-4.97-16.06c-0.66-0.09-1.26,0.51-2.26,1.57c-5.36,5.69-5.52,14.7-5.59,19.03
			c-0.04,2.11-0.05,2.83-0.52,2.86c-0.34,0.02-0.63-0.31-1.01-1.98c-0.2-0.91-0.33-1.83-0.33-1.84c-0.93-6.53-0.55-12.09-0.3-15.77
			c0.17-2.42,0.31-4.52-0.18-4.66c-1.13-0.32-2.8,2.71-3.42,3.86l-0.05,0.09C8.69,25.43,11.77,35.22,13.31,39.04l-0.22,0.09
			L13.31,39.04z"/>
		<linearGradient id="SVGID_7_" gradientUnits="userSpaceOnUse" x1="10.0516" y1="34.1245" x2="33.1637" y2="34.1245">
			<stop  offset="0" style="stop-color:#3F80FF"/>
			<stop  offset="0" style="stop-color:#3F7FFD"/>
			<stop  offset="0" style="stop-color:#407DF5"/>
			<stop  offset="0" style="stop-color:#407CF3"/>
			<stop  offset="0" style="stop-color:#407CF3"/>
			<stop  offset="0" style="stop-color:#407CF3"/>
			<stop  offset="0" style="stop-color:#97B8F8"/>
			<stop  offset="0" style="stop-color:#FFFFFF"/>
			<stop  offset="0.4916" style="stop-color:#FFFFFF"/>
			<stop  offset="1" style="stop-color:#F6FAFF"/>
		</linearGradient>
		<path class="st6" d="M27.1,55.98c-2.08,0-4.66-1.73-7.46-4.99c-2.76-3.23-5.47-7.69-7.07-11.64c-1.13-2.79-1.89-5.62-2.26-8.42
			c-0.72-5.4,0.05-10.2,2.29-14.27l0.05-0.09c0.97-1.77,2.6-4.74,4.35-4.24c1.11,0.32,1,1.94,0.76,5.48
			c-0.25,3.65-0.63,9.15,0.29,15.6c0.07,0.5,0.16,1.01,0.26,1.47c0-0.14,0-0.27,0.01-0.4c0.08-4.44,0.24-13.66,5.81-19.57
			c1.03-1.1,1.85-1.96,2.95-1.82c3.9,0.51,5.41,14.06,5.67,16.78c1.14,11.78,0.16,24.37-4.56,25.94
			C27.83,55.92,27.47,55.98,27.1,55.98z M13.59,38.84l0.03,0.07c1.55,3.85,4.19,8.19,6.88,11.33c2.93,3.42,5.6,5.06,7.31,4.49
			c3.89-1.29,4.86-13.72,3.79-24.76c-0.96-9.97-3.13-15.56-4.69-15.76c-0.51-0.07-1.08,0.52-1.98,1.47
			c-5.27,5.6-5.43,14.52-5.5,18.81c-0.04,2.34-0.05,3.13-0.83,3.18c-0.71,0.04-1.03-0.78-1.35-2.24c-0.19-0.85-0.31-1.7-0.34-1.86
			c-0.93-6.57-0.55-12.15-0.3-15.84c0.11-1.67,0.27-3.94,0.02-4.32c-0.35-0.06-1.19,0.39-3.01,3.71l-0.05,0.09
			C9.07,25.42,12.06,35.02,13.59,38.84z"/>
	</g>
	<g>
		<path class="st7" d="M114.95,43.96v0.73c-3.2,3.2-6.12,5.63-8.78,7.3c-2.66,1.67-5.34,2.5-8.05,2.5c-2.4,0-3.6-1.37-3.6-4.11
			c0-2.28,0.86-4.29,2.59-6.02c1.73-1.73,3.75-3.05,6.08-3.98c2.33-0.93,4.22-1.39,5.67-1.39c0.83,0,1.48,0.19,1.95,0.58
			c0.47,0.39,0.71,0.89,0.71,1.52c0,0.97-0.53,1.86-1.58,2.68c-1.06,0.81-2.53,1.48-4.41,2.01c-1.88,0.53-4.1,0.83-6.64,0.92
			c-2.17,2.46-3.25,4.33-3.25,5.61c0,0.46,0.24,0.83,0.71,1.13s1.06,0.45,1.78,0.45C102.71,53.9,108.32,50.59,114.95,43.96z
			 M99.74,45.89c2.37,0,4.37-0.3,6-0.9s2.86-1.31,3.7-2.14c0.84-0.83,1.26-1.5,1.26-2.01c0-0.83-0.49-1.24-1.46-1.24
			c-1.28,0-2.78,0.56-4.5,1.69C103.04,42.41,101.37,43.95,99.74,45.89z"/>
		<path class="st7" d="M113.92,45.72v-0.77c2.11-1.91,3.88-3.38,5.31-4.41c1.43-1.03,2.7-1.54,3.81-1.54c0.91,0,1.37,0.61,1.37,1.84
			c0,1.03-0.3,2.02-0.9,2.98c-0.6,0.96-1.61,2.33-3.04,4.13c4-3.28,7-5.6,9.02-6.94c2.01-1.34,3.75-2.01,5.2-2.01
			c1.06,0,1.58,0.49,1.58,1.46c0,1.94-1.43,4.61-4.28,8.01l1.2-0.9c1.91-1.4,3.74-2.74,5.48-4.03c1.74-1.28,3.42-2.36,5.03-3.23
			c1.61-0.87,2.91-1.31,3.88-1.31c0.46,0,0.82,0.18,1.09,0.54c0.27,0.36,0.41,0.88,0.41,1.56c0,1.31-0.44,2.61-1.31,3.88
			c-0.87,1.27-2.36,2.69-4.48,4.26c-0.86,0.63-1.67,1.36-2.44,2.18c-0.77,0.83-1.16,1.39-1.16,1.67c0,0.54,0.4,0.81,1.2,0.81
			c1.26,0,2.92-0.76,4.99-2.29c2.07-1.53,5.15-4.02,9.23-7.47v0.73c-3.88,3.34-6.86,5.78-8.93,7.32c-2.07,1.54-3.89,2.31-5.46,2.31
			c-1.11,0-1.67-0.56-1.67-1.67c0-1.23,0.41-2.47,1.24-3.73c0.83-1.26,2.23-2.81,4.2-4.67c2.28-2.14,3.43-3.5,3.43-4.07
			c0-0.51-0.23-0.77-0.69-0.77c-0.74,0-2.36,0.79-4.84,2.38s-5.23,3.54-8.24,5.87c-3.01,2.33-5.49,4.4-7.43,6.23h-3.6l6.64-7.28
			c0.46-0.49,1.15-1.21,2.08-2.18c0.93-0.97,1.72-1.85,2.38-2.63c0.66-0.79,0.98-1.32,0.98-1.61c0-0.14-0.06-0.29-0.19-0.45
			c-0.13-0.16-0.32-0.24-0.58-0.24c-1.6,0-3.98,1.24-7.15,3.73c-3.17,2.48-6.9,5.65-11.18,9.51l-1.24,1.16h-3.68l9.04-10.11
			c2.06-2.11,3.08-3.37,3.08-3.77c0-0.4-0.17-0.6-0.51-0.6c-0.49,0-1.21,0.31-2.18,0.92c-0.97,0.61-2.03,1.38-3.17,2.29
			C116.29,43.72,115.12,44.69,113.92,45.72z"/>
		<path class="st7" d="M178.89,39.34l-11.22,12.63c-0.34,0.4-0.51,0.77-0.51,1.11c0,0.54,0.29,0.81,0.86,0.81
			c2.06,0,4.55-0.98,7.49-2.96c2.94-1.97,5.1-3.77,6.47-5.4c0.88-1,1.53-2.37,1.93-4.11c0.34-1.63,0.79-2.44,1.33-2.44
			c0.4,0,0.6,0.23,0.6,0.69c0,2.08-1.43,4.54-4.28,7.37c1.2,0.26,2.3,0.17,3.32-0.26c1.01-0.43,2.06-1.37,3.15-2.83v0.73
			c-0.88,1.29-1.88,2.16-2.98,2.63c-1.1,0.47-2.48,0.55-4.13,0.24c-4.97,4.63-9.35,6.94-13.15,6.94c-1.17,0-1.76-0.56-1.76-1.67
			c0-2.08,2.14-5.38,6.42-9.89c-4.31,3.91-7.82,6.82-10.54,8.72c-2.71,1.9-4.85,2.85-6.42,2.85c-0.91,0-1.37-0.56-1.37-1.67
			c0-2.14,2.07-5.52,6.21-10.15c0.8-0.8,1.44-1.54,1.93-2.23c-2.77,1.26-5.48,3.01-8.14,5.27v-0.69c1.57-1.26,3.03-2.36,4.39-3.3
			c1.36-0.94,2.96-1.74,4.82-2.4h3.6l-10.28,11.82c-0.88,1.11-1.33,1.78-1.33,2.01c0,0.14,0.07,0.3,0.21,0.47
			c0.14,0.17,0.29,0.26,0.43,0.26c1.08,0,2.96-0.96,5.61-2.89c2.66-1.93,5.05-3.86,7.2-5.8c1-0.97,2.13-2,3.38-3.08
			c1.26-1.08,2.31-2.01,3.17-2.78H178.89z"/>
	</g>
	<g>
		<path class="st8" d="M100.52,78.36L97.66,64h1.28c1.11,5.74,2.12,10.98,2.3,12.7h0.02c0.2-1.71,1.87-9.17,2.58-12.7h1.23
			c0.7,3.45,2.36,11.09,2.53,12.65h0.04c0.3-2.34,1.84-9.19,2.51-12.65h1.22l-3.12,14.36h-1.36c-0.67-3.38-2.2-10.63-2.46-12.54
			h-0.02c-0.3,2.13-1.82,9.14-2.55,12.54H100.52z"/>
		<path class="st8" d="M119.09,71.28h-4.86v5.99h5.38l-0.18,1.09h-6.4V64h6.31v1.1h-5.11v5.09h4.86V71.28z"/>
		<path class="st8" d="M134.08,71.96c0-2.76,0.04-5.41,0.08-6.88h-0.03c-0.54,2.39-2.03,8.78-3.25,13.29h-1.22
			c-0.92-3.81-2.49-10.7-3.04-13.31h-0.05c0.08,1.67,0.15,4.89,0.15,7.34v5.97h-1.17V64h1.8c1.31,4.71,2.6,10.72,2.97,12.52h0.02
			c0.26-1.41,1.84-7.98,3.13-12.52h1.8v14.36h-1.21V71.96z"/>
		<path class="st8" d="M139.37,73.46l-1.17,4.9H137c0,0,3.52-14.36,3.52-14.36h1.57l3.65,14.36h-1.3l-1.18-4.9H139.37z
			 M142.98,72.37c-0.94-3.81-1.52-6.15-1.7-7.21h-0.05c-0.2,1.22-0.84,3.96-1.61,7.21H142.98z"/>
		<path class="st8" d="M147.45,64h1.2v7.33c1.11-1.52,3.64-5.13,5.23-7.33h1.38L151,69.89l4.4,8.48H154l-3.82-7.47l-1.53,2.02v5.44
			h-1.2V64z"/>
		<path class="st8" d="M162.76,71.28h-4.86v5.99h5.38l-0.18,1.09h-6.4V64H163v1.1h-5.11v5.09h4.86V71.28z"/>
		<path class="st8" d="M169.22,64h2.99c3.17,0,4.68,2.29,4.68,6.77c0,4.89-1.34,7.59-4.92,7.59h-2.75V64z M170.43,77.29h1.46
			c2.85,0,3.74-2.29,3.74-6.45c0-4-1.11-5.77-3.72-5.77h-1.48V77.29z"/>
		<path class="st8" d="M180.48,64v14.36h-1.21V64H180.48z"/>
		<path class="st8" d="M190.72,78.36h-0.98c-0.05-0.39-0.09-0.86-0.09-1.67c-0.41,0.95-1.02,1.87-2.88,1.87
			c-3.15,0-3.87-3.4-3.87-7.39c0-4.84,1.43-7.37,4.28-7.37c3.28,0,3.51,2.95,3.55,3.82h-1.22c-0.04-0.49-0.15-2.73-2.36-2.73
			c-2.17,0-2.97,2.46-2.97,6.25c0,3.68,0.59,6.35,2.75,6.35c2.15,0,2.6-1.83,2.6-5.17v-0.66h-2.7v-1.09h3.89V78.36z"/>
		<path class="st8" d="M194.62,64v14.36h-1.21V64H194.62z"/>
		<path class="st8" d="M199.36,65.1h-3.25V64h7.71v1.1h-3.25v13.27h-1.21V65.1z"/>
		<path class="st8" d="M205.38,73.46l-1.17,4.9H203c0,0,3.52-14.36,3.52-14.36h1.57l3.65,14.36h-1.3l-1.18-4.9H205.38z
			 M208.99,72.37c-0.94-3.81-1.52-6.15-1.7-7.21h-0.04c-0.21,1.22-0.84,3.96-1.61,7.21H208.99z"/>
		<path class="st8" d="M213.45,64h1.21v13.28h5.21l-0.22,1.09h-6.2V64z"/>
		<path class="st8" d="M225.34,64h3.51c2.02,0,3.33,1.25,3.33,3.44c0,1.97-0.95,2.79-1.8,3.08c1.12,0.37,2.29,1.4,2.29,3.64
			c0,2.53-1.48,4.2-3.95,4.2h-3.38V64z M228.33,70.08c1.88,0,2.63-0.87,2.63-2.53c0-1.5-0.79-2.51-2.39-2.51h-2.04v5.04H228.33z
			 M226.54,77.33h2.07c1.84,0,2.82-1.15,2.82-3.14c0-2.08-1.11-3.07-3.13-3.07h-1.76V77.33z"/>
		<path class="st8" d="M240.82,71.28h-4.86v5.99h5.38l-0.18,1.09h-6.4V64h6.31v1.1h-5.11v5.09h4.86V71.28z"/>
		<path class="st8" d="M244.91,73.46l-1.17,4.9h-1.21c0,0,3.52-14.36,3.52-14.36h1.57l3.65,14.36h-1.3l-1.18-4.9H244.91z
			 M248.52,72.37c-0.94-3.81-1.52-6.15-1.7-7.21h-0.04c-0.21,1.22-0.84,3.96-1.61,7.21H248.52z"/>
		<path class="st8" d="M253.93,64v10.15c0,1.73,0.52,3.35,2.53,3.35c2.04,0,2.55-1.35,2.55-3.37V64h1.21v10.16
			c0,2.63-0.93,4.42-3.8,4.42c-2.74,0-3.72-1.69-3.72-4.3V64H253.93z"/>
		<path class="st8" d="M264.99,65.1h-3.25V64h7.71v1.1h-3.25v13.27h-1.21V65.1z"/>
		<path class="st8" d="M272.24,64v14.36h-1.21V64H272.24z"/>
		<path class="st8" d="M275.23,64h6.33v1.1h-5.13v5.2h4.8v1.09h-4.8v6.98h-1.21V64z"/>
		<path class="st8" d="M284.48,64v10.15c0,1.73,0.52,3.35,2.53,3.35c2.04,0,2.55-1.35,2.55-3.37V64h1.21v10.16
			c0,2.63-0.93,4.42-3.8,4.42c-2.74,0-3.72-1.69-3.72-4.3V64H284.48z"/>
		<path class="st8" d="M293.58,64h1.21v13.28H300l-0.22,1.09h-6.2V64z"/>
	</g>
</g>
</svg>
