<?xml version="1.0" encoding="utf-8"?>
<!-- Generator: Adobe Illustrator 23.0.1, SVG Export Plug-In . SVG Version: 6.00 Build 0)  -->
<svg version="1.1" id="Layer_1" xmlns="http://www.w3.org/2000/svg" xmlns:xlink="http://www.w3.org/1999/xlink" x="0px" y="0px"
	 viewBox="0 0 800 500" style="enable-background:new 0 0 800 500;" xml:space="preserve">
<style type="text/css">
	.st0{fill:#3B4552;}
	.st1{fill:#1D2A42;}
	.st2{opacity:0.6;}
	.st3{fill:#173B69;}
	.st4{fill:#112A4D;}
	.st5{fill:#F0EBD8;}
	.st6{fill:#FFFFFF;}
</style>
<g>
	<path class="st0" d="M132.16,499.86l-0.02,0.14h0.27L132.16,499.86z M260.76,485l0.21,0.11c0.7,0.37,1.51,0.31,2.16-0.11H260.76z
		 M354.39,0l-7.05,15h142.99l7.05-15H354.39z"/>
	<path class="st1" d="M800,39.98v420.04c0,22.08-17.9,39.98-39.98,39.98H132.41l-0.25-0.14l-0.02,0.14H39.98
		c-2.69,0-5.31-0.27-7.85-0.77c-3.59-0.72-7.02-1.92-10.19-3.53C8.92,489.11,0,475.61,0,460.02V39.98C0,17.9,17.9,0,39.98,0h314.41
		l-7.05,15H61.58C40.83,15,24,31.83,24,52.58v394.84c0,9.77,3.73,18.66,9.83,25.34c2.46,2.69,5.31,5.02,8.45,6.91
		c5.64,3.38,12.24,5.33,19.3,5.33h199.18l0.21,0.11c0.7,0.37,1.51,0.31,2.16-0.11h475.29c20.75,0,37.58-16.83,37.58-37.58V52.58
		C776,31.83,759.17,15,738.42,15H490.33l7.05-15h262.64C782.1,0,800,17.9,800,39.98z"/>
</g>
<g>
	<polygon class="st1" points="93.24,150.45 38.82,133.67 40.11,127.96 94.55,144.74 	"/>
	<path class="st1" d="M51.91,140.78l-18.3-5.65c-1.05-0.32-1.69-1.49-1.43-2.61l1.64-7.23c0.26-1.11,1.3-1.77,2.36-1.45l18.3,5.65
		c1.05,0.32,1.69,1.49,1.43,2.61l-1.64,7.23C54.01,140.46,52.96,141.1,51.91,140.78z"/>
	<polygon class="st1" points="173.69,284.44 133.67,276.97 138.36,238.47 178.4,245.93 	"/>
	<path class="st1" d="M172.33,306.36l-42.59-7.94c-3.76-0.7-6.41-4.56-5.92-8.61l2.09-17.1c0.49-4.05,3.95-6.77,7.71-6.06
		l42.59,7.94c3.76,0.7,6.41,4.56,5.92,8.61l-2.09,17.1C179.54,304.34,176.1,307.06,172.33,306.36z"/>
	<polygon class="st1" points="157.3,293.87 156.14,303.34 136.64,463.16 134.42,481.34 133.97,485 123.52,485 145.92,301.43 
		147.08,291.96 	"/>
	<path class="st1" d="M146.21,279.26l-0.02,0.05l-10.49,20.21L42.28,479.67c-3.14-1.89-5.99-4.22-8.45-6.91l91.74-176.89l7.26-14.01
		l2.39-4.6l1.95-3.77l0.36,0.23L146.21,279.26z"/>
	<polygon class="st1" points="218.03,485 207.53,485 194.01,424.78 191.87,415.24 191.87,415.22 188.7,401.11 188.7,401.1 
		187.23,394.55 183.7,378.81 181.31,368.15 167.23,305.41 162.03,282.26 162.02,282.21 172.03,280 173,284.31 177.62,304.92 
		177.62,304.93 188.42,353.02 190.46,362.12 193.31,374.81 195.81,385.97 195.81,385.98 203.79,421.54 203.8,421.56 205.94,431.1 	
		"/>
	<polygon class="st1" points="138.27,281.49 59.67,286.84 58.88,278.5 137.47,273.13 	"/>
	<path class="st1" d="M41.64,198.87l38.75,7.23c2.46,0.46,4.74-1.32,5.06-3.98l2.18-17.87c0.32-2.66-1.41-5.18-3.89-5.65
		l-38.75-7.23c-2.46-0.46-4.74,1.32-5.06,3.98l-2.18,17.87C37.44,195.88,39.18,198.41,41.64,198.87z"/>
	<path class="st1" d="M57.37,215.24l40.74,7.6c3.42,0.63,6.53-1.83,6.98-5.49l4.94-40.48c0.44-3.67-1.95-7.16-5.37-7.8l-40.74-7.6
		c-3.42-0.63-6.53,1.83-6.98,5.49l-4.94,40.48C51.55,211.11,53.95,214.6,57.37,215.24z"/>
	<polygon class="st1" points="232.86,222.03 280.55,230.92 285.02,194.25 237.33,185.36 	"/>
	<polygon class="st1" points="254.73,207.36 324.02,282.35 338.83,160.97 	"/>
	<path class="st1" d="M239.88,278.65L71.82,247.31c-7.53-1.4-12.83-9.1-11.83-17.2l12.84-105.1c0.98-8.1,7.88-13.52,15.41-12.12
		l168.07,31.34c7.53,1.4,12.83,9.1,11.83,17.2l-12.84,105.1C254.31,274.62,247.41,280.05,239.88,278.65z"/>
	<path class="st1" d="M79.93,289.7L53.5,291.5c-1.51,0.1-2.86-1.15-3.02-2.78l-1.01-10.58c-0.16-1.63,0.93-3.06,2.45-3.16
		l26.43-1.81c1.51-0.1,2.86,1.15,3.02,2.78l1.01,10.58C82.53,288.18,81.44,289.59,79.93,289.7z"/>
	<g>
		
			<ellipse transform="matrix(0.972 -0.2349 0.2349 0.972 -17.9412 56.8444)" class="st1" cx="229.62" cy="103.73" rx="42.25" ry="46.22"/>
		<path class="st1" d="M264.31,50.48c-27.95-21.98-66.14-15.97-85.32,13.45c-12.62,19.36-13.83,44.03-5.2,64.9
			c4.46,10.82,11.57,20.62,21.11,28.13c22.89,17.99,52.64,17.23,73.19,0.21c4.55-3.76,8.66-8.33,12.13-13.66
			C299.4,114.12,292.27,72.47,264.31,50.48z M218.83,47.82c9.79-1.78,19.99-0.47,29.34,3.75c3.02,1.37,4.22,5.37,2.39,8.16
			l-2.3,3.52l-12.83,19.71c-2.16,3.3-6.9,2.68-8.54-1.1l-9.8-22.62l-1.74-4.01C213.93,52.02,215.67,48.39,218.83,47.82z M238,110.32
			c-3.17,4.86-9.5,5.86-14.12,2.22c-4.63-3.65-5.82-10.54-2.64-15.4c3.17-4.87,9.5-5.87,14.12-2.23
			C239.99,98.56,241.17,105.45,238,110.32z M179.84,83.92c1.53-5.04,3.75-9.81,6.58-14.15c2.84-4.33,6.24-8.17,10.08-11.41
			c2.5-2.08,6.24-1.07,7.64,2.15l1.75,4.03l9.81,22.63c1.65,3.79-1.05,7.92-4.85,7.43l-22.65-2.91l-4.06-0.52
			C180.93,90.74,178.83,87.2,179.84,83.92z M198.44,139.66c-1.83,2.81-5.65,2.85-7.8,0.15c-2.22-2.78-4.2-5.78-5.89-8.93
			c-3.4-6.28-5.72-13.2-6.81-20.36c-0.53-3.47,2.03-6.44,5.26-6.03l4.04,0.52l22.63,2.9c3.8,0.49,5.86,5.22,3.7,8.53l-11.51,17.66
			l-1.33,2.04L198.44,139.66z M240.39,159.62c-9.79,1.78-19.99,0.47-29.34-3.75c-3.02-1.37-4.22-5.37-2.39-8.16l2.3-3.52v-0.01
			l4.89-7.51l7.94-12.19c2.16-3.3,6.9-2.68,8.54,1.1l6.68,15.41l3.13,7.22l1.73,4C245.3,155.42,243.56,159.04,240.39,159.62z
			 M279.4,123.53c-1.53,5.04-3.75,9.81-6.59,14.15c-2.59,3.96-5.65,7.51-9.1,10.55c-0.32,0.3-0.65,0.58-0.98,0.86
			c-2.51,2.09-6.24,1.06-7.63-2.15l-1.39-3.2v-0.01l-0.36-0.82l-9.81-22.63c-1.65-3.79,1.05-7.92,4.85-7.43l22.64,2.91l4.07,0.52
			C278.32,116.69,280.4,120.25,279.4,123.53z M276.02,102.95l-4.03-0.52l-22.64-2.9c-3.8-0.49-5.86-5.22-3.7-8.53l12.84-19.71
			l2.29-3.51c1.82-2.81,5.65-2.85,7.8-0.15c6.66,8.35,11.07,18.54,12.7,29.29C281.81,100.39,279.25,103.36,276.02,102.95z"/>
		<path class="st1" d="M233.72,106.94c-1.56,2.39-4.66,2.87-6.92,1.08c-2.27-1.79-2.84-5.16-1.3-7.54c1.56-2.39,4.66-2.87,6.92-1.08
			C234.7,101.18,235.28,104.57,233.72,106.94z"/>
	</g>
	<g>
		
			<ellipse transform="matrix(0.972 -0.2349 0.2349 0.972 -16.6962 28.4199)" class="st1" cx="110.94" cy="84.29" rx="38.17" ry="41.75"/>
		<path class="st1" d="M118.17,25.11c-30.38-5.67-58.22,16.23-62.21,48.92c-2.39,19.63,4.37,38.7,16.74,52.02
			c8.21,8.84,18.9,15.15,31.02,17.4c19.37,3.62,37.72-3.99,49.5-18.45c6.68-8.21,11.25-18.63,12.7-30.47
			C169.91,61.85,148.52,30.78,118.17,25.11z M121.92,40.89c0.37-3.12,3.37-4.85,6.11-3.59c8.4,3.91,15.75,10.33,21.08,18.44
			c1.73,2.63,0.84,6.2-1.87,7.29l-3.38,1.37l-18.96,7.66c-3.18,1.28-6.59-1.7-6.13-5.36l2.67-21.89L121.92,40.89z M109.75,94.09
			c-5.03-0.95-8.58-6.1-7.92-11.5c0.66-5.4,5.27-9.04,10.3-8.1c5.02,0.93,8.57,6.08,7.91,11.5
			C119.38,91.39,114.77,95.02,109.75,94.09z M81.28,43.1c7.04-5.8,15.59-9.26,24.55-9.94c2.91-0.22,5.35,2.55,4.97,5.65l-0.48,3.92
			l-2.67,21.89c-0.44,3.66-4.42,5.27-7.16,2.89L84.22,53.29l-2.91-2.55C79,48.73,79.01,44.98,81.28,43.1z M64.19,90.09
			c-0.69-4.83-0.76-9.73-0.16-14.56c0.58-4.82,1.82-9.49,3.62-13.85c1.17-2.84,4.52-3.65,6.83-1.62l2.93,2.56l16.27,14.22
			c2.73,2.39,2.17,6.98-1,8.27l-18.96,7.67l-3.39,1.37C67.64,95.23,64.64,93.23,64.19,90.09z M99.97,127.68
			c-0.37,3.12-3.37,4.85-6.11,3.6c-6.78-3.16-12.87-7.95-17.78-13.95c-1.17-1.43-2.27-2.93-3.3-4.5c-1.74-2.63-0.84-6.2,1.87-7.29
			l3.36-1.36l18.97-7.67c3.19-1.28,6.6,1.7,6.14,5.37l-1.64,13.47l-1.03,8.42L99.97,127.68z M140.61,125.47
			c-7.04,5.8-15.6,9.26-24.56,9.94c-2.9,0.22-5.34-2.54-4.97-5.65l0.48-3.92l1.03-8.42l1.65-13.47c0.44-3.66,4.41-5.27,7.16-2.89
			l16.26,14.22l2.92,2.56c1.49,1.3,2.02,3.32,1.58,5.09C141.93,123.91,141.41,124.8,140.61,125.47z M157.84,93.03
			c-0.58,4.83-1.82,9.49-3.62,13.85c-1.17,2.84-4.52,3.66-6.83,1.64l-2.92-2.55l-16.28-14.24c-2.73-2.38-2.17-6.97,1-8.27
			l18.96-7.66l3.39-1.37c2.69-1.09,5.7,0.91,6.14,4.04C158.37,83.3,158.44,88.2,157.84,93.03z"/>
		<path class="st1" d="M115.4,85.11c-0.32,2.64-2.58,4.43-5.04,3.97c-2.46-0.46-4.2-2.98-3.87-5.64c0.32-2.64,2.58-4.43,5.04-3.97
			C113.99,79.95,115.72,82.47,115.4,85.11z"/>
	</g>
</g>
<g>
	<g>
		<path class="st1" d="M339.8,284.98c0.27,0.02,0.53,0.04,0.8,0.07c0.28,0.03,0.55,0.07,0.82,0.11c0.02,0,0.04,0.01,0.06,0.01h0.01
			c0.24,0.04,0.48,0.08,0.71,0.14c0.17,0.03,0.34,0.07,0.51,0.12c0.21,0.04,0.42,0.1,0.62,0.16c0.03,0.01,0.06,0.02,0.09,0.03
			c0.21,0.06,0.42,0.12,0.63,0.2c0.45,0.15,0.88,0.32,1.31,0.51v-2.95c0-0.22,0.01-0.45,0.03-0.67c0.01-0.13,0.02-0.26,0.04-0.38
			c0.03-0.23,0.06-0.45,0.1-0.67c0.04-0.22,0.09-0.44,0.16-0.66c0.05-0.16,0.09-0.33,0.15-0.49c0.06-0.16,0.12-0.32,0.18-0.48
			c0.03-0.09,0.07-0.19,0.12-0.28c0.03-0.08,0.06-0.15,0.1-0.23c0.04-0.09,0.08-0.18,0.13-0.27c0.09-0.17,0.18-0.33,0.27-0.49
			c0.1-0.16,0.2-0.32,0.3-0.48c0.37-0.57,0.81-1.11,1.31-1.61c0.09-0.1,0.19-0.2,0.29-0.29c0.15-0.16,0.31-0.3,0.47-0.43
			c0.16-0.14,0.33-0.28,0.5-0.41s0.34-0.26,0.52-0.39v-0.01l1.67-3.55c0.49-1.05,1.54-1.57,2.52-1.37v-12.67
			c0-0.42,0.01-0.82,0.02-1.21c0.01-0.38,0.03-0.75,0.05-1.11v-0.07c0.02-0.32,0.05-0.64,0.08-0.94c0.01-0.1,0.02-0.2,0.03-0.29
			L339.8,284.98z M339.8,284.98c0.27,0.02,0.53,0.04,0.8,0.07c0.28,0.03,0.55,0.07,0.82,0.11c0.02,0,0.04,0.01,0.06,0.01h0.01
			c0.24,0.04,0.48,0.08,0.71,0.14c0.17,0.03,0.34,0.07,0.51,0.12c0.21,0.04,0.42,0.1,0.62,0.16c0.03,0.01,0.06,0.02,0.09,0.03
			c0.21,0.06,0.42,0.12,0.63,0.2c0.45,0.15,0.88,0.32,1.31,0.51v-2.95c0-0.22,0.01-0.45,0.03-0.67c0.01-0.13,0.02-0.26,0.04-0.38
			c0.03-0.23,0.06-0.45,0.1-0.67c0.04-0.22,0.09-0.44,0.16-0.66c0.05-0.16,0.09-0.33,0.15-0.49c0.06-0.16,0.12-0.32,0.18-0.48
			c0.03-0.09,0.07-0.19,0.12-0.28c0.03-0.08,0.06-0.15,0.1-0.23c0.04-0.09,0.08-0.18,0.13-0.27c0.09-0.17,0.18-0.33,0.27-0.49
			c0.1-0.16,0.2-0.32,0.3-0.48c0.37-0.57,0.81-1.11,1.31-1.61c0.09-0.1,0.19-0.2,0.29-0.29c0.15-0.16,0.31-0.3,0.47-0.43
			c0.08-0.07,0.16-0.15,0.25-0.22c0.08-0.07,0.17-0.14,0.25-0.19c0.17-0.15,0.34-0.27,0.52-0.39v-0.01l1.67-3.55
			c0.49-1.05,1.54-1.57,2.52-1.37v-12.67c0-0.42,0.01-0.82,0.02-1.21c0.01-0.38,0.03-0.75,0.05-1.11v-0.07
			c0.02-0.32,0.05-0.64,0.08-0.94c0.01-0.1,0.02-0.2,0.03-0.29L339.8,284.98z M339.8,284.98c0.27,0.02,0.53,0.04,0.8,0.07
			c0.28,0.03,0.55,0.07,0.82,0.11c0.02,0,0.04,0.01,0.06,0.01h0.01c0.24,0.04,0.48,0.08,0.71,0.14c0.17,0.03,0.34,0.07,0.51,0.12
			c0.21,0.04,0.42,0.1,0.62,0.16c0.03,0.01,0.06,0.02,0.09,0.03c0.21,0.06,0.42,0.12,0.63,0.2c0.45,0.15,0.88,0.32,1.31,0.51v-2.95
			c0-0.22,0.01-0.45,0.03-0.67c0-0.12,0.02-0.25,0.04-0.38c0.02-0.22,0.05-0.45,0.1-0.67c0.04-0.22,0.09-0.44,0.16-0.66
			c0.05-0.16,0.09-0.33,0.15-0.49c0.06-0.16,0.12-0.32,0.18-0.48c0.03-0.09,0.07-0.19,0.12-0.28c0.03-0.08,0.06-0.15,0.1-0.23
			c0.04-0.09,0.08-0.18,0.13-0.27c0.09-0.17,0.18-0.33,0.27-0.49c0.1-0.16,0.2-0.32,0.3-0.48c0.37-0.57,0.81-1.11,1.31-1.61
			c0.09-0.1,0.19-0.2,0.29-0.29c0.15-0.16,0.31-0.3,0.47-0.43c0.08-0.07,0.16-0.15,0.25-0.22c0.08-0.07,0.17-0.14,0.25-0.19
			c0.17-0.15,0.34-0.27,0.52-0.39v-0.01l1.67-3.55c0.49-1.05,1.54-1.57,2.52-1.37v-12.67c0-0.42,0.01-0.82,0.02-1.21
			c0.01-0.38,0.03-0.75,0.05-1.11v-0.07c0.02-0.32,0.05-0.64,0.08-0.94c0.01-0.1,0.02-0.2,0.03-0.29L339.8,284.98z M339.8,284.98
			c0.27,0.02,0.53,0.04,0.8,0.07c0.28,0.03,0.55,0.07,0.82,0.11c0.02,0,0.04,0.01,0.06,0.01h0.01c0.24,0.04,0.48,0.08,0.71,0.14
			c0.17,0.03,0.34,0.07,0.51,0.12c0.21,0.04,0.42,0.1,0.62,0.16c0.03,0.01,0.06,0.02,0.09,0.03c0.21,0.06,0.42,0.12,0.63,0.2
			c0.45,0.15,0.88,0.32,1.31,0.51v-2.95c0-0.22,0.01-0.45,0.03-0.67c0-0.12,0.02-0.25,0.04-0.38c0.02-0.22,0.05-0.45,0.1-0.67
			c0.04-0.22,0.09-0.44,0.16-0.66c0.05-0.16,0.09-0.33,0.15-0.49c0.06-0.16,0.12-0.32,0.18-0.48c0.03-0.09,0.07-0.19,0.12-0.28
			c0.03-0.08,0.06-0.15,0.1-0.23c0.04-0.09,0.08-0.18,0.13-0.27c0.09-0.17,0.18-0.33,0.27-0.49c0.1-0.16,0.2-0.32,0.3-0.48
			c0.37-0.57,0.81-1.11,1.31-1.61c0.09-0.1,0.19-0.2,0.29-0.29c0.15-0.16,0.31-0.3,0.47-0.43c0.08-0.07,0.16-0.15,0.25-0.22
			c0.08-0.07,0.17-0.14,0.25-0.19c0.17-0.15,0.34-0.27,0.52-0.39v-0.01l1.67-3.55c0.49-1.05,1.54-1.57,2.52-1.37v-12.67
			c0-0.42,0.01-0.82,0.02-1.21c0.01-0.38,0.03-0.75,0.05-1.11v-0.07c0.02-0.32,0.05-0.64,0.08-0.94c0.01-0.1,0.02-0.2,0.03-0.29
			L339.8,284.98z M339.8,284.98c0.27,0.02,0.53,0.04,0.8,0.07c0.28,0.03,0.55,0.07,0.82,0.11c0.02,0,0.04,0.01,0.06,0.01h0.01
			c0.24,0.04,0.48,0.08,0.71,0.14c0.17,0.03,0.34,0.07,0.51,0.12c0.21,0.04,0.42,0.1,0.62,0.16c0.03,0.01,0.06,0.02,0.09,0.03
			c0.21,0.06,0.42,0.12,0.63,0.2c0.45,0.15,0.88,0.32,1.31,0.51v-2.95c0-0.22,0.01-0.45,0.03-0.67c0-0.12,0.02-0.25,0.04-0.38
			c0.02-0.22,0.05-0.45,0.1-0.67c0.04-0.22,0.09-0.44,0.16-0.66c0.05-0.16,0.09-0.33,0.15-0.49c0.06-0.16,0.12-0.32,0.18-0.48
			c0.03-0.09,0.07-0.19,0.12-0.28c0.03-0.08,0.06-0.15,0.1-0.23c0.04-0.09,0.08-0.18,0.13-0.27c0.09-0.17,0.18-0.33,0.27-0.49
			c0.1-0.16,0.2-0.32,0.3-0.48c0.37-0.57,0.81-1.11,1.31-1.61c0.09-0.1,0.19-0.2,0.29-0.29c0.15-0.16,0.31-0.3,0.47-0.43
			c0.08-0.07,0.16-0.15,0.25-0.22c0.08-0.07,0.17-0.14,0.25-0.19c0.17-0.15,0.34-0.27,0.52-0.39v-0.01l1.67-3.55
			c0.49-1.05,1.54-1.57,2.52-1.37v-12.67c0-0.42,0.01-0.82,0.02-1.21c0.01-0.38,0.03-0.75,0.05-1.11v-0.07
			c0.02-0.32,0.05-0.64,0.08-0.94c0.01-0.1,0.02-0.2,0.03-0.29L339.8,284.98z M339.8,284.98c0.27,0.02,0.53,0.04,0.8,0.07
			c0.28,0.03,0.55,0.07,0.82,0.11c0.02,0,0.04,0.01,0.06,0.01h0.01c0.24,0.04,0.48,0.08,0.71,0.14c0.17,0.03,0.34,0.07,0.51,0.12
			c0.21,0.04,0.42,0.1,0.62,0.16c0.03,0.01,0.06,0.02,0.09,0.03c0.21,0.06,0.42,0.12,0.63,0.2c0.45,0.15,0.88,0.32,1.31,0.51v-2.95
			c0-0.22,0.01-0.45,0.03-0.67c0-0.12,0.02-0.25,0.04-0.38c0.02-0.22,0.05-0.45,0.1-0.67c0.04-0.22,0.09-0.44,0.16-0.66
			c0.05-0.16,0.09-0.33,0.15-0.49c0.06-0.16,0.12-0.32,0.18-0.48c0.03-0.09,0.07-0.19,0.12-0.28c0.03-0.08,0.06-0.15,0.1-0.23
			c0.04-0.09,0.08-0.18,0.13-0.27c0.09-0.17,0.18-0.33,0.27-0.49c0.1-0.16,0.2-0.32,0.3-0.48c0.37-0.57,0.81-1.11,1.31-1.61
			c0.06-0.08,0.13-0.15,0.21-0.22c0.02-0.03,0.05-0.05,0.08-0.07c0.15-0.16,0.31-0.3,0.47-0.43c0.08-0.07,0.16-0.15,0.25-0.22
			c0.08-0.07,0.17-0.14,0.25-0.19c0.17-0.15,0.34-0.27,0.52-0.39v-0.01l1.67-3.55c0.49-1.05,1.54-1.57,2.52-1.37v-12.67
			c0-0.42,0.01-0.82,0.02-1.21c0.01-0.38,0.03-0.75,0.05-1.11v-0.07c0.02-0.32,0.05-0.64,0.08-0.94c0.01-0.1,0.02-0.2,0.03-0.29
			L339.8,284.98z M491.57,0l-3.37,7.17c-0.6,1.23-1.97,1.75-3.08,1.16l-5.7-3.03c-1.11-0.59-1.55-2.07-0.97-3.3l0.94-2h-5.61
			l-7.06,15l-23.81,50.65c-1.6,3.41-5.41,4.85-8.5,3.22l-66.06-35.01c-0.27-0.14-0.53-0.3-0.77-0.48c-0.21-0.16-0.42-0.33-0.61-0.52
			c-0.15-0.15-0.3-0.31-0.44-0.48c-0.14-0.16-0.27-0.34-0.39-0.52c-0.11-0.15-0.21-0.31-0.3-0.48c-0.03-0.05-0.06-0.1-0.08-0.15
			c-0.09-0.16-0.16-0.32-0.24-0.49v-0.01c-0.08-0.19-0.16-0.39-0.22-0.59c0,0-0.01-0.01-0.01-0.03c-0.05-0.13-0.09-0.27-0.11-0.4
			c-0.13-0.44-0.2-0.9-0.22-1.36c-0.02-0.28-0.02-0.57,0-0.85c0.02-0.4,0.07-0.81,0.16-1.21c0.03-0.13,0.07-0.27,0.1-0.4
			c0.07-0.27,0.16-0.53,0.27-0.79c0.05-0.13,0.11-0.26,0.17-0.39l4.56-9.71l7.06-15h-22.89l-7.05,15l-82.51,175.49l-0.32,0.68
			l-0.01,0.01v0.01l-6.84,14.55v0.01l-1.49,3.17l-7.55,16.05l-23.91,50.85l-36.29,77.2l-7.11,15.13l-44.67,95.01L126.37,485h6.33
			l1.72-3.66l0.86-1.83c0.58-1.25,1.96-1.76,3.08-1.17l5.69,3.01c1.12,0.6,1.56,2.08,0.97,3.31l-0.16,0.34h4.4l28.68-61.01
			c0.37-0.77,0.84-1.44,1.39-1.99c0.33-0.34,0.69-0.63,1.07-0.88c0.21-0.14,0.43-0.26,0.65-0.37c0.31-0.16,0.63-0.29,0.96-0.39
			c0.57-0.18,1.15-0.27,1.75-0.27c0.18,0,0.37,0.01,0.56,0.03c0.15,0.02,0.31,0.04,0.46,0.07c0.11,0.02,0.23,0.04,0.34,0.07
			c0.22,0.05,0.45,0.12,0.67,0.21c0.22,0.09,0.44,0.19,0.66,0.3l7.56,4.01l11.93,6.32l46.57,24.68c0.27,0.15,0.53,0.31,0.77,0.48
			c0.24,0.18,0.47,0.38,0.67,0.59c0.53,0.52,0.96,1.13,1.27,1.8v0.01c0.72,1.53,0.9,3.35,0.41,5.09c-0.07,0.27-0.16,0.53-0.27,0.79
			c-0.05,0.13-0.11,0.26-0.17,0.39L245.76,485h15l-5.49-2.92c-1.11-0.59-1.55-2.07-0.97-3.3l4.01-8.53
			c0.58-1.25,1.97-1.76,3.08-1.17l5.7,3.03c1.11,0.59,1.55,2.07,0.97,3.31l-4.01,8.53c-0.22,0.45-0.54,0.81-0.92,1.05h6.24
			l77.3-164.43l5.75-12.23l1.8-3.83l5.24-11.14l7.05-15l2.81-5.97l13.59-28.92L490.33,15l7.05-15H491.57z M365.19,40.59l66.05,35.01
			c0.22,0.12,0.43,0.25,0.63,0.39c0.1,0.07,0.19,0.14,0.29,0.22c0.09,0.07,0.18,0.15,0.27,0.23c0.09,0.07,0.17,0.15,0.25,0.23
			c0.11,0.1,0.21,0.2,0.31,0.32C432.99,77,433,77,433,77c0.19,0.22,0.36,0.45,0.52,0.7c0,0.01,0,0.01,0.01,0.01
			c0.16,0.25,0.3,0.5,0.42,0.77c0.09,0.19,0.18,0.39,0.24,0.58c0.02,0.02,0.02,0.05,0.03,0.07c0.08,0.2,0.14,0.41,0.19,0.62
			c0.05,0.14,0.08,0.29,0.1,0.45c0.07,0.3,0.11,0.6,0.12,0.91c0.08,1.21-0.14,2.47-0.69,3.64l-50.6,107.62
			c-0.07,0.15-0.15,0.31-0.24,0.45c-0.56,1.03-1.33,1.85-2.23,2.42c-0.25,0.17-0.5,0.32-0.77,0.44c-0.41,0.19-0.84,0.33-1.27,0.43
			c-0.14,0.04-0.29,0.06-0.43,0.08c-0.14,0.03-0.29,0.05-0.44,0.05c-0.78,0.06-1.58-0.03-2.35-0.31c-0.09-0.03-0.18-0.06-0.27-0.1
			c-0.18-0.07-0.35-0.15-0.52-0.24l-37.77-20.02v-0.01l-12.58-6.67h-0.01l-15.69-8.31c-0.13-0.07-0.26-0.14-0.39-0.23
			c-0.08-0.04-0.14-0.09-0.21-0.14c-0.09-0.06-0.18-0.12-0.26-0.19c-0.11-0.08-0.22-0.17-0.32-0.27c-0.02-0.01-0.04-0.03-0.06-0.05
			c-0.03-0.02-0.05-0.03-0.06-0.06c-0.11-0.1-0.22-0.21-0.32-0.32c-0.14-0.15-0.27-0.31-0.4-0.47c-0.18-0.24-0.34-0.49-0.49-0.76
			c-0.1-0.18-0.19-0.36-0.27-0.55c-0.02-0.03-0.03-0.06-0.03-0.08c-0.04-0.1-0.08-0.19-0.12-0.29c-0.05-0.1-0.08-0.2-0.11-0.3
			c-0.06-0.18-0.11-0.36-0.15-0.55c-0.05-0.18-0.08-0.37-0.11-0.56c-0.03-0.14-0.05-0.29-0.06-0.44c-0.01-0.14-0.03-0.29-0.03-0.44
			c-0.01-0.13-0.01-0.25-0.01-0.38c0-0.17,0.01-0.35,0.03-0.52c0.01-0.16,0.03-0.33,0.06-0.49c0.01-0.06,0.02-0.12,0.03-0.18
			c0.06-0.37,0.16-0.74,0.28-1.1c0.09-0.26,0.2-0.52,0.32-0.78l50.6-107.62c0.14-0.31,0.31-0.6,0.48-0.87
			c0.33-0.52,0.72-0.98,1.16-1.37c0.08-0.07,0.17-0.15,0.26-0.22c0.09-0.08,0.19-0.16,0.3-0.23c0.11-0.09,0.23-0.17,0.35-0.24
			c0.11-0.07,0.22-0.14,0.34-0.2c0.11-0.07,0.23-0.13,0.35-0.18c1.23-0.58,2.61-0.74,3.93-0.42c0.12,0.03,0.23,0.06,0.34,0.1
			c0.16,0.05,0.32,0.1,0.47,0.17C364.85,40.42,365.02,40.5,365.19,40.59z M339.8,284.98l-4.14,8.82l-0.01,0.01l-3.46,7.37
			l-4.16,8.84l-4.26,9.07c-0.07,0.15-0.15,0.31-0.24,0.45c-0.07,0.15-0.15,0.28-0.26,0.42c-0.07,0.14-0.17,0.27-0.28,0.4
			c-0.19,0.26-0.4,0.5-0.62,0.72c-0.14,0.14-0.28,0.27-0.43,0.4c-0.08,0.08-0.17,0.15-0.27,0.22c-0.12,0.1-0.25,0.18-0.37,0.26
			c-0.14,0.09-0.29,0.18-0.44,0.26c-0.36,0.21-0.74,0.37-1.13,0.49c-0.19,0.06-0.38,0.11-0.58,0.15c-0.26,0.06-0.53,0.09-0.8,0.11
			c-0.26,0.02-0.53,0.02-0.8,0c-0.08,0-0.16-0.01-0.23-0.02c-0.13-0.01-0.26-0.03-0.39-0.05c-0.23-0.04-0.46-0.1-0.68-0.17
			c-0.34-0.11-0.68-0.25-1-0.42l-66.06-35c-0.53-0.29-1.01-0.65-1.43-1.07c-0.06-0.05-0.11-0.11-0.16-0.17
			c-0.1-0.1-0.19-0.2-0.27-0.31c-0.05-0.05-0.09-0.1-0.12-0.15c-0.04-0.05-0.07-0.1-0.11-0.15c-0.15-0.21-0.29-0.42-0.41-0.64
			c-0.09-0.17-0.18-0.34-0.26-0.52c-0.04-0.09-0.09-0.19-0.12-0.29c-0.04-0.09-0.07-0.17-0.1-0.26c-0.01-0.03-0.02-0.06-0.03-0.1
			c-0.07-0.21-0.13-0.43-0.18-0.64c-0.04-0.15-0.07-0.3-0.09-0.46c-0.03-0.2-0.06-0.4-0.08-0.61c-0.02-0.2-0.03-0.4-0.03-0.61
			c0-0.53,0.06-1.07,0.18-1.6c0.06-0.27,0.13-0.53,0.22-0.8c0.09-0.26,0.2-0.52,0.32-0.78l0.02-0.04l9.92-21.11v-0.01l0.01-0.02
			l13.21-28.08l1.67-3.55l13.34-28.38l3.89-8.27l8.53-18.15c0.18-0.38,0.39-0.74,0.62-1.08c0.11-0.16,0.24-0.32,0.36-0.48
			c0.13-0.15,0.26-0.29,0.4-0.43c0.15-0.15,0.31-0.3,0.47-0.44c0.05-0.05,0.11-0.1,0.18-0.14c0.05-0.04,0.11-0.08,0.16-0.12
			c0.08-0.07,0.16-0.13,0.25-0.18c0.14-0.09,0.29-0.18,0.44-0.26c0.18-0.1,0.36-0.19,0.55-0.27c0.2-0.09,0.41-0.17,0.62-0.24
			c0.11-0.03,0.21-0.06,0.32-0.08c0.11-0.03,0.22-0.05,0.33-0.07c0.09-0.01,0.17-0.03,0.25-0.04c0.09-0.02,0.17-0.03,0.26-0.03
			c0.08-0.01,0.16-0.02,0.24-0.02c0.12-0.01,0.23-0.02,0.34-0.02c0.15,0,0.3,0.01,0.44,0.02c0.14,0.02,0.28,0.03,0.43,0.05
			c0.11,0.01,0.22,0.03,0.33,0.06c0.4,0.09,0.79,0.21,1.17,0.39c0.12,0.04,0.23,0.1,0.35,0.16l11.07,5.86l19.4,10.28l35.58,18.86
			c0.27,0.14,0.52,0.31,0.76,0.49c0.12,0.08,0.24,0.17,0.35,0.28c0.08,0.06,0.15,0.13,0.22,0.2c0.04,0.04,0.08,0.08,0.12,0.12
			c0.31,0.31,0.59,0.65,0.82,1.02c0.09,0.12,0.17,0.25,0.23,0.38c0.09,0.13,0.16,0.26,0.21,0.4c0.13,0.27,0.24,0.55,0.33,0.84
			c0.05,0.14,0.09,0.28,0.12,0.43c0.05,0.14,0.08,0.29,0.1,0.45c0.05,0.24,0.09,0.49,0.1,0.75c0.01,0.1,0.02,0.2,0.02,0.31
			c0.01,0.02,0.01,0.05,0.01,0.09c0.05,1.13-0.18,2.3-0.7,3.4l-16.26,34.58l-3.7,7.87L339.8,284.98z M262.02,209.91l0.26-0.56
			l0.01-0.01l3.74-7.96c0.06-0.14,0.14-0.25,0.21-0.37c0.01,0,0.01-0.01,0.01-0.01c0.45-0.66,1.16-1.03,1.88-1.03
			c0.33,0,0.67,0.08,0.98,0.25l5.69,3.01c1.12,0.59,1.55,2.08,0.97,3.31l-4.01,8.53c-0.58,1.24-1.96,1.76-3.08,1.16l-5.69-3.01
			c-0.48-0.25-0.82-0.66-1.04-1.15v-0.01C261.69,211.41,261.69,210.62,262.02,209.91z M356.4,14.56c-1.11-0.59-1.56-2.07-0.97-3.31
			l4.01-8.52c0.58-1.25,1.97-1.76,3.08-1.17l5.69,3.02c1.12,0.59,1.55,2.07,0.97,3.31L365.83,15l-0.66,1.41
			c-0.58,1.25-1.96,1.76-3.08,1.17L357.23,15L356.4,14.56z M346.08,31.12l4.01-8.53c0.58-1.25,1.97-1.76,3.08-1.17l5.69,3.02
			c1.12,0.59,1.56,2.07,0.97,3.31l-4.01,8.52c-0.58,1.25-1.95,1.76-3.08,1.17l-5.69-3.02C345.94,33.83,345.5,32.35,346.08,31.12z
			 M336.74,50.98l4.01-8.53c0.59-1.24,1.97-1.75,3.08-1.16l5.69,3.01c1.12,0.59,1.56,2.08,0.97,3.31l-4.01,8.53
			c-0.58,1.24-1.96,1.75-3.08,1.16l-5.69-3.01C336.6,53.7,336.15,52.21,336.74,50.98z M327.4,70.84l4.01-8.53
			c0.58-1.23,1.97-1.75,3.08-1.16l5.69,3.01c1.12,0.6,1.55,2.08,0.97,3.31L337.14,76c-0.58,1.24-1.96,1.76-3.08,1.16l-5.69-3.01
			C327.26,73.56,326.81,72.07,327.4,70.84z M318.06,90.71l4.01-8.52c0.58-1.25,1.97-1.76,3.08-1.17l5.69,3.02
			c1.12,0.59,1.55,2.07,0.97,3.31l-4.01,8.52c-0.58,1.25-1.96,1.76-3.08,1.17l-5.69-3.02C317.92,93.43,317.47,91.95,318.06,90.71z
			 M308.72,110.58l4.01-8.53c0.58-1.25,1.97-1.75,3.08-1.16l5.69,3.01c1.12,0.59,1.56,2.07,0.97,3.31l-4.01,8.53
			c-0.58,1.24-1.96,1.75-3.08,1.16l-5.69-3.01C308.58,113.3,308.14,111.81,308.72,110.58z M299.38,130.44l4.01-8.53
			c0.58-1.23,1.97-1.75,3.08-1.16l5.69,3.01c1.12,0.59,1.56,2.08,0.97,3.31l-4.01,8.53c-0.58,1.24-1.96,1.75-3.08,1.16l-5.69-3.01
			C299.24,133.16,298.79,131.67,299.38,130.44z M290.04,150.31l4.01-8.52c0.58-1.25,1.97-1.76,3.08-1.17l5.69,3.01
			c1.12,0.6,1.56,2.08,0.97,3.31l-4.01,8.53c-0.58,1.25-1.96,1.76-3.08,1.17l-5.69-3.02C289.9,153.03,289.46,151.55,290.04,150.31z
			 M280.7,170.18l4.01-8.53c0.58-1.25,1.97-1.76,3.08-1.17l5.69,3.02c1.12,0.59,1.55,2.07,0.97,3.31l-4.01,8.52
			c-0.58,1.25-1.96,1.76-3.08,1.17l-5.69-3.02C280.56,172.89,280.12,171.41,280.7,170.18z M271.36,190.04l4.01-8.53
			c0.58-1.23,1.97-1.75,3.08-1.16l5.69,3.01c1.12,0.59,1.56,2.08,0.97,3.31l-2.5,5.31l-0.78,1.67l-0.73,1.55
			c-0.58,1.24-1.96,1.75-3.08,1.16l-1.71-0.9l-3.98-2.11c-0.64-0.34-1.06-0.98-1.18-1.69C271.05,191.13,271.11,190.56,271.36,190.04
			z M256.69,221.25c0.58-1.25,1.97-1.76,3.08-1.17l1.13,0.6l4.56,2.42c1.12,0.59,1.56,2.07,0.97,3.3l-0.82,1.74l-3.19,6.79
			c-0.58,1.25-1.96,1.76-3.08,1.17l-0.3-0.16l-5.39-2.86c-1.11-0.59-1.55-2.07-0.97-3.31l1.75-3.72L256.69,221.25z M243.34,249.64
			l4.01-8.53c0.58-1.24,1.97-1.75,3.08-1.16l5.69,3.01c1.12,0.59,1.55,2.07,0.97,3.31l-4.01,8.52c-0.58,1.25-1.96,1.76-3.08,1.17
			l-5.69-3.01C243.2,252.36,242.76,250.87,243.34,249.64z M234,269.51l4.01-8.53c0.58-1.24,1.97-1.75,3.08-1.16l5.69,3.01
			c1.12,0.59,1.56,2.08,0.97,3.31l-4.01,8.53c-0.58,1.24-1.95,1.76-3.08,1.16l-5.69-3.01C233.86,272.23,233.41,270.74,234,269.51z
			 M224.66,289.37l4.01-8.52c0.59-1.25,1.97-1.76,3.08-1.17l5.69,3.01c1.12,0.6,1.55,2.08,0.97,3.31l-4.01,8.53
			c-0.58,1.25-1.96,1.76-3.08,1.16l-5.69-3.01C224.52,292.09,224.08,290.61,224.66,289.37z M215.32,309.24l4.01-8.53
			c0.59-1.24,1.97-1.76,3.08-1.17l5.69,3.02c1.12,0.59,1.56,2.07,0.97,3.31l-4.01,8.52c-0.58,1.25-1.96,1.76-3.08,1.17l-5.69-3.02
			C215.18,311.95,214.73,310.47,215.32,309.24z M205.98,329.11l4.01-8.53c0.59-1.24,1.97-1.75,3.08-1.16l5.69,3.01
			c1.12,0.59,1.55,2.07,0.97,3.31l-4.01,8.53c-0.58,1.24-1.96,1.75-3.08,1.16l-5.69-3.01C205.84,331.83,205.4,330.34,205.98,329.11z
			 M196.64,348.97l4.01-8.53c0.59-1.24,1.97-1.75,3.08-1.16l5.69,3.01c1.12,0.59,1.55,2.08,0.97,3.31l-4.01,8.53
			c-0.58,1.24-1.96,1.76-3.08,1.16l-5.69-3.01C196.5,351.69,196.05,350.2,196.64,348.97z M187.3,368.83l3.16-6.71l0.85-1.81
			c0.59-1.24,1.97-1.76,3.08-1.17l5.69,3.02c1.12,0.59,1.56,2.07,0.97,3.3l-4.01,8.53c-0.58,1.25-1.95,1.76-3.08,1.17l-0.65-0.35
			l-5.04-2.67C187.16,371.55,186.72,370.07,187.3,368.83z M154.36,464.8l-4.01,8.53c-0.58,1.24-1.96,1.75-3.08,1.16l-5.69-3.01
			c-1.11-0.59-1.56-2.08-0.97-3.31l4.01-8.53c0.58-1.24,1.96-1.75,3.08-1.16l5.69,3.01C154.51,462.08,154.94,463.57,154.36,464.8z
			 M163.7,444.94l-4.01,8.53c-0.59,1.24-1.95,1.75-3.08,1.16l-5.69-3.01c-1.11-0.59-1.56-2.08-0.97-3.31l4.01-8.53
			c0.58-1.25,1.96-1.77,3.08-1.16l5.69,3.01C163.85,442.22,164.29,443.7,163.7,444.94z M173.04,425.07l-4.01,8.52
			c-0.58,1.25-1.96,1.76-3.08,1.17l-5.69-3.02c-1.11-0.59-1.56-2.07-0.97-3.31l4.01-8.52c0.58-1.25,1.96-1.76,3.08-1.17l5.69,3.02
			C173.19,422.35,173.62,423.83,173.04,425.07z M182.37,405.2l-4.01,8.53c-0.58,1.24-1.95,1.76-3.08,1.16l-5.69-3.01
			c-1.11-0.59-1.55-2.08-0.97-3.31l4.01-8.53c0.59-1.24,1.97-1.75,3.08-1.16l5.69,3.01C182.52,402.48,182.95,403.97,182.37,405.2z
			 M184.62,395.03l-5.69-3.01c-1.11-0.59-1.56-2.08-0.97-3.31l4.01-8.53c0.37-0.76,1.02-1.25,1.73-1.37
			c0.45-0.09,0.92-0.02,1.35,0.2l5.69,3.02c1.12,0.59,1.55,2.07,0.97,3.31l-4.01,8.52c-0.12,0.26-0.28,0.5-0.47,0.69
			C186.54,395.28,185.5,395.5,184.62,395.03z M262.63,447.96c-0.09,0.09-0.19,0.17-0.28,0.25c-0.39,0.34-0.81,0.62-1.26,0.84
			c-0.08,0.05-0.17,0.09-0.26,0.13c-0.24,0.11-0.48,0.2-0.72,0.27c-1.44,0.44-3.02,0.34-4.44-0.41l-51.88-27.5l-11.92-6.32
			l-2.25-1.19c-0.27-0.14-0.53-0.31-0.77-0.48c0,0,0,0.01-0.01,0c-0.24-0.19-0.46-0.38-0.67-0.59c-0.39-0.39-0.73-0.84-1.01-1.32
			c-0.09-0.16-0.18-0.32-0.26-0.49c-0.07-0.13-0.13-0.27-0.18-0.41c-0.08-0.2-0.15-0.41-0.21-0.62c-0.04-0.11-0.07-0.22-0.09-0.34
			c-0.04-0.18-0.08-0.36-0.11-0.55c-0.03-0.18-0.05-0.37-0.07-0.56c-0.02-0.2-0.03-0.4-0.03-0.61s0.01-0.42,0.03-0.63
			c0-0.09,0.02-0.19,0.03-0.29c0.01-0.09,0.02-0.19,0.04-0.28c0.03-0.2,0.07-0.4,0.12-0.6s0.11-0.4,0.18-0.6
			c0.09-0.26,0.2-0.52,0.32-0.78l1.77-3.77v-0.01l7.11-15.12v-0.01l41.71-88.7c0.08-0.18,0.17-0.35,0.27-0.51
			c0.18-0.32,0.38-0.62,0.6-0.89c0.11-0.14,0.23-0.28,0.36-0.42c0.12-0.14,0.25-0.27,0.39-0.39c0.06-0.06,0.12-0.11,0.18-0.16
			c0.06-0.06,0.12-0.11,0.19-0.16s0.13-0.1,0.2-0.15c0.12-0.09,0.24-0.17,0.37-0.25c0.12-0.08,0.25-0.16,0.38-0.23
			c0.11-0.06,0.23-0.12,0.35-0.17c0.11-0.06,0.22-0.11,0.33-0.15c0.15-0.06,0.3-0.11,0.45-0.16c0.14-0.05,0.28-0.09,0.42-0.11
			c0.24-0.05,0.49-0.09,0.73-0.11c0.08-0.01,0.16-0.02,0.24-0.02c0.25-0.02,0.5-0.02,0.75,0c0.06,0,0.11,0,0.16,0.01
			c0.05,0,0.1,0.01,0.15,0.02c0.11,0.01,0.21,0.03,0.32,0.04c0.23,0.04,0.45,0.09,0.67,0.17c0.12,0.04,0.23,0.08,0.34,0.12
			c0.11,0.03,0.22,0.08,0.33,0.14c0.12,0.04,0.23,0.09,0.34,0.15l66.04,35.01c0.54,0.29,1.02,0.65,1.44,1.07
			c0.12,0.13,0.24,0.26,0.35,0.39c0.15,0.16,0.28,0.33,0.39,0.51c0.12,0.17,0.23,0.34,0.33,0.52c0,0.01,0.01,0.01,0.01,0.02
			c0.08,0.12,0.14,0.25,0.19,0.38c0.14,0.27,0.26,0.55,0.34,0.84c0.05,0.14,0.1,0.29,0.12,0.43c0.13,0.44,0.2,0.9,0.22,1.36
			c0.08,1.21-0.14,2.46-0.69,3.64l-50.6,107.61l-0.01,0.01c-0.08,0.18-0.17,0.35-0.27,0.51c-0.01,0.02-0.02,0.04-0.02,0.05
			c-0.05,0.08-0.09,0.16-0.15,0.23c-0.01,0.03-0.03,0.06-0.05,0.08c-0.08,0.14-0.18,0.27-0.28,0.4c-0.12,0.16-0.24,0.31-0.37,0.45
			C262.91,447.69,262.77,447.83,262.63,447.96z M277.4,455.56l-4.02,8.52c-0.59,1.25-1.96,1.76-3.08,1.17l-5.69-3.03
			c-1.12-0.59-1.56-2.07-0.97-3.31l4.01-8.52c0.58-1.25,1.97-1.76,3.08-1.17l5.7,3.03C277.54,452.84,277.99,454.32,277.4,455.56z
			 M286.73,435.69l-4.02,8.53c-0.58,1.24-1.95,1.75-3.08,1.16l-5.69-3.02c-1.12-0.59-1.56-2.08-0.97-3.31l4.01-8.53
			c0.58-1.24,1.97-1.75,3.08-1.16l5.7,3.02C286.87,432.97,287.32,434.46,286.73,435.69z M296.07,415.82l-4.01,8.53
			c-0.59,1.24-1.96,1.76-3.08,1.16l-5.7-3.03c-1.11-0.59-1.56-2.07-0.97-3.3l4.01-8.53c0.58-1.25,1.97-1.76,3.08-1.17l5.7,3.03
			C296.21,413.1,296.66,414.58,296.07,415.82z M305.41,395.96l-4.01,8.52c-0.59,1.25-1.96,1.76-3.08,1.17l-5.7-3.03
			c-1.11-0.59-1.56-2.07-0.97-3.31l4.01-8.52c0.58-1.25,1.97-1.76,3.08-1.17l5.7,3.03C305.55,393.24,306,394.72,305.41,395.96z
			 M314.75,376.09l-4.02,8.53c-0.58,1.24-1.95,1.76-3.08,1.16l-5.69-3.02c-1.12-0.59-1.57-2.08-0.97-3.31l4.01-8.53
			c0.58-1.24,1.97-1.75,3.08-1.16l5.7,3.02C314.89,373.37,315.34,374.86,314.75,376.09z M324.09,356.23l-4.02,8.53
			c-0.58,1.23-1.95,1.75-3.08,1.16l-5.69-3.02c-1.12-0.59-1.56-2.08-0.97-3.31l4.01-8.53c0.58-1.25,1.97-1.75,3.08-1.17l5.7,3.03
			C324.23,353.51,324.67,354.99,324.09,356.23z M333.43,336.36l-4.01,8.52c-0.59,1.25-1.96,1.76-3.08,1.17l-5.7-3.03
			c-1.11-0.59-1.56-2.07-0.97-3.31l4.01-8.52c0.58-1.25,1.97-1.76,3.08-1.17l5.7,3.03C333.57,333.64,334.02,335.12,333.43,336.36z
			 M342.77,316.49l-4.01,8.53c-0.59,1.25-1.96,1.76-3.08,1.17l-5.7-3.03c-1.12-0.59-1.56-2.07-0.97-3.31l3.26-6.94v-0.01l0.75-1.58
			c0.58-1.24,1.97-1.75,3.08-1.16l5.7,3.02c0.32,0.17,0.59,0.42,0.79,0.72C343.08,314.62,343.18,315.62,342.77,316.49z
			 M352.11,296.63l-4.02,8.53c-0.52,1.1-1.69,1.64-2.73,1.3c-0.12-0.03-0.24-0.08-0.35-0.14l-2.28-1.21l-3.41-1.81
			c-1.12-0.59-1.57-2.08-0.97-3.31l3.06-6.51l0.95-2.02c0.57-1.21,1.91-1.73,3-1.2c0.03,0.01,0.05,0.03,0.08,0.04l5.7,3.02
			C352.25,293.91,352.7,295.4,352.11,296.63z M361.45,276.76l-1.99,4.23l-2.02,4.3c-0.59,1.24-1.97,1.75-3.08,1.16l-0.14-0.07
			l-1.8-0.96l-3.76-2c-1.11-0.59-1.55-2.07-0.97-3.3l2.34-4.97v-0.01l1.67-3.55c0.49-1.05,1.54-1.57,2.52-1.37
			c0.19,0.04,0.38,0.1,0.56,0.2l3.3,1.76c0.01,0,0.01,0,0.01,0l0.28,0.15l1.09,0.58l1.02,0.54
			C361.59,274.04,362.03,275.52,361.45,276.76z M370.79,256.9l-4.01,8.52c-0.59,1.25-1.97,1.76-3.08,1.17l-5.7-3.03
			c-1.11-0.59-1.56-2.07-0.97-3.31l4.01-8.52c0.58-1.25,1.97-1.76,3.08-1.17l5.7,3.03C370.93,254.18,371.37,255.66,370.79,256.9z
			 M380.13,237.03l-3.04,6.45l-0.98,2.08c-0.58,1.23-1.96,1.75-3.08,1.16l-5.69-3.02c-0.04-0.02-0.08-0.05-0.12-0.07
			c-1.03-0.63-1.43-2.06-0.85-3.24l4.01-8.53c0.58-1.24,1.97-1.75,3.08-1.16l5.7,3.02C380.27,234.31,380.72,235.8,380.13,237.03z
			 M389.47,217.16l-4.01,8.53c-0.59,1.24-1.97,1.75-3.08,1.16l-5.7-3.02c-1.11-0.59-1.56-2.08-0.97-3.31l4.01-8.53
			c0.58-1.25,1.97-1.75,3.08-1.16l5.7,3.02C389.61,214.44,390.05,215.92,389.47,217.16z M398.81,197.3l-4.01,8.52
			c-0.59,1.25-1.97,1.76-3.08,1.17l-5.7-3.03c-1.11-0.59-1.56-2.07-0.97-3.31l4.01-8.52c0.58-1.25,1.97-1.76,3.08-1.17l5.7,3.03
			C398.95,194.58,399.4,196.06,398.81,197.3z M408.15,177.43l-4.01,8.53c-0.59,1.24-1.97,1.76-3.08,1.17l-5.7-3.03
			c-1.12-0.59-1.57-2.08-0.97-3.31l4.01-8.53c0.58-1.24,1.97-1.75,3.08-1.16l5.7,3.02C408.29,174.71,408.74,176.2,408.15,177.43z
			 M417.49,157.56l-4.01,8.53c-0.59,1.24-1.97,1.75-3.08,1.16l-5.7-3.02c-1.11-0.59-1.56-2.08-0.97-3.31l4.01-8.53
			c0.58-1.24,1.97-1.75,3.08-1.16l5.7,3.02C417.63,154.84,418.07,156.33,417.49,157.56z M426.83,137.7l-4.01,8.53
			c-0.59,1.24-1.97,1.75-3.08,1.16l-5.7-3.03c-1.11-0.59-1.55-2.07-0.97-3.3l4.01-8.53c0.58-1.25,1.97-1.76,3.08-1.17l5.7,3.03
			C426.97,134.98,427.41,136.46,426.83,137.7z M436.17,117.84l-4.01,8.52c-0.59,1.24-1.97,1.76-3.08,1.17l-5.7-3.03
			c-1.12-0.59-1.56-2.07-0.97-3.31l4.01-8.52c0.58-1.25,1.97-1.76,3.08-1.17l5.7,3.03C436.31,115.12,436.76,116.6,436.17,117.84z
			 M445.51,97.96l-4.01,8.53c-0.59,1.24-1.97,1.75-3.08,1.16l-5.7-3.02c-1.11-0.59-1.55-2.07-0.97-3.31l4.01-8.53
			c0.58-1.24,1.97-1.75,3.08-1.16l5.7,3.02C445.65,95.24,446.09,96.73,445.51,97.96z M454.85,78.1l-4.01,8.53
			c-0.59,1.24-1.97,1.75-3.08,1.16l-5.7-3.02c-1.11-0.59-1.56-2.08-0.97-3.31l4.01-8.53c0.58-1.25,1.97-1.75,3.08-1.16l5.7,3.02
			C454.99,75.38,455.44,76.87,454.85,78.1z M464.19,58.24l-4.01,8.52c-0.59,1.24-1.97,1.76-3.08,1.17l-5.7-3.03
			c-1.11-0.59-1.56-2.07-0.97-3.31l4.01-8.52c0.58-1.25,1.97-1.76,3.08-1.17l5.7,3.03C464.33,55.52,464.77,57,464.19,58.24z
			 M473.53,38.36l-4.01,8.53c-0.59,1.25-1.97,1.76-3.08,1.17l-5.7-3.03c-1.11-0.59-1.56-2.08-0.97-3.31l4.01-8.53
			c0.58-1.24,1.97-1.75,3.08-1.16l5.7,3.03C473.67,35.65,474.12,37.12,473.53,38.36z M481.9,15.19c1.11,0.59,1.56,2.08,0.97,3.31
			l-4.01,8.53c-0.6,1.24-1.97,1.75-3.08,1.16l-5.7-3.02c-1.11-0.59-1.55-2.08-0.97-3.31l3.22-6.86l0.79-1.67
			c0.58-1.24,1.97-1.75,3.08-1.16l5.34,2.83L481.9,15.19z M339.8,284.98c0.27,0.02,0.53,0.04,0.8,0.07
			c0.28,0.03,0.55,0.07,0.82,0.11c0.02,0,0.04,0.01,0.06,0.01h0.01c0.24,0.04,0.48,0.08,0.71,0.14c0.17,0.03,0.34,0.07,0.51,0.12
			c0.21,0.04,0.42,0.1,0.62,0.16c0.03,0.01,0.06,0.02,0.09,0.03c0.21,0.06,0.42,0.12,0.63,0.2c0.45,0.15,0.88,0.32,1.31,0.51v-2.95
			c0-0.22,0.01-0.45,0.03-0.67c0-0.12,0.02-0.25,0.04-0.38c0.02-0.22,0.05-0.45,0.1-0.67c0.04-0.22,0.09-0.44,0.16-0.66
			c0.05-0.16,0.09-0.33,0.15-0.49c0.06-0.16,0.12-0.32,0.18-0.48c0.03-0.09,0.07-0.19,0.12-0.28c0.03-0.08,0.06-0.15,0.1-0.23
			c0.04-0.09,0.08-0.18,0.13-0.27c0.09-0.17,0.18-0.33,0.27-0.49c0.1-0.16,0.2-0.32,0.3-0.48c0.37-0.57,0.81-1.11,1.31-1.61
			c0.06-0.08,0.13-0.15,0.21-0.22c0.02-0.03,0.05-0.05,0.08-0.07c0.15-0.16,0.31-0.3,0.47-0.43c0.08-0.07,0.16-0.15,0.25-0.22
			c0.08-0.07,0.17-0.14,0.25-0.19c0.17-0.15,0.34-0.27,0.52-0.39v-0.01l1.67-3.55c0.49-1.05,1.54-1.57,2.52-1.37v-12.67
			c0-0.42,0.01-0.82,0.02-1.21c0.01-0.38,0.03-0.75,0.05-1.11v-0.07c0.02-0.32,0.05-0.64,0.08-0.94c0.01-0.1,0.02-0.2,0.03-0.29
			L339.8,284.98z M339.8,284.98c0.27,0.02,0.53,0.04,0.8,0.07c0.28,0.03,0.55,0.07,0.82,0.11c0.02,0,0.04,0.01,0.06,0.01h0.01
			c0.24,0.04,0.48,0.08,0.71,0.14c0.17,0.03,0.34,0.07,0.51,0.12c0.21,0.04,0.42,0.1,0.62,0.16c0.03,0.01,0.06,0.02,0.09,0.03
			c0.21,0.06,0.42,0.12,0.63,0.2c0.45,0.15,0.88,0.32,1.31,0.51v-2.95c0-0.22,0.01-0.45,0.03-0.67c0-0.12,0.02-0.25,0.04-0.38
			c0.02-0.22,0.05-0.45,0.1-0.67c0.04-0.22,0.09-0.44,0.16-0.66c0.05-0.16,0.09-0.33,0.15-0.49c0.06-0.16,0.12-0.32,0.18-0.48
			c0.03-0.09,0.07-0.19,0.12-0.28c0.03-0.08,0.06-0.15,0.1-0.23c0.04-0.09,0.08-0.18,0.13-0.27c0.09-0.17,0.18-0.33,0.27-0.49
			c0.1-0.16,0.2-0.32,0.3-0.48c0.37-0.57,0.81-1.11,1.31-1.61c0.09-0.1,0.19-0.2,0.29-0.29c0.15-0.16,0.31-0.3,0.47-0.43
			c0.08-0.07,0.16-0.15,0.25-0.22c0.08-0.07,0.17-0.14,0.25-0.19c0.17-0.15,0.34-0.27,0.52-0.39v-0.01l1.67-3.55
			c0.49-1.05,1.54-1.57,2.52-1.37v-12.67c0-0.42,0.01-0.82,0.02-1.21c0.01-0.38,0.03-0.75,0.05-1.11v-0.07
			c0.02-0.32,0.05-0.64,0.08-0.94c0.01-0.1,0.02-0.2,0.03-0.29L339.8,284.98z M339.8,284.98c0.27,0.02,0.53,0.04,0.8,0.07
			c0.28,0.03,0.55,0.07,0.82,0.11c0.02,0,0.04,0.01,0.06,0.01h0.01c0.24,0.04,0.48,0.08,0.71,0.14c0.17,0.03,0.34,0.07,0.51,0.12
			c0.21,0.04,0.42,0.1,0.62,0.16c0.03,0.01,0.06,0.02,0.09,0.03c0.21,0.06,0.42,0.12,0.63,0.2c0.45,0.15,0.88,0.32,1.31,0.51v-2.95
			c0-0.22,0.01-0.45,0.03-0.67c0-0.12,0.02-0.25,0.04-0.38c0.02-0.22,0.05-0.45,0.1-0.67c0.04-0.22,0.09-0.44,0.16-0.66
			c0.05-0.16,0.09-0.33,0.15-0.49c0.06-0.16,0.12-0.32,0.18-0.48c0.03-0.09,0.07-0.19,0.12-0.28c0.03-0.08,0.06-0.15,0.1-0.23
			c0.04-0.09,0.08-0.18,0.13-0.27c0.09-0.17,0.18-0.33,0.27-0.49c0.1-0.16,0.2-0.32,0.3-0.48c0.37-0.57,0.81-1.11,1.31-1.61
			c0.09-0.1,0.19-0.2,0.29-0.29c0.15-0.16,0.31-0.3,0.47-0.43c0.08-0.07,0.16-0.15,0.25-0.22c0.08-0.07,0.17-0.14,0.25-0.19
			c0.17-0.15,0.34-0.27,0.52-0.39v-0.01l1.67-3.55c0.49-1.05,1.54-1.57,2.52-1.37v-12.67c0-0.42,0.01-0.82,0.02-1.21
			c0.01-0.38,0.03-0.75,0.05-1.11v-0.07c0.02-0.32,0.05-0.64,0.08-0.94c0.01-0.1,0.02-0.2,0.03-0.29L339.8,284.98z M339.8,284.98
			c0.27,0.02,0.53,0.04,0.8,0.07c0.28,0.03,0.55,0.07,0.82,0.11c0.02,0,0.04,0.01,0.06,0.01h0.01c0.24,0.04,0.48,0.08,0.71,0.14
			c0.17,0.03,0.34,0.07,0.51,0.12c0.21,0.04,0.42,0.1,0.62,0.16c0.03,0.01,0.06,0.02,0.09,0.03c0.21,0.06,0.42,0.12,0.63,0.2
			c0.45,0.15,0.88,0.32,1.31,0.51v-2.95c0-0.22,0.01-0.45,0.03-0.67c0-0.12,0.02-0.25,0.04-0.38c0.02-0.22,0.05-0.45,0.1-0.67
			c0.04-0.22,0.09-0.44,0.16-0.66c0.05-0.16,0.09-0.33,0.15-0.49c0.06-0.16,0.12-0.32,0.18-0.48c0.03-0.09,0.07-0.19,0.12-0.28
			c0.03-0.08,0.06-0.15,0.1-0.23c0.04-0.09,0.08-0.18,0.13-0.27c0.09-0.17,0.18-0.33,0.27-0.49c0.1-0.16,0.2-0.32,0.3-0.48
			c0.37-0.57,0.81-1.11,1.31-1.61c0.09-0.1,0.19-0.2,0.29-0.29c0.15-0.16,0.31-0.3,0.47-0.43c0.08-0.07,0.16-0.15,0.25-0.22
			c0.08-0.07,0.17-0.14,0.25-0.19c0.17-0.15,0.34-0.27,0.52-0.39v-0.01l1.67-3.55c0.49-1.05,1.54-1.57,2.52-1.37v-12.67
			c0-0.42,0.01-0.82,0.02-1.21c0.01-0.38,0.03-0.75,0.05-1.11v-0.07c0.02-0.32,0.05-0.64,0.08-0.94c0.01-0.1,0.02-0.2,0.03-0.29
			L339.8,284.98z M339.8,284.98c0.27,0.02,0.53,0.04,0.8,0.07c0.28,0.03,0.55,0.07,0.82,0.11c0.02,0,0.04,0.01,0.06,0.01h0.01
			c0.24,0.04,0.48,0.08,0.71,0.14c0.17,0.03,0.34,0.07,0.51,0.12c0.21,0.04,0.42,0.1,0.62,0.16c0.03,0.01,0.06,0.02,0.09,0.03
			c0.21,0.06,0.42,0.12,0.63,0.2c0.45,0.15,0.88,0.32,1.31,0.51v-2.95c0-0.22,0.01-0.45,0.03-0.67c0-0.12,0.02-0.25,0.04-0.38
			c0.03-0.23,0.06-0.45,0.1-0.67c0.04-0.22,0.09-0.44,0.16-0.66c0.05-0.16,0.09-0.33,0.15-0.49c0.06-0.16,0.12-0.32,0.18-0.48
			c0.03-0.09,0.07-0.19,0.12-0.28c0.03-0.08,0.06-0.15,0.1-0.23c0.04-0.09,0.08-0.18,0.13-0.27c0.09-0.17,0.18-0.33,0.27-0.49
			c0.1-0.16,0.2-0.32,0.3-0.48c0.37-0.57,0.81-1.11,1.31-1.61c0.09-0.1,0.19-0.2,0.29-0.29c0.15-0.16,0.31-0.3,0.47-0.43
			c0.08-0.07,0.16-0.15,0.25-0.22c0.08-0.07,0.17-0.14,0.25-0.19c0.17-0.15,0.34-0.27,0.52-0.39v-0.01l1.67-3.55
			c0.49-1.05,1.54-1.57,2.52-1.37v-12.67c0-0.42,0.01-0.82,0.02-1.21c0.01-0.38,0.03-0.75,0.05-1.11v-0.07
			c0.02-0.32,0.05-0.64,0.08-0.94c0.01-0.1,0.02-0.2,0.03-0.29L339.8,284.98z M339.8,284.98c0.27,0.02,0.53,0.04,0.8,0.07
			c0.28,0.03,0.55,0.07,0.82,0.11c0.02,0,0.04,0.01,0.06,0.01h0.01c0.24,0.04,0.48,0.08,0.71,0.14c0.17,0.03,0.34,0.07,0.51,0.12
			c0.21,0.04,0.42,0.1,0.62,0.16c0.03,0.01,0.06,0.02,0.09,0.03c0.21,0.06,0.42,0.12,0.63,0.2c0.45,0.15,0.88,0.32,1.31,0.51v-2.95
			c0-0.22,0.01-0.45,0.03-0.67c0.01-0.13,0.02-0.26,0.04-0.38c0.03-0.23,0.06-0.45,0.1-0.67c0.04-0.22,0.09-0.44,0.16-0.66
			c0.05-0.16,0.09-0.33,0.15-0.49c0.06-0.16,0.12-0.32,0.18-0.48c0.03-0.09,0.07-0.19,0.12-0.28c0.03-0.08,0.06-0.15,0.1-0.23
			c0.04-0.09,0.08-0.18,0.13-0.27c0.09-0.17,0.18-0.33,0.27-0.49c0.1-0.16,0.2-0.32,0.3-0.48c0.37-0.57,0.81-1.11,1.31-1.61
			c0.09-0.1,0.19-0.2,0.29-0.29c0.15-0.16,0.31-0.3,0.47-0.43c0.08-0.07,0.16-0.15,0.25-0.22c0.08-0.07,0.17-0.14,0.25-0.19
			c0.17-0.15,0.34-0.27,0.52-0.39v-0.01l1.67-3.55c0.49-1.05,1.54-1.57,2.52-1.37v-12.67c0-0.42,0.01-0.82,0.02-1.21
			c0.01-0.38,0.03-0.75,0.05-1.11v-0.07c0.02-0.32,0.05-0.64,0.08-0.94c0.01-0.1,0.02-0.2,0.03-0.29L339.8,284.98z"/>
	</g>
	<g class="st2">
		<path class="st1" d="M255.63,463.75c-0.08,0.27-0.17,0.53-0.27,0.79c-0.05,0.13-0.11,0.26-0.17,0.39L245.76,485h-96.5l28.68-61.01
			c0.37-0.77,0.84-1.44,1.39-1.99c0.33-0.34,0.69-0.63,1.07-0.88c0.21-0.14,0.43-0.26,0.65-0.37c0.31-0.16,0.63-0.29,0.96-0.39
			c0.57-0.18,1.15-0.27,1.75-0.27c0.18,0,0.37,0.01,0.56,0.03c0.15,0.02,0.31,0.04,0.46,0.07c0.11,0.02,0.23,0.04,0.34,0.07
			c0.22,0.05,0.45,0.12,0.67,0.21c0.22,0.09,0.44,0.19,0.66,0.3l7.56,4.01l11.93,6.32l46.57,24.68c0.27,0.15,0.53,0.31,0.77,0.48
			c0.24,0.19,0.46,0.38,0.67,0.59c0.52,0.52,0.94,1.13,1.27,1.8v0.01C255.94,460.19,256.12,462.01,255.63,463.75z"/>
		<path class="st1" d="M246.03,294.05c-3.1-1.63-6.9-0.2-8.51,3.22l-50.6,107.62c-1.6,3.42-0.4,7.51,2.69,9.15l66.06,35.01
			c3.1,1.63,6.9,0.2,8.51-3.22l50.6-107.62c1.6-3.42,0.4-7.51-2.69-9.15L246.03,294.05z"/>
		<path class="st1" d="M305.6,167.32c-3.09-1.64-6.9-0.2-8.51,3.22l-50.58,107.61c-1.6,3.42-0.4,7.51,2.69,9.15l66.06,35.01
			c3.1,1.63,6.9,0.2,8.51-3.22l50.6-107.62c1.6-3.42,0.4-7.51-2.69-9.15L305.6,167.32z"/>
		<path class="st1" d="M365.19,40.59c-3.09-1.64-6.9-0.2-8.51,3.22l-50.6,107.62c-1.6,3.42-0.4,7.51,2.69,9.15l66.06,35.01
			c3.1,1.63,6.9,0.2,8.51-3.22l50.6-107.62c1.6-3.42,0.4-7.51-2.69-9.15L365.19,40.59z"/>
		<path class="st1" d="M377.28,0h96.5l-7.06,15l-23.81,50.65c-1.6,3.41-5.41,4.85-8.5,3.22l-66.06-35.01
			c-0.27-0.14-0.53-0.3-0.77-0.48c-0.21-0.16-0.42-0.33-0.61-0.52c-0.15-0.15-0.3-0.31-0.44-0.48c-0.14-0.16-0.27-0.34-0.39-0.52
			c-0.11-0.15-0.21-0.31-0.3-0.48c-0.03-0.05-0.06-0.1-0.08-0.15c-0.09-0.16-0.16-0.32-0.24-0.49v-0.01
			c-0.08-0.19-0.16-0.39-0.22-0.59c0,0-0.01-0.01-0.01-0.03c-0.04-0.13-0.08-0.26-0.11-0.4c-0.12-0.44-0.19-0.9-0.22-1.36
			c-0.04-0.68,0.01-1.37,0.16-2.06c0.03-0.13,0.07-0.27,0.1-0.4c0.08-0.27,0.17-0.53,0.27-0.79c0.05-0.13,0.11-0.26,0.17-0.39
			l4.56-9.71L377.28,0z"/>
	</g>
</g>
<g>
	<path class="st0" d="M742.02,415.91v20.43h0.01c0,13.31-3.35,18.74-17.24,18.74H374.03c-13.9,0-19.81-5.44-19.81-18.74V326.19
		c-5.2-1.63-8.85-5.63-8.85-10.29v-2.94c-1.97,0.88-4.16,1.37-6.47,1.37c-8.47,0-15.33-6.57-15.33-14.69
		c0-8.11,6.87-14.69,15.33-14.69c2.31,0,4.5,0.49,6.47,1.37v-2.96c0-4.67,3.66-8.66,8.85-10.29v-15.53
		c0-13.32,5.91-14.07,19.81-14.07h46.1v-4.93c0-4.12,1.68-7.44,3.75-7.44h14.37c2.07,0,3.75,3.34,3.75,7.44v4.93h8.67v-4.93
		c0-4.12,1.68-7.44,3.74-7.44h14.36c2.08,0,3.75,3.34,3.75,7.44v4.93h17.07l9.28-30.25c3.33-10.32,10.09-19.7,22.49-19.7h86.17
		c12.41,0,19.92,6.29,22.47,19.7l8.78,30.25h4.24v-11.77c0-6.34,5.38-11.48,11.99-11.48h45.95c6.63,0,11.99,5.14,11.99,11.48v11.77
		h11.85c13.9,0,17.24,0.75,17.24,14.07v25.11h0.01v133.24H742.02z"/>
</g>
<g>
	<g>
		<g>
			<g>
				<path class="st3" d="M703.09,257.55v178.78c0,13.31-3.34,18.74-17.24,18.74H374.03c-13.9,0-19.81-5.44-19.81-18.74V257.55
					c0-13.32,5.91-14.07,19.81-14.07h311.82c11.77,0,15.97,0.53,16.98,8.79C703.01,253.77,703.09,255.52,703.09,257.55z"/>
				<path class="st4" d="M712.94,231.71v28.99c0,5.64-4.25,10.34-9.85,11.29c-0.69,0.12-1.41,0.19-2.13,0.19h-45.95
					c-5.51,0-10.16-3.57-11.56-8.43c-0.28-0.97-0.43-2-0.43-3.05v-28.99c0-6.34,5.38-11.48,11.99-11.48h45.95
					C707.58,220.23,712.94,225.37,712.94,231.71z"/>
				<path class="st1" d="M644.44,262.97c0,0-0.35,0.28-0.98,0.78c-2.6,2.02-10,7.61-17.94,12.2c-4.81,2.78-9.82,5.19-14.08,6.2
					c-1.39,0.33-2.71,0.52-3.91,0.52h-86.17c-3.59,0-7.99-2.54-12.44-6.14c-10.9-8.83-22.07-24.1-22.07-24.1l2.74-8.95l9.28-30.25
					c3.33-10.32,10.09-19.7,22.49-19.7h86.17c12.41,0,19.92,6.29,22.47,19.7l8.78,30.25l4.24,14.62L644.44,262.97z"/>
				<path class="st4" d="M615.8,253.93c0,0-15.59,12.54-23.5,12.54h-54.86c-7.89,0-21.97-19.25-21.97-19.25l7.65-24.95
					c2.11-6.56,6.42-12.55,14.32-12.55h54.86c7.9,0,12.69,4.01,14.31,12.55L615.8,253.93z"/>
				<path class="st4" d="M441.99,238.56v18.8c0,4.12-1.68,7.45-3.75,7.45h-14.37c-2.07,0-3.75-3.35-3.75-7.45v-18.8
					c0-4.12,1.68-7.44,3.75-7.44h14.37C440.32,231.12,441.99,234.46,441.99,238.56z"/>
				<path class="st4" d="M472.52,238.56v18.8c0,4.12-1.68,7.45-3.75,7.45H454.4c-2.06,0-3.74-3.35-3.74-7.45v-18.8
					c0-4.12,1.68-7.44,3.74-7.44h14.36C470.84,231.12,472.52,234.46,472.52,238.56z"/>
				<path class="st1" d="M742.04,436.34c0,13.31-3.35,18.74-17.24,18.74H412.97c-13.9,0-19.81-5.44-19.81-18.74V257.55
					c0-13.32,5.92-14.07,19.81-14.07h311.81c13.9,0,17.24,0.75,17.24,14.07v178.78H742.04z"/>
				<rect x="393.17" y="282.67" class="st1" width="348.87" height="133.24"/>
				<path class="st3" d="M470.78,350.29c0,51.22,43.36,92.74,96.83,92.74s96.83-41.51,96.83-92.74c0-51.21-43.36-92.74-96.83-92.74
					C514.12,257.55,470.78,299.08,470.78,350.29z"/>
				<path class="st4" d="M484.06,350.29c0,44.19,37.41,80.02,83.55,80.02c46.15,0,83.55-35.82,83.55-80.02s-37.4-80.02-83.55-80.02
					C521.46,270.27,484.06,306.1,484.06,350.29z"/>
				<path class="st3" d="M507.75,350.29c0,31.66,26.79,57.32,59.86,57.32c33.06,0,59.85-25.66,59.85-57.32s-26.78-57.32-59.85-57.32
					C534.55,292.97,507.75,318.63,507.75,350.29z"/>
				<path class="st3" d="M514.71,350.29c0,27.97,23.67,50.65,52.89,50.65s52.89-22.68,52.89-50.65c0-27.97-23.68-50.65-52.89-50.65
					C538.4,299.64,514.71,322.32,514.71,350.29z"/>
				<path class="st5" d="M521.28,350.29c0,24.5,20.74,44.37,46.33,44.37c25.57,0,46.32-19.87,46.32-44.37s-20.74-44.37-46.32-44.37
					C542.01,305.92,521.28,325.8,521.28,350.29z"/>
				<path class="st6" d="M528.65,350.29c0,20.6,60.46-37.3,38.95-37.3C546.09,312.99,528.65,329.69,528.65,350.29z"/>
				<path class="st6" d="M524.03,232.97c0,11.1,49.74-20.12,32.05-20.12C538.38,212.86,524.03,221.87,524.03,232.97z"/>
				<path class="st3" d="M683.28,277.03c-5.25,0-9.53-5.54-9.53-12.37l0,0c0-6.84,4.27-12.38,9.53-12.38h28.56
					c5.25,0,9.51,5.54,9.51,12.38l0,0c0,6.83-4.25,12.37-9.51,12.37H683.28z"/>
				<path class="st4" d="M359.46,272.29v54.7c-0.56,0-1.12-0.03-1.66-0.08c-1.25-0.12-2.45-0.36-3.58-0.72
					c-5.2-1.63-8.85-5.63-8.85-10.29v-32.53c0-4.67,3.66-8.66,8.85-10.29c1.13-0.36,2.33-0.6,3.58-0.72
					C358.34,272.32,358.9,272.29,359.46,272.29z"/>
				<path class="st4" d="M352.42,292.73c0-0.01-0.01-0.01-0.01-0.02c-1.56-2.79-4.04-5.04-7.05-6.38c-0.43-0.19-0.86-0.36-1.31-0.51
					c-0.21-0.08-0.42-0.14-0.63-0.2c-0.03-0.01-0.06-0.02-0.09-0.03c-0.2-0.06-0.41-0.12-0.62-0.16c-0.17-0.05-0.34-0.09-0.51-0.12
					c-0.23-0.06-0.47-0.1-0.71-0.14h-0.01c-0.02,0-0.04-0.01-0.06-0.01c-0.27-0.04-0.54-0.08-0.82-0.11
					c-0.27-0.03-0.53-0.05-0.8-0.07c0,0,0,0-0.01,0c-0.3-0.01-0.6-0.02-0.9-0.02c-8.46,0-15.33,6.58-15.33,14.69
					c0,4.04,1.71,7.71,4.47,10.37c0.15,0.15,0.31,0.29,0.47,0.43c0.09,0.08,0.18,0.16,0.27,0.23c0.12,0.11,0.24,0.21,0.37,0.31
					c0.19,0.15,0.38,0.29,0.58,0.43c0.19,0.15,0.4,0.28,0.6,0.41c0.18,0.12,0.36,0.23,0.55,0.35c0.44,0.26,0.9,0.5,1.37,0.71
					c0.01,0.01,0.02,0.02,0.03,0.02c0.21,0.1,0.43,0.19,0.65,0.28c0.22,0.08,0.43,0.17,0.65,0.24c0.04,0.01,0.07,0.03,0.11,0.04
					c0.17,0.06,0.34,0.12,0.52,0.17c0.05,0.01,0.1,0.03,0.15,0.04c0.21,0.07,0.41,0.12,0.62,0.18c0.07,0.01,0.13,0.03,0.19,0.04
					c0.19,0.05,0.39,0.09,0.58,0.13c0.05,0.01,0.09,0.02,0.13,0.02c0.22,0.05,0.44,0.08,0.66,0.11c0.02,0.01,0.05,0.02,0.07,0.02
					c0.24,0.03,0.48,0.06,0.72,0.08c0.26,0.03,0.52,0.05,0.78,0.06c0.26,0.01,0.52,0.02,0.79,0.02c0.32,0,0.64-0.01,0.95-0.03
					c0.38-0.02,0.75-0.06,1.12-0.11c0.12-0.02,0.24-0.03,0.36-0.05c0.12-0.01,0.24-0.03,0.35-0.06c0.03,0,0.05,0,0.07-0.01
					c0.25-0.04,0.5-0.1,0.74-0.16c0.04,0,0.07-0.01,0.11-0.02c0.25-0.06,0.51-0.13,0.75-0.2c0.04-0.01,0.08-0.02,0.11-0.03
					c0.05-0.02,0.1-0.03,0.15-0.05c0.14-0.04,0.27-0.09,0.4-0.13c0.47-0.16,0.92-0.33,1.36-0.53c3.01-1.34,5.49-3.59,7.05-6.39
					c0-0.01,0.01-0.01,0.01-0.02c1.11-1.99,1.76-4.25,1.8-6.65v-0.5C354.18,296.99,353.53,294.72,352.42,292.73z M338.89,306.24
					c-3.25,0-5.98-2.15-6.7-5.06c0,0-0.01,0-0.01-0.01c-0.13-0.49-0.19-1-0.19-1.53c0-2.53,1.48-4.72,3.65-5.83h0.01l0.01-0.01
					c0.96-0.49,2.06-0.77,3.23-0.77c0.89,0,1.74,0.16,2.52,0.45c1.82,0.69,3.26,2.1,3.95,3.85c0.28,0.72,0.43,1.49,0.43,2.31
					c0,0.8-0.15,1.57-0.43,2.28c-0.51,1.31-1.44,2.43-2.63,3.19C341.63,305.83,340.32,306.24,338.89,306.24z"/>
				<path class="st3" d="M366.51,269.78c-7.78,0-14.09,5.41-14.09,12.1v35.52c0,6.68,6.31,12.1,14.09,12.1V269.78z"/>
				<path class="st4" d="M369.32,330.39c0,0.75-0.63,1.35-1.4,1.35l0,0c-0.78,0-1.41-0.6-1.41-1.35v-59.26
					c0-0.75,0.63-1.35,1.41-1.35l0,0c0.77,0,1.4,0.6,1.4,1.35V330.39z"/>
				<path class="st3" d="M389.2,292.58c-0.77,0-1.4-0.61-1.4-1.35l0,0c0-0.75,0.63-1.36,1.4-1.36h61.88c0.78,0,1.4,0.61,1.4,1.36
					l0,0c0,0.75-0.63,1.35-1.4,1.35H389.2z"/>
				<path class="st3" d="M389.2,408.97c-0.77,0-1.4-0.61-1.4-1.36l0,0c0-0.75,0.63-1.35,1.4-1.35h61.88c0.78,0,1.4,0.6,1.4,1.35l0,0
					c0,0.75-0.63,1.36-1.4,1.36H389.2z"/>
				<path class="st3" d="M419.33,277.03h-30.32v2.7h30.32c0.78,0,1.41-0.6,1.41-1.35C420.76,277.63,420.12,277.03,419.33,277.03z"/>
			</g>
		</g>
	</g>
</g>
</svg>
