<?xml version="1.0" encoding="utf-8"?>
<!-- Generator: Adobe Illustrator 23.0.1, SVG Export Plug-In . SVG Version: 6.00 Build 0)  -->
<svg version="1.1" id="Layer_1" xmlns="http://www.w3.org/2000/svg" xmlns:xlink="http://www.w3.org/1999/xlink" x="0px" y="0px"
	 viewBox="0 0 800 500" style="enable-background:new 0 0 800 500;" xml:space="preserve">
<style type="text/css">
	.st0{fill:#3B4552;}
	.st1{fill:#0C4087;}
	.st2{fill:#0077D4;}
	.st3{fill:#FFFFFF;}
	.st4{opacity:0.5;}
	.st5{fill:#9798A0;}
	.st6{opacity:0.3;fill:#FFFFFF;}
	.st7{fill:#4D4D4D;}
	.st8{fill:#1A1A1A;}
	.st9{opacity:0.5;fill:#FFFFFF;}
	.st10{fill:#333333;}
	.st11{clip-path:url(#SVGID_4_);}
</style>
<path class="st0" d="M768.65,0H31.35C14.04,0,0,14.04,0,31.35v374.3C0,422.96,14.04,437,31.35,437h737.3
	c17.31,0,31.35-14.04,31.35-31.35V31.35C800,14.04,785.96,0,768.65,0z M400,414c-11.6,0-21-9.4-21-21c0-11.6,9.4-21,21-21
	s21,9.4,21,21C421,404.6,411.6,414,400,414z M770,341.69c0,4.04-3.27,7.31-7.31,7.31H38.31c-4.04,0-7.31-3.27-7.31-7.31V50.31
	c0-4.04,3.27-7.31,7.31-7.31h724.38c4.04,0,7.31,3.27,7.31,7.31V341.69z"/>
<path class="st1" d="M770,50.31v291.38c0,4.04-3.27,7.31-7.31,7.31H38.31c-4.04,0-7.31-3.27-7.31-7.31V50.31
	c0-4.04,3.27-7.31,7.31-7.31h724.38C766.73,43,770,46.27,770,50.31z"/>
<path class="st0" d="M566.5,499.5h-332c0,0,6-21,36-23s33-19,33-19h194c0,0,3,17,33,19S566.5,499.5,566.5,499.5z"/>
<g>
	<g>
		<g>
			<g>
				<path class="st2" d="M592,139.26h-53.48V174H592c18.93,0,34.28-7.78,34.28-17.37C626.29,147.04,610.94,139.26,592,139.26z"/>
				<path class="st3" d="M533.03,139.26H203.28c-18.93,0-34.28,7.78-34.28,17.37c0,9.59,15.35,17.37,34.28,17.37h329.75V139.26z"/>
			</g>
			<g>
				<path class="st3" d="M591.66,157.48c-3.26,2.23-8.57,2.23-11.83,0c-3.26-2.23-3.26-5.86,0-8.09c3.26-2.23,8.57-2.23,11.83,0
					C594.92,151.62,594.92,155.25,591.66,157.48z M581.58,150.59c-2.3,1.57-2.3,4.12,0,5.69c2.3,1.57,6.03,1.57,8.33,0
					c2.3-1.57,2.3-4.12,0-5.69C587.61,149.02,583.88,149.02,581.58,150.59z"/>
				<polygon class="st3" points="594.58,158.28 592.83,159.48 589.91,157.48 591.66,156.28 				"/>
				<path class="st3" d="M602.91,165.17c-0.73,0.5-1.9,0.5-2.63,0l-7.45-5.09c-0.73-0.5-0.73-1.3,0-1.8c0.73-0.5,1.9-0.5,2.63,0
					l7.45,5.09C603.64,163.87,603.64,164.67,602.91,165.17z"/>
			</g>
		</g>
		<g class="st4">
			<rect x="291.22" y="123.64" class="st5" width="155.08" height="3.43"/>
			<rect x="291.22" y="130.85" class="st5" width="155.08" height="3.43"/>
			<rect x="291.22" y="138.07" class="st5" width="155.08" height="3.43"/>
			<rect x="291.22" y="145.28" class="st5" width="155.08" height="3.43"/>
			<rect x="291.22" y="152.49" class="st5" width="155.08" height="3.43"/>
			<rect x="291.22" y="159.7" class="st5" width="155.08" height="3.43"/>
			<rect x="291.22" y="166.92" class="st5" width="110.05" height="3.43"/>
		</g>
		<g>
			<polygon class="st6" points="426.82,131.33 466.33,48 504.81,131.33 			"/>
			<polygon class="st6" points="470.53,131.33 507.25,72.99 548.52,131.33 			"/>
			<polygon class="st6" points="513.17,131.33 551.28,82.61 591.15,131.33 			"/>
			<polygon class="st6" points="561.05,131.33 601.95,68.52 639.04,131.33 			"/>
			<g>
				<path class="st3" d="M415.94,132.21c-0.51,0-1-0.18-1.25-0.49c-0.32-0.4-0.11-0.88,0.46-1.12
					c3.03-1.59,82.65-52.15,124.45-78.73c0.26-0.17,0.61-0.26,0.99-0.26h0c0.37,0,0.72,0.09,0.98,0.26l66.86,42.28
					c0.54,0.34,0.54,0.9,0,1.25c-0.54,0.34-1.43,0.34-1.97,0l-65.87-41.66c-46.2,29.39-122.65,77.94-124.03,78.38
					C416.36,132.18,416.15,132.21,415.94,132.21z"/>
				<g>
					<polygon class="st3" points="601.23,96.93 614.37,99.16 610.85,90.84 					"/>
				</g>
			</g>
			<g>
				<path class="st3" d="M507.28,119.44c-0.2,0-0.41-0.03-0.6-0.09l-95.52-28.89c-0.69-0.21-0.99-0.74-0.66-1.17
					c0.33-0.44,1.16-0.62,1.86-0.41l94.41,28.56l35.27-34.66c0.42-0.41,1.28-0.53,1.92-0.26c0.65,0.26,0.83,0.81,0.42,1.22
					l-35.93,35.31C508.19,119.29,507.74,119.44,507.28,119.44z"/>
				<g>
					<polygon class="st3" points="547.86,86.63 548.52,78.04 536.41,81.97 					"/>
				</g>
			</g>
		</g>
		<g class="st4">
			<path class="st3" d="M339.38,272.74c-24.27,3.24-48.18-6.62-53.29-21.97c-5.12-15.35,10.47-30.47,34.74-33.7
				c24.27-3.24,48.18,6.62,53.29,21.97C379.23,254.38,363.65,269.5,339.38,272.74z M321.38,218.73
				c-22.81,3.04-37.46,17.25-32.65,31.68c4.81,14.43,27.28,23.69,50.09,20.65c22.81-3.04,37.46-17.25,32.65-31.68
				C366.67,224.96,344.2,215.69,321.38,218.73z"/>
			<path class="st3" d="M339.38,272.74c-13.42,1.79-28.51-9.24-33.62-24.59c-5.12-15.35,1.64-29.29,15.07-31.08
				c13.42-1.79,28.51,9.24,33.62,24.59C359.56,257,352.8,270.95,339.38,272.74z M321.38,218.73c-11.97,1.6-17.79,14.63-12.98,29.06
				c4.81,14.43,18.45,24.87,30.42,23.27c11.97-1.59,17.79-14.63,12.98-29.06C347,227.58,333.35,217.14,321.38,218.73z"/>
			<path class="st3" d="M339.38,272.74c-8.27,1.1-17.27-25.59-17.64-26.72c-0.38-1.14-9.18-27.85-0.91-28.95
				c8.27-1.1,17.26,25.59,17.64,26.72C338.85,244.92,347.65,271.63,339.38,272.74z M321.36,218.74c-1.89,0.64-2.55,10.2,3.02,26.93
				c5.57,16.73,12.28,25.3,14.47,25.4c1.89-0.64,2.55-10.2-3.02-26.93C330.25,227.41,323.54,218.84,321.36,218.74z"/>
			<polygon class="st3" points="373.07,240.04 287.69,251.43 287.13,249.75 372.52,238.37 			"/>
		</g>
		<g class="st4">
			<path class="st3" d="M417.27,214.06c-12.14,7.53-31.71,7.42-43.62-0.26c-11.91-7.68-11.73-20.05,0.41-27.59
				c12.14-7.53,31.71-7.42,43.62,0.26C429.59,194.15,429.41,206.53,417.27,214.06z M375.36,187.05
				c-11.41,7.08-11.59,18.71-0.39,25.93c11.2,7.22,29.59,7.33,41,0.25c11.41-7.08,11.59-18.71,0.39-25.93
				C405.16,180.08,386.77,179.97,375.36,187.05z"/>
			<path class="st3" d="M417.27,214.06c-6.71,4.17-21.87,1.31-33.78-6.37c-11.91-7.68-16.14-17.31-9.43-21.48
				c6.71-4.17,21.87-1.31,33.78,6.37C419.75,200.26,423.98,209.89,417.27,214.06z M375.36,187.05c-5.99,3.71-1.75,12.61,9.45,19.82
				c11.2,7.22,25.18,10.07,31.16,6.35c5.99-3.71,1.75-12.61-9.45-19.82C395.32,186.18,381.34,183.33,375.36,187.05z"/>
			<path class="st3" d="M417.27,214.06c-4.14,2.57-24.91-10.76-25.79-11.33c-0.88-0.57-21.56-13.95-17.42-16.52
				c4.14-2.57,24.91,10.76,25.79,11.33C400.73,198.11,421.4,211.49,417.27,214.06z M375.34,187.06c-0.72,0.81,4.48,6.49,17.46,14.86
				c12.98,8.37,21.86,11.76,23.18,11.3c0.72-0.81-4.48-6.49-17.46-14.86C385.55,189.99,376.67,186.6,375.34,187.06z"/>
			<polygon class="st3" points="417.67,187.3 374.96,213.81 373.66,212.97 416.37,186.47 			"/>
		</g>
		<g>
			<path class="st3" d="M359.52,78.52c-0.7,0-1.27-0.36-1.27-0.8v-4.01c0-0.44,0.57-0.8,1.27-0.8c0.7,0,1.27,0.36,1.27,0.8v4.01
				C360.78,78.17,360.22,78.52,359.52,78.52z"/>
			<path class="st3" d="M354.9,79.9c-0.32,0-0.65-0.08-0.9-0.23l-4.48-2.83c-0.49-0.31-0.49-0.82,0-1.13c0.49-0.31,1.3-0.31,1.79,0
				l4.48,2.83c0.49,0.31,0.49,0.82,0,1.13C355.55,79.82,355.23,79.9,354.9,79.9z"/>
			<path class="st3" d="M353.18,82.93h-6.34c-0.7,0-1.27-0.36-1.27-0.8c0-0.44,0.57-0.8,1.27-0.8h6.34c0.7,0,1.27,0.36,1.27,0.8
				C354.45,82.57,353.88,82.93,353.18,82.93z"/>
			<path class="st3" d="M350.87,88.68c-0.32,0-0.65-0.08-0.9-0.23c-0.49-0.31-0.49-0.82,0-1.13l4.48-2.83c0.5-0.31,1.3-0.31,1.79,0
				c0.49,0.31,0.49,0.82,0,1.13l-4.48,2.83C351.52,88.6,351.2,88.68,350.87,88.68z"/>
			<path class="st3" d="M360.15,90.95c-0.7,0-1.27-0.36-1.27-0.8v-4.01c0-0.44,0.57-0.8,1.27-0.8c0.7,0,1.27,0.36,1.27,0.8v4.01
				C361.42,90.59,360.85,90.95,360.15,90.95z"/>
			<path class="st3" d="M369.24,88.4c-0.32,0-0.65-0.08-0.9-0.23l-4.48-2.83c-0.49-0.31-0.49-0.82,0-1.13c0.49-0.31,1.3-0.31,1.79,0
				l4.48,2.83c0.49,0.31,0.49,0.82,0,1.13C369.89,88.32,369.56,88.4,369.24,88.4z"/>
			<path class="st3" d="M372.82,82.53h-6.34c-0.7,0-1.27-0.36-1.27-0.8c0-0.44,0.57-0.8,1.27-0.8h6.34c0.7,0,1.27,0.36,1.27,0.8
				C374.09,82.17,373.52,82.53,372.82,82.53z"/>
			<path class="st3" d="M364.31,79.61c-0.32,0-0.65-0.08-0.9-0.23c-0.49-0.31-0.49-0.82,0-1.13l4.48-2.83c0.49-0.31,1.3-0.31,1.79,0
				c0.49,0.31,0.49,0.82,0,1.13l-4.48,2.83C364.96,79.54,364.64,79.61,364.31,79.61z"/>
		</g>
		<g>
			<path class="st3" d="M314.83,193.62c-0.7,0-1.27-0.36-1.27-0.8v-4.01c0-0.44,0.57-0.8,1.27-0.8c0.7,0,1.27,0.36,1.27,0.8v4.01
				C316.1,193.27,315.53,193.62,314.83,193.62z"/>
			<path class="st3" d="M310.22,195c-0.32,0-0.65-0.08-0.9-0.23l-4.48-2.83c-0.49-0.31-0.49-0.82,0-1.13c0.5-0.31,1.3-0.31,1.79,0
				l4.48,2.83c0.49,0.31,0.49,0.82,0,1.13C310.87,194.92,310.54,195,310.22,195z"/>
			<path class="st3" d="M308.5,198.03h-6.34c-0.7,0-1.27-0.36-1.27-0.8c0-0.44,0.57-0.8,1.27-0.8h6.34c0.7,0,1.27,0.36,1.27,0.8
				C309.76,197.67,309.2,198.03,308.5,198.03z"/>
			<path class="st3" d="M306.19,203.78c-0.32,0-0.65-0.08-0.9-0.23c-0.49-0.31-0.49-0.82,0-1.13l4.48-2.83c0.5-0.31,1.3-0.31,1.79,0
				c0.49,0.31,0.49,0.82,0,1.13l-4.48,2.83C306.84,203.7,306.51,203.78,306.19,203.78z"/>
			<path class="st3" d="M315.47,206.05c-0.7,0-1.27-0.36-1.27-0.8v-4.01c0-0.44,0.57-0.8,1.27-0.8c0.7,0,1.27,0.36,1.27,0.8v4.01
				C316.73,205.69,316.17,206.05,315.47,206.05z"/>
			<path class="st3" d="M324.56,203.5c-0.32,0-0.65-0.08-0.9-0.23l-4.48-2.83c-0.49-0.31-0.49-0.82,0-1.13
				c0.49-0.31,1.3-0.31,1.79,0l4.48,2.83c0.49,0.31,0.49,0.82,0,1.13C325.2,203.42,324.88,203.5,324.56,203.5z"/>
			<path class="st3" d="M328.14,197.63h-6.34c-0.7,0-1.27-0.36-1.27-0.8c0-0.44,0.57-0.8,1.27-0.8h6.34c0.7,0,1.27,0.36,1.27,0.8
				C329.4,197.27,328.84,197.63,328.14,197.63z"/>
			<path class="st3" d="M319.63,194.71c-0.32,0-0.65-0.08-0.9-0.23c-0.49-0.31-0.49-0.82,0-1.13l4.48-2.83
				c0.49-0.31,1.3-0.31,1.79,0c0.49,0.31,0.49,0.82,0,1.13l-4.48,2.83C320.28,194.64,319.95,194.71,319.63,194.71z"/>
		</g>
		<g>
			<path class="st3" d="M266.94,109.86c-0.7,0-1.27-0.36-1.27-0.8v-4.01c0-0.44,0.57-0.8,1.27-0.8c0.7,0,1.27,0.36,1.27,0.8v4.01
				C268.2,109.5,267.64,109.86,266.94,109.86z"/>
			<path class="st3" d="M262.33,111.23c-0.32,0-0.65-0.08-0.9-0.23l-4.48-2.83c-0.49-0.31-0.49-0.82,0-1.13
				c0.5-0.31,1.3-0.31,1.79,0l4.48,2.83c0.49,0.31,0.49,0.82,0,1.13C262.98,111.15,262.65,111.23,262.33,111.23z"/>
			<path class="st3" d="M260.6,114.27h-6.34c-0.7,0-1.27-0.36-1.27-0.8c0-0.44,0.57-0.8,1.27-0.8h6.34c0.7,0,1.27,0.36,1.27,0.8
				C261.87,113.91,261.3,114.27,260.6,114.27z"/>
			<path class="st3" d="M258.29,120.02c-0.32,0-0.65-0.08-0.9-0.23c-0.49-0.31-0.49-0.82,0-1.13l4.48-2.83c0.5-0.31,1.3-0.31,1.79,0
				c0.49,0.31,0.49,0.82,0,1.13l-4.48,2.83C258.94,119.94,258.62,120.02,258.29,120.02z"/>
			<path class="st3" d="M267.57,122.28c-0.7,0-1.27-0.36-1.27-0.8v-4.01c0-0.44,0.57-0.8,1.27-0.8c0.7,0,1.27,0.36,1.27,0.8v4.01
				C268.84,121.92,268.27,122.28,267.57,122.28z"/>
			<path class="st3" d="M276.66,119.73c-0.32,0-0.65-0.08-0.9-0.23l-4.48-2.83c-0.49-0.31-0.49-0.82,0-1.13
				c0.49-0.31,1.3-0.31,1.79,0l4.48,2.83c0.49,0.31,0.49,0.82,0,1.13C277.31,119.65,276.99,119.73,276.66,119.73z"/>
			<path class="st3" d="M280.24,113.87h-6.34c-0.7,0-1.27-0.36-1.27-0.8c0-0.44,0.57-0.8,1.27-0.8h6.34c0.7,0,1.27,0.36,1.27,0.8
				C281.51,113.51,280.94,113.87,280.24,113.87z"/>
			<path class="st3" d="M271.73,110.95c-0.32,0-0.65-0.08-0.9-0.23c-0.49-0.31-0.49-0.82,0-1.13l4.48-2.83
				c0.49-0.31,1.3-0.31,1.79,0c0.49,0.31,0.49,0.82,0,1.13l-4.48,2.83C272.38,110.87,272.06,110.95,271.73,110.95z"/>
		</g>
		<g>
			<path class="st3" d="M431.3,235.32c-0.7,0-1.27-0.36-1.27-0.8v-4.01c0-0.44,0.57-0.8,1.27-0.8c0.7,0,1.27,0.36,1.27,0.8v4.01
				C432.57,234.96,432,235.32,431.3,235.32z"/>
			<path class="st3" d="M426.69,236.69c-0.32,0-0.65-0.08-0.9-0.23l-4.48-2.83c-0.49-0.31-0.49-0.82,0-1.13
				c0.5-0.31,1.3-0.31,1.79,0l4.48,2.83c0.49,0.31,0.49,0.82,0,1.13C427.34,236.61,427.01,236.69,426.69,236.69z"/>
			<path class="st3" d="M424.97,239.72h-6.34c-0.7,0-1.27-0.36-1.27-0.8c0-0.44,0.57-0.8,1.27-0.8h6.34c0.7,0,1.27,0.36,1.27,0.8
				C426.23,239.37,425.67,239.72,424.97,239.72z"/>
			<path class="st3" d="M422.66,245.47c-0.32,0-0.65-0.08-0.9-0.23c-0.49-0.31-0.49-0.82,0-1.13l4.48-2.83c0.5-0.31,1.3-0.31,1.79,0
				c0.49,0.31,0.49,0.82,0,1.13l-4.48,2.83C423.31,245.4,422.98,245.47,422.66,245.47z"/>
			<path class="st3" d="M431.93,247.74c-0.7,0-1.27-0.36-1.27-0.8v-4.01c0-0.44,0.57-0.8,1.27-0.8c0.7,0,1.27,0.36,1.27,0.8v4.01
				C433.2,247.38,432.63,247.74,431.93,247.74z"/>
			<path class="st3" d="M441.03,245.19c-0.32,0-0.65-0.08-0.9-0.23l-4.48-2.83c-0.49-0.31-0.49-0.82,0-1.13
				c0.49-0.31,1.3-0.31,1.79,0l4.48,2.83c0.49,0.31,0.49,0.82,0,1.13C441.67,245.11,441.35,245.19,441.03,245.19z"/>
			<path class="st3" d="M444.61,239.32h-6.34c-0.7,0-1.27-0.36-1.27-0.8c0-0.44,0.57-0.8,1.27-0.8h6.34c0.7,0,1.27,0.36,1.27,0.8
				C445.87,238.97,445.3,239.32,444.61,239.32z"/>
			<path class="st3" d="M436.1,236.41c-0.32,0-0.65-0.08-0.9-0.23c-0.49-0.31-0.49-0.82,0-1.13l4.48-2.83c0.49-0.31,1.3-0.31,1.79,0
				c0.49,0.31,0.49,0.82,0,1.13l-4.48,2.83C436.75,236.33,436.42,236.41,436.1,236.41z"/>
		</g>
	</g>
	<g>
		<g>
			<polygon class="st7" points="603.55,244.64 587.18,250.3 560.46,219.4 576.83,213.74 			"/>
			<path class="st8" d="M588.94,227.74l-10.05-11.62c-2.55,1.1-5.2,2.13-7.97,3.09s-5.57,1.81-8.41,2.58l10.05,11.62
				c2.82-0.8,5.62-1.65,8.38-2.61C583.7,229.84,586.35,228.81,588.94,227.74z"/>
			<g class="st4">
				<defs>
					<ellipse id="SVGID_1_" class="st4" cx="520.91" cy="161.37" rx="95.88" ry="60.64"/>
				</defs>
				<use xlink:href="#SVGID_1_"  style="overflow:visible;fill:#DADADA;"/>
				<clipPath id="SVGID_2_">
					<use xlink:href="#SVGID_1_"  style="overflow:visible;"/>
				</clipPath>
			</g>
			<path class="st9" d="M443.1,156.77c-1.07,0.37-2.33,0.53-3.63,0.4c-3.13-0.31-5.28-2.16-4.8-4.14c0.94-3.84,2.52-7.64,4.7-11.28
				c1.13-1.87,4.44-2.82,7.41-2.11c2.97,0.71,4.46,2.81,3.33,4.68c-1.9,3.16-3.28,6.46-4.09,9.81
				C445.74,155.3,444.61,156.24,443.1,156.77z"/>
			<path class="st9" d="M486.23,210.34c-1.62,0.56-3.63,0.62-5.39,0.04c-15.5-5.05-28.12-12.84-36.5-22.53
				c-4.24-4.9-7.26-10.13-8.99-15.57c-0.62-1.97,1.38-3.88,4.5-4.28c3.11-0.4,6.14,0.88,6.76,2.84c1.5,4.71,4.13,9.26,7.8,13.51
				c7.27,8.41,18.23,15.17,31.68,19.56c2.82,0.92,3.93,3.11,2.47,4.89C488.03,209.49,487.2,210.01,486.23,210.34z"/>
			<path class="st10" d="M464.88,96.58c-56.58,19.57-77.35,64.44-46.41,100.23c30.94,35.78,101.89,48.92,158.47,29.35
				c56.58-19.57,77.35-64.44,46.41-100.23C592.4,90.15,521.45,77.01,464.88,96.58z M566.92,214.58
				c-46.46,16.07-104.72,5.28-130.13-24.1c-25.41-29.38-8.35-66.23,38.11-82.3c46.46-16.07,104.72-5.28,130.13,24.1
				C630.44,161.66,613.38,198.5,566.92,214.58z"/>
			<polygon class="st10" points="689,333.98 660.02,344 580.87,252.48 609.85,242.46 			"/>
			<polygon class="st7" points="669.93,340.57 664.2,342.56 585.05,251.04 590.79,249.05 			"/>
			<polygon class="st8" points="679.47,337.27 689,333.98 609.85,242.46 600.33,245.75 			"/>
		</g>
	</g>
	<g>
		<path class="st3" d="M539.4,220.35c-0.7,0-1.27-0.36-1.27-0.8v-4.01c0-0.44,0.57-0.8,1.27-0.8c0.7,0,1.27,0.36,1.27,0.8v4.01
			C540.66,219.99,540.1,220.35,539.4,220.35z"/>
		<path class="st3" d="M534.79,221.72c-0.32,0-0.65-0.08-0.9-0.23l-4.48-2.83c-0.49-0.31-0.49-0.82,0-1.13c0.5-0.31,1.3-0.31,1.79,0
			l4.48,2.83c0.49,0.31,0.49,0.82,0,1.13C535.43,221.64,535.11,221.72,534.79,221.72z"/>
		<path class="st3" d="M533.06,224.76h-6.34c-0.7,0-1.27-0.36-1.27-0.8c0-0.44,0.57-0.8,1.27-0.8h6.34c0.7,0,1.27,0.36,1.27,0.8
			C534.33,224.4,533.76,224.76,533.06,224.76z"/>
		<path class="st3" d="M530.75,230.51c-0.32,0-0.65-0.08-0.9-0.23c-0.49-0.31-0.49-0.82,0-1.13l4.48-2.83c0.5-0.31,1.3-0.31,1.79,0
			c0.49,0.31,0.49,0.82,0,1.13l-4.48,2.83C531.4,230.43,531.08,230.51,530.75,230.51z"/>
		<path class="st3" d="M540.03,232.77c-0.7,0-1.27-0.36-1.27-0.8v-4.01c0-0.44,0.57-0.8,1.27-0.8c0.7,0,1.27,0.36,1.27,0.8v4.01
			C541.3,232.41,540.73,232.77,540.03,232.77z"/>
		<path class="st3" d="M549.12,230.22c-0.32,0-0.65-0.08-0.9-0.23l-4.48-2.83c-0.49-0.31-0.49-0.82,0-1.13
			c0.49-0.31,1.3-0.31,1.79,0l4.48,2.83c0.49,0.31,0.49,0.82,0,1.13C549.77,230.14,549.45,230.22,549.12,230.22z"/>
		<path class="st3" d="M552.7,224.36h-6.34c-0.7,0-1.27-0.36-1.27-0.8c0-0.44,0.57-0.8,1.27-0.8h6.34c0.7,0,1.27,0.36,1.27,0.8
			C553.97,224,553.4,224.36,552.7,224.36z"/>
		<path class="st3" d="M544.19,221.44c-0.32,0-0.65-0.08-0.9-0.23c-0.49-0.31-0.49-0.82,0-1.13l4.48-2.83c0.49-0.31,1.3-0.31,1.79,0
			c0.49,0.31,0.49,0.82,0,1.13l-4.48,2.83C544.84,221.36,544.52,221.44,544.19,221.44z"/>
	</g>
	<g>
		<defs>
			<ellipse id="SVGID_3_" cx="520.91" cy="161.37" rx="95.88" ry="60.64"/>
		</defs>
		<clipPath id="SVGID_4_">
			<use xlink:href="#SVGID_3_"  style="overflow:visible;"/>
		</clipPath>
		<g class="st11">
			<g>
				<g>
					<path class="st2" d="M609.3,134.48h-52.4v42.49h52.4c18.55,0,33.59-9.51,33.59-21.24C642.89,144,627.85,134.48,609.3,134.48z"
						/>
					<path class="st3" d="M551.53,134.48H228.47c-18.55,0-33.59,9.51-33.59,21.24c0,11.73,15.04,21.24,33.59,21.24h323.06V134.48z"
						/>
				</g>
				<g>
					<path class="st3" d="M597.12,156.77c-4.31,2.73-11.33,2.73-15.64,0c-4.31-2.73-4.31-7.17,0-9.89c4.31-2.73,11.33-2.73,15.64,0
						C601.43,149.6,601.43,154.04,597.12,156.77z M583.79,148.34c-3.04,1.92-3.04,5.04,0,6.96c3.04,1.92,7.97,1.92,11.01,0
						c3.04-1.92,3.04-5.04,0-6.96C591.76,146.42,586.82,146.42,583.79,148.34z"/>
					<polygon class="st3" points="600.98,157.74 598.66,159.21 594.8,156.77 597.12,155.3 					"/>
					<path class="st3" d="M611.99,166.17c-0.96,0.61-2.52,0.61-3.48,0l-9.85-6.23c-0.96-0.61-0.96-1.59,0-2.2
						c0.96-0.61,2.52-0.61,3.48,0l9.85,6.23C612.95,164.58,612.95,165.57,611.99,166.17z"/>
				</g>
			</g>
			<g class="st4">
				<rect x="233.11" y="115.38" class="st5" width="189.67" height="4.2"/>
				<rect x="233.11" y="124.2" class="st5" width="189.67" height="4.2"/>
				<rect x="233.11" y="133.03" class="st5" width="189.67" height="4.2"/>
				<rect x="233.11" y="141.85" class="st5" width="189.67" height="4.2"/>
				<rect x="233.11" y="150.67" class="st5" width="189.67" height="4.2"/>
				<rect x="233.11" y="159.49" class="st5" width="189.67" height="4.2"/>
				<rect x="233.11" y="168.31" class="st5" width="134.59" height="4.2"/>
			</g>
			<g>
				<polygon class="st6" points="398.95,124.78 447.26,22.87 494.32,124.78 				"/>
				<polygon class="st6" points="452.4,124.78 497.3,53.44 547.78,124.78 				"/>
				<polygon class="st6" points="504.54,124.78 551.15,65.2 599.92,124.78 				"/>
				<polygon class="st6" points="563.11,124.78 613.12,47.97 658.48,124.78 				"/>
				<g>
					<path class="st3" d="M385.63,125.86c-0.63,0-1.23-0.22-1.52-0.6c-0.39-0.49-0.13-1.07,0.56-1.37
						c3.7-1.95,101.08-63.77,152.2-96.29c0.32-0.2,0.75-0.32,1.21-0.32h0c0.45,0,0.89,0.11,1.2,0.32l81.77,51.71
						c0.67,0.42,0.67,1.1,0,1.52c-0.67,0.42-1.74,0.42-2.41,0l-80.56-50.95c-56.51,35.94-150,95.32-151.69,95.86
						C386.15,125.83,385.89,125.86,385.63,125.86z"/>
					<g>
						<polygon class="st3" points="612.24,82.71 628.32,85.44 624.01,75.27 						"/>
					</g>
				</g>
				<g>
					<path class="st3" d="M497.34,110.24c-0.25,0-0.5-0.03-0.73-0.11L379.79,74.8c-0.85-0.26-1.21-0.9-0.8-1.44
						c0.4-0.54,1.42-0.76,2.27-0.51l115.47,34.93l43.14-42.39c0.51-0.5,1.57-0.64,2.35-0.32c0.79,0.32,1.02,0.99,0.51,1.49
						l-43.95,43.19C498.45,110.06,497.91,110.24,497.34,110.24z"/>
					<g>
						<polygon class="st3" points="546.97,70.12 547.78,59.61 532.98,64.42 						"/>
					</g>
				</g>
			</g>
			<g class="st4">
				<path class="st3" d="M292,297.73c-29.68,3.96-58.92-8.1-65.18-26.87c-6.26-18.77,12.8-37.26,42.49-41.22
					c29.68-3.96,58.92,8.1,65.17,26.87C340.74,275.28,321.68,293.77,292,297.73z M269.99,231.68c-27.9,3.72-45.81,21.1-39.93,38.75
					c5.88,17.64,33.36,28.97,61.26,25.26c27.9-3.72,45.81-21.1,39.93-38.74C325.37,239.29,297.89,227.96,269.99,231.68z"/>
				<path class="st3" d="M292,297.73c-16.42,2.19-34.86-11.3-41.12-30.08c-6.26-18.77,2.01-35.83,18.43-38.01
					c16.42-2.19,34.86,11.3,41.12,30.08C316.69,278.48,308.42,295.54,292,297.73z M269.99,231.68
					c-14.63,1.95-21.76,17.89-15.88,35.54c5.88,17.64,22.57,30.41,37.2,28.46c14.63-1.95,21.76-17.89,15.88-35.54
					C301.32,242.5,284.63,229.73,269.99,231.68z"/>
				<path class="st3" d="M292,297.73c-10.12,1.35-21.12-31.29-21.58-32.68c-0.46-1.39-11.23-34.06-1.11-35.41
					c10.12-1.35,21.11,31.29,21.58,32.68C291.35,263.71,302.12,296.38,292,297.73z M269.96,231.68c-2.31,0.79-3.12,12.48,3.69,32.93
					c6.82,20.46,15.02,30.94,17.7,31.06c2.31-0.79,3.12-12.48-3.7-32.93C280.84,242.29,272.64,231.81,269.96,231.68z"/>
				<polygon class="st3" points="333.21,257.74 228.78,271.66 228.1,269.62 332.53,255.7 				"/>
			</g>
			<g class="st4">
				<path class="st3" d="M387.26,225.97c-14.85,9.21-38.78,9.07-53.35-0.32c-14.57-9.39-14.34-24.53,0.51-33.74
					c14.85-9.21,38.78-9.07,53.35,0.32C402.33,201.62,402.11,216.75,387.26,225.97z M336.01,192.93
					c-13.96,8.66-14.17,22.89-0.48,31.71c13.69,8.83,36.19,8.96,50.14,0.3c13.96-8.66,14.17-22.89,0.48-31.71
					C372.45,184.4,349.96,184.27,336.01,192.93z"/>
				<path class="st3" d="M387.26,225.97c-8.21,5.1-26.74,1.6-41.31-7.79c-14.57-9.39-19.74-21.18-11.53-26.27
					c8.21-5.1,26.74-1.6,41.31,7.79C390.3,209.08,395.47,220.87,387.26,225.97z M336.01,192.93c-7.32,4.54-2.14,15.42,11.56,24.25
					c13.69,8.83,30.79,12.31,38.11,7.77c7.32-4.54,2.14-15.42-11.56-24.25C360.42,191.87,343.33,188.39,336.01,192.93z"/>
				<path class="st3" d="M387.26,225.97c-5.06,3.14-30.46-13.16-31.54-13.85c-1.08-0.7-26.36-17.07-21.3-20.21
					c5.06-3.14,30.46,13.16,31.54,13.85C367.04,206.45,392.32,222.83,387.26,225.97z M335.99,192.94
					c-0.87,0.99,5.47,7.94,21.35,18.17c15.87,10.23,26.73,14.38,28.35,13.82c0.87-0.99-5.47-7.94-21.35-18.17
					C348.47,196.53,337.61,192.38,335.99,192.94z"/>
				<polygon class="st3" points="387.75,193.24 335.51,225.66 333.93,224.63 386.16,192.22 				"/>
			</g>
			<g>
				<path class="st3" d="M316.63,60.2c-0.86,0-1.55-0.44-1.55-0.98v-4.9c0-0.54,0.69-0.98,1.55-0.98c0.86,0,1.55,0.44,1.55,0.98v4.9
					C318.18,59.77,317.49,60.2,316.63,60.2z"/>
				<path class="st3" d="M310.99,61.88c-0.4,0-0.79-0.1-1.1-0.29l-5.48-3.47c-0.61-0.38-0.61-1,0-1.39c0.61-0.38,1.59-0.38,2.19,0
					l5.48,3.47c0.61,0.38,0.61,1,0,1.39C311.78,61.79,311.39,61.88,310.99,61.88z"/>
				<path class="st3" d="M308.88,65.59h-7.75c-0.86,0-1.55-0.44-1.55-0.98c0-0.54,0.69-0.98,1.55-0.98h7.75
					c0.86,0,1.55,0.44,1.55,0.98C310.43,65.16,309.74,65.59,308.88,65.59z"/>
				<path class="st3" d="M306.06,72.63c-0.4,0-0.79-0.1-1.1-0.29c-0.61-0.38-0.61-1,0-1.39l5.48-3.47c0.61-0.38,1.59-0.38,2.19,0
					c0.61,0.38,0.61,1,0,1.39l-5.48,3.47C306.85,72.53,306.46,72.63,306.06,72.63z"/>
				<path class="st3" d="M317.41,75.4c-0.86,0-1.55-0.44-1.55-0.98v-4.9c0-0.54,0.69-0.98,1.55-0.98c0.86,0,1.55,0.44,1.55,0.98v4.9
					C318.95,74.96,318.26,75.4,317.41,75.4z"/>
				<path class="st3" d="M328.52,72.28c-0.4,0-0.79-0.1-1.1-0.29l-5.48-3.47c-0.61-0.38-0.61-1,0-1.39c0.61-0.38,1.59-0.38,2.19,0
					l5.48,3.47c0.61,0.38,0.61,1,0,1.39C329.32,72.18,328.92,72.28,328.52,72.28z"/>
				<path class="st3" d="M332.9,65.1h-7.75c-0.86,0-1.55-0.44-1.55-0.98c0-0.54,0.69-0.98,1.55-0.98h7.75
					c0.86,0,1.55,0.44,1.55,0.98C334.45,64.67,333.76,65.1,332.9,65.1z"/>
				<path class="st3" d="M322.5,61.54c-0.4,0-0.79-0.1-1.1-0.29c-0.61-0.38-0.61-1,0-1.39l5.48-3.47c0.61-0.38,1.59-0.38,2.19,0
					c0.61,0.38,0.61,1,0,1.39l-5.48,3.47C323.29,61.44,322.89,61.54,322.5,61.54z"/>
			</g>
			<g>
				<path class="st3" d="M261.98,200.97c-0.86,0-1.55-0.44-1.55-0.98v-4.9c0-0.54,0.69-0.98,1.55-0.98c0.86,0,1.55,0.44,1.55,0.98
					v4.9C263.53,200.53,262.84,200.97,261.98,200.97z"/>
				<path class="st3" d="M256.34,202.65c-0.4,0-0.79-0.1-1.1-0.29l-5.48-3.47c-0.61-0.38-0.61-1,0-1.39c0.61-0.38,1.59-0.38,2.19,0
					l5.48,3.47c0.61,0.38,0.61,1,0,1.39C257.13,202.56,256.74,202.65,256.34,202.65z"/>
				<path class="st3" d="M254.23,206.36h-7.75c-0.86,0-1.55-0.44-1.55-0.98c0-0.54,0.69-0.98,1.55-0.98h7.75
					c0.86,0,1.55,0.44,1.55,0.98C255.78,205.92,255.09,206.36,254.23,206.36z"/>
				<path class="st3" d="M251.41,213.39c-0.4,0-0.79-0.1-1.1-0.29c-0.61-0.38-0.61-1,0-1.39l5.48-3.47c0.61-0.38,1.59-0.38,2.19,0
					c0.61,0.38,0.61,1,0,1.39l-5.48,3.47C252.2,213.3,251.81,213.39,251.41,213.39z"/>
				<path class="st3" d="M262.76,216.16c-0.86,0-1.55-0.44-1.55-0.98v-4.9c0-0.54,0.69-0.98,1.55-0.98c0.86,0,1.55,0.44,1.55,0.98
					v4.9C264.31,215.72,263.61,216.16,262.76,216.16z"/>
				<path class="st3" d="M273.87,213.05c-0.4,0-0.79-0.1-1.1-0.29l-5.48-3.47c-0.61-0.38-0.61-1,0-1.39c0.61-0.38,1.59-0.38,2.19,0
					l5.48,3.47c0.61,0.38,0.61,1,0,1.39C274.67,212.95,274.27,213.05,273.87,213.05z"/>
				<path class="st3" d="M278.25,205.87h-7.75c-0.86,0-1.55-0.44-1.55-0.98c0-0.54,0.69-0.98,1.55-0.98h7.75
					c0.86,0,1.55,0.44,1.55,0.98C279.8,205.43,279.11,205.87,278.25,205.87z"/>
				<path class="st3" d="M267.85,202.31c-0.4,0-0.79-0.1-1.1-0.29c-0.61-0.38-0.61-1,0-1.39l5.48-3.47c0.61-0.38,1.59-0.38,2.19,0
					c0.61,0.38,0.61,1,0,1.39l-5.48,3.47C268.64,202.21,268.24,202.31,267.85,202.31z"/>
			</g>
			<g>
				<path class="st3" d="M203.41,98.53c-0.86,0-1.55-0.44-1.55-0.98v-4.9c0-0.54,0.69-0.98,1.55-0.98c0.86,0,1.55,0.44,1.55,0.98
					v4.9C204.96,98.09,204.26,98.53,203.41,98.53z"/>
				<path class="st3" d="M197.77,100.21c-0.4,0-0.79-0.1-1.1-0.29l-5.48-3.47c-0.61-0.38-0.61-1,0-1.39c0.61-0.38,1.59-0.38,2.19,0
					l5.48,3.47c0.61,0.38,0.61,1,0,1.39C198.56,100.11,198.16,100.21,197.77,100.21z"/>
				<path class="st3" d="M195.66,103.92h-7.75c-0.86,0-1.55-0.44-1.55-0.98c0-0.54,0.69-0.98,1.55-0.98h7.75
					c0.86,0,1.55,0.44,1.55,0.98C197.21,103.48,196.51,103.92,195.66,103.92z"/>
				<path class="st3" d="M192.84,110.95c-0.4,0-0.79-0.1-1.1-0.29c-0.61-0.38-0.61-1,0-1.39l5.48-3.47c0.61-0.38,1.59-0.38,2.19,0
					c0.61,0.38,0.61,1,0,1.39l-5.48,3.47C193.63,110.85,193.23,110.95,192.84,110.95z"/>
				<path class="st3" d="M204.18,113.72c-0.86,0-1.55-0.44-1.55-0.98v-4.9c0-0.54,0.69-0.98,1.55-0.98c0.86,0,1.55,0.44,1.55,0.98
					v4.9C205.73,113.28,205.04,113.72,204.18,113.72z"/>
				<path class="st3" d="M215.3,110.6c-0.4,0-0.79-0.1-1.1-0.29l-5.48-3.47c-0.61-0.38-0.61-1,0-1.39c0.61-0.38,1.59-0.38,2.19,0
					l5.48,3.47c0.61,0.38,0.61,1,0,1.39C216.09,110.51,215.7,110.6,215.3,110.6z"/>
				<path class="st3" d="M219.68,103.43h-7.75c-0.86,0-1.55-0.44-1.55-0.98c0-0.54,0.69-0.98,1.55-0.98h7.75
					c0.86,0,1.55,0.44,1.55,0.98C221.23,102.99,220.53,103.43,219.68,103.43z"/>
				<path class="st3" d="M209.27,99.86c-0.4,0-0.79-0.1-1.1-0.29c-0.61-0.38-0.61-1,0-1.39l5.48-3.47c0.61-0.38,1.59-0.38,2.19,0
					c0.61,0.38,0.61,1,0,1.39l-5.48,3.47C210.07,99.77,209.67,99.86,209.27,99.86z"/>
			</g>
			<g>
				<path class="st3" d="M404.42,251.96c-0.86,0-1.55-0.44-1.55-0.98v-4.9c0-0.54,0.69-0.98,1.55-0.98c0.86,0,1.55,0.44,1.55,0.98
					v4.9C405.97,251.52,405.28,251.96,404.42,251.96z"/>
				<path class="st3" d="M398.78,253.64c-0.4,0-0.79-0.1-1.1-0.29l-5.48-3.47c-0.61-0.38-0.61-1,0-1.39c0.61-0.38,1.59-0.38,2.19,0
					l5.48,3.47c0.61,0.38,0.61,1,0,1.39C399.58,253.55,399.18,253.64,398.78,253.64z"/>
				<path class="st3" d="M396.67,257.35h-7.75c-0.86,0-1.55-0.44-1.55-0.98c0-0.54,0.69-0.98,1.55-0.98h7.75
					c0.86,0,1.55,0.44,1.55,0.98C398.22,256.91,397.53,257.35,396.67,257.35z"/>
				<path class="st3" d="M393.85,264.38c-0.4,0-0.79-0.1-1.1-0.29c-0.61-0.38-0.61-1,0-1.39l5.48-3.47c0.61-0.38,1.59-0.38,2.19,0
					c0.61,0.38,0.61,1,0,1.39l-5.48,3.47C394.65,264.29,394.25,264.38,393.85,264.38z"/>
				<path class="st3" d="M405.2,267.15c-0.86,0-1.55-0.44-1.55-0.98v-4.9c0-0.54,0.69-0.98,1.55-0.98c0.86,0,1.55,0.44,1.55,0.98
					v4.9C406.75,266.71,406.05,267.15,405.2,267.15z"/>
				<path class="st3" d="M416.32,264.04c-0.4,0-0.79-0.1-1.1-0.29l-5.48-3.47c-0.61-0.38-0.61-1,0-1.39c0.61-0.38,1.59-0.38,2.19,0
					l5.48,3.47c0.61,0.38,0.61,1,0,1.39C417.11,263.94,416.71,264.04,416.32,264.04z"/>
				<path class="st3" d="M420.69,256.86h-7.75c-0.86,0-1.55-0.44-1.55-0.98c0-0.54,0.69-0.98,1.55-0.98h7.75
					c0.86,0,1.55,0.44,1.55,0.98C422.24,256.42,421.55,256.86,420.69,256.86z"/>
				<path class="st3" d="M410.29,253.3c-0.4,0-0.79-0.1-1.1-0.29c-0.61-0.38-0.61-1,0-1.39l5.48-3.47c0.61-0.38,1.59-0.38,2.19,0
					c0.61,0.38,0.61,1,0,1.39l-5.48,3.47C411.08,253.2,410.69,253.3,410.29,253.3z"/>
			</g>
		</g>
	</g>
</g>
</svg>
