<?xml version="1.0" encoding="utf-8"?>
<!-- Generator: Adobe Illustrator 23.0.1, SVG Export Plug-In . SVG Version: 6.00 Build 0)  -->
<svg version="1.1" id="Layer_1" xmlns="http://www.w3.org/2000/svg" xmlns:xlink="http://www.w3.org/1999/xlink" x="0px" y="0px"
	 viewBox="0 0 800 500" style="enable-background:new 0 0 800 500;" xml:space="preserve">
<style type="text/css">
	.st0{fill:#1D2A42;}
	.st1{fill:#0C4087;}
	.st2{opacity:0.3;}
	.st3{fill:#AADEF8;}
	.st4{fill:#383838;}
	.st5{fill:#2C295B;}
	.st6{fill:#FF3000;}
	.st7{fill:#FFFFFF;}
	.st8{fill:#F4815E;}
	.st9{fill:#00B0DD;}
	.st10{fill:#2D4199;}
	.st11{fill:#FFD045;}
	.st12{fill:#0085CA;}
	.st13{fill:none;stroke:#2D4199;stroke-width:4;stroke-miterlimit:10;}
</style>
<g>
	<g>
		<g>
			<path class="st0" d="M767.01,476.78c0,10.06-8.6,18.22-19.23,18.22H52.22c-10.62,0-19.23-8.15-19.23-18.22V19.71
				c0-10.06,8.62-18.22,19.23-18.22h695.56c10.62,0,19.23,8.15,19.23,18.22V476.78z"/>
			<rect x="58.19" y="24.46" class="st1" width="682.05" height="403.85"/>
		</g>
		<g class="st2">
			<polygon class="st3" points="693.4,24.46 612.71,24.46 162.61,428.32 251.95,428.32 			"/>
			<path class="st3" d="M579.35,24.46H469.51c0,0-410.91,354.4-411.31,354.4v49.46H121L579.35,24.46z"/>
		</g>
		<path class="st4" d="M800,489.47c0,5.81-4.16,10.53-9.28,10.53H9.28C4.16,500,0,495.28,0,489.47v-24.55
			c0-5.81,4.16-10.53,9.28-10.53h781.43c5.13,0,9.28,4.72,9.28,10.53V489.47z"/>
	</g>
	<g>
		<g>
			<polygon class="st3" points="579.86,374.53 561.58,398.49 473.95,350.23 492.24,326.27 			"/>
			<path class="st5" d="M451.87,161.91c72.09,39.71,92.65,121.55,45.91,182.8s-143.07,78.71-215.16,39s-92.64-121.55-45.91-182.79
				C283.45,139.67,379.78,122.2,451.87,161.91z"/>
			<path class="st6" d="M509.4,385.32l200.76,110.57c13.92,7.67,32.52,4.29,41.55-7.53l2.33-3.05c9.03-11.83,5.06-27.63-8.86-35.3
				L544.42,339.43L509.4,385.32z"/>
			<path class="st3" d="M433.19,186.38c56.18,30.94,72.2,94.72,35.77,142.46c-36.42,47.73-111.49,61.34-167.67,30.4
				s-72.21-94.72-35.78-142.45C301.94,169.04,377.01,155.44,433.19,186.38z"/>
		</g>
		<g>
			<g>
				<g>
					<path class="st6" d="M460.68,280.01c-0.32,0.88-0.69,1.75-1.12,2.59c-1.72,3.38-4.07,6.32-7.04,8.82
						c-2.98,2.5-6.42,4.46-10.32,5.89c-3.91,1.43-8.05,2.15-12.42,2.15c-4.37,0-8.51-0.71-12.42-2.15
						c-3.91-1.43-7.35-3.39-10.32-5.89c-0.81-0.68-1.55-1.41-2.27-2.16c-2.48,1.66-5.19,3.04-7.65,4.73
						c-0.16,0.11-0.32,0.22-0.47,0.33c0.96,1.01,1.99,1.98,3.08,2.9c3.83,3.2,8.33,5.71,13.49,7.54c5.16,1.83,10.68,2.74,16.56,2.74
						s11.4-0.91,16.56-2.74s9.66-4.34,13.49-7.54s6.86-6.99,9.08-11.37c0.56-1.11,1.04-2.24,1.45-3.4
						C467.15,281.6,463.97,280.63,460.68,280.01z"/>
					<path class="st1" d="M468.86,257.67c-2.26-4.35-5.31-8.16-9.14-11.42c-3.84-3.26-8.33-5.83-13.49-7.72s-10.64-2.83-16.45-2.83
						s-11.29,0.94-16.45,2.83c-0.07,0.03-0.14,0.06-0.22,0.08l3.98,7.23c3.52-1.11,8.61-2.11,12.69-2.11
						c4.73,0,9.09,0.75,13.06,2.24c3.98,1.49,7.4,3.5,10.27,6.03s5.09,5.48,6.67,8.86c1.58,3.38,2.37,6.96,2.37,10.73
						c0,2.52-1.09,6.99-1.79,9.28l9.66,2.52c1.48-3.69,2.23-7.62,2.23-11.79C472.25,266.66,471.12,262.02,468.86,257.67z"/>
					<path class="st5" d="M398.09,295.76c2.6-1.81,5.26-3.54,8-5.18c-2.53-2.31-4.56-4.97-6.1-7.98c-1.72-3.38-2.58-7.05-2.58-11.01
						c0-3.77,0.79-7.35,2.36-10.73c1.58-3.38,3.8-6.33,6.67-8.86c2.87-2.53,6.29-4.54,10.27-6.03c0.3-0.11,0.61-0.21,0.92-0.32
						c-1.34-2.41-2.53-4.86-3.67-7.34c-0.21,0.07-0.42,0.14-0.63,0.21c-5.16,1.89-9.66,4.46-13.5,7.72
						c-3.83,3.26-6.88,7.06-9.14,11.42c-2.26,4.35-3.39,9-3.39,13.93c0,5.12,1.11,9.87,3.33,14.25
						C392.53,289.59,395.02,292.89,398.09,295.76z"/>
				</g>
				<polygon class="st5" points="415.5,249.39 423.38,239.38 409.94,235.52 				"/>
				<polygon class="st1" points="458.18,276.71 463.25,287.96 474.71,280.87 				"/>
				<polygon class="st6" points="409.61,289.56 395.92,286.42 395.92,298.46 				"/>
			</g>
			<g>
				<g>
					<polygon class="st6" points="347,284.71 336.9,284.71 336.9,304.68 380.44,304.68 380.44,296.83 347,296.83 					"/>
					<polygon class="st1" points="347,255.05 336.9,255.05 336.9,285.44 347,285.44 347,270.79 379.48,270.79 379.48,262.94 
						347,262.94 					"/>
					<polygon class="st5" points="336.9,235.81 336.9,255.79 347,255.79 347,243.66 380.44,243.66 380.44,235.81 					"/>
				</g>
				<polygon class="st1" points="350.53,257.94 341.98,248.33 333.29,257.86 				"/>
				<polygon class="st6" points="349.91,288.07 341.36,278.47 332.67,287.98 				"/>
			</g>
			<g>
				<path class="st6" d="M305.75,295.47c-0.01,0-0.02,0.01-0.03,0.01c-1.83,0.73-3.82,1.1-5.97,1.1s-4.19-0.32-6.13-0.96
					c-1.94-0.64-3.62-1.54-5.05-2.7s-2.55-2.54-3.33-4.16c-0.79-1.61-1.18-3.36-1.18-5.25l-10.21,1.83c0.43,2.74,1.36,5.3,2.79,7.67
					c1.43,2.37,3.24,4.42,5.43,6.12c2.19,1.71,4.71,3.05,7.58,4.02s5.95,1.46,9.25,1.46c3.5,0,6.77-0.49,9.81-1.47
					C308.11,300.48,306.77,298.02,305.75,295.47z"/>
				<path class="st5" d="M282.82,261.73c1.61,1.37,3.49,2.56,5.64,3.56c2.15,1,4.37,1.93,6.67,2.79l5.59,2.01
					c1.29,0.46,2.57,0.97,3.84,1.51c1.58-2.49,3.38-4.87,4.95-7.37c-1.54-0.64-3.14-1.25-4.81-1.82l-5.8-1.92
					c-1.29-0.43-2.6-0.93-3.93-1.51c-1.33-0.58-2.53-1.26-3.6-2.06c-1.07-0.79-1.97-1.7-2.69-2.74c-0.72-1.03-1.08-2.22-1.08-3.56
					c0-1.52,0.39-2.88,1.18-4.07c0.79-1.19,1.83-2.21,3.12-3.06c1.29-0.85,2.74-1.51,4.36-1.96c1.61-0.46,3.24-0.69,4.89-0.69
					c3.08,0,5.64,0.55,7.69,1.64c2.04,1.1,3.82,2.71,5.32,4.84l8.07-4.11c-2.22-3.35-5.13-5.92-8.71-7.72s-7.63-2.7-12.15-2.7
					c-3.08,0-6.06,0.41-8.93,1.23c-2.87,0.82-5.41,2-7.63,3.52s-4,3.38-5.32,5.57c-1.33,2.19-1.99,4.69-1.99,7.49
					c0,2.38,0.48,4.47,1.45,6.3C279.91,258.76,281.2,260.35,282.82,261.73z"/>
				<path class="st1" d="M323.3,275.61c-1.01-2.16-2.4-4.07-4.19-5.71c-1.79-1.64-3.93-3.06-6.4-4.25
					c-2.05-0.98-4.24-1.89-6.56-2.73c-1.63,2.46-3.27,4.92-4.67,7.45c1.46,0.54,2.91,1.12,4.34,1.77c1.68,0.76,3.19,1.64,4.51,2.65
					c1.33,1,2.38,2.19,3.17,3.56s1.18,2.97,1.18,4.8s-0.38,3.55-1.13,5.16c-0.75,1.61-1.79,3.03-3.12,4.25s-2.9,2.19-4.73,2.92
					c-0.22,0.09-0.45,0.15-0.67,0.23c0.52,2.66,1.2,5.29,2.05,7.9c0.68-0.17,1.35-0.37,2.01-0.59c3.16-1.06,5.9-2.54,8.23-4.43
					c2.33-1.89,4.16-4.16,5.48-6.81s1.99-5.52,1.99-8.63C324.81,280.28,324.3,277.77,323.3,275.61z"/>
				<polygon class="st1" points="310.63,261.45 296.64,263.42 302.53,274.37 				"/>
				<polygon class="st6" points="299.86,293.26 313.6,296.24 306.63,306.73 				"/>
			</g>
		</g>
	</g>
	<g>
		<path class="st7" d="M339.81,65.94c0,35.59-33.96,64.44-75.85,64.44c-41.9,0-75.86-28.85-75.86-64.44s33.96-64.45,75.86-64.45
			C305.85,1.49,339.81,30.34,339.81,65.94z"/>
		<g>
			<path class="st3" d="M263.96,65.91c0,0.84-35.28-27.27-35.28-27.27c8.73-8.14,21.3-13.25,35.28-13.25V65.91z"/>
			<path class="st8" d="M311.66,65.91c0,0-21.35,0-47.7,0V25.39C290.3,25.39,311.66,43.53,311.66,65.91z"/>
			<path class="st9" d="M216.26,65.95c0,0,21.35,0,47.7,0v40.53C237.61,106.47,216.26,88.33,216.26,65.95z"/>
			<path class="st10" d="M263.96,65.91h-47.7c0-10.5,4.7-20.07,12.42-27.27L263.96,65.91z"/>
			<g>
				<path class="st11" d="M263.96,65.96c0-0.84,35.28,27.27,35.28,27.27c-8.72,8.14-21.3,13.25-35.28,13.25V65.96z"/>
				<path class="st12" d="M263.96,65.96h47.7c0,10.5-4.7,20.07-12.42,27.27L263.96,65.96z"/>
			</g>
		</g>
	</g>
	<g>
		<ellipse class="st7" cx="75.86" cy="215.85" rx="75.86" ry="64.45"/>
		<g>
			<path class="st3" d="M138.98,215.95c0,0-28.26,24.41-63.12,24.41s-63.12-24.41-63.12-24.41s28.26-24.6,63.12-24.6
				C110.72,191.35,138.98,215.95,138.98,215.95z"/>
			<path class="st9" d="M101.82,215.85c0,12.18-11.62,22.06-25.96,22.06s-25.96-9.88-25.96-22.06s11.62-22.06,25.96-22.06
				C90.19,193.79,101.82,203.67,101.82,215.85z"/>
			<path class="st5" d="M88.88,215.85c0,6.11-5.83,11.07-13.03,11.07c-7.19,0-13.03-4.96-13.03-11.07s5.83-11.07,13.03-11.07
				C83.05,204.78,88.88,209.74,88.88,215.85z"/>
		</g>
	</g>
	<g>
		<g>
			<path class="st7" d="M565.99,72.75c0,36.37-34.7,65.85-77.51,65.85c-42.8,0-77.5-29.48-77.5-65.85s34.7-65.85,77.5-65.85
				C531.29,6.9,565.99,36.38,565.99,72.75z"/>
		</g>
		<path class="st9" d="M538.39,60.88h-17.62l12.06-10.91l-20.35-16.24l-10.03,9.07V30.35h-27.93v14.97l-12.84-10.25l-19.12,17.29
			l10.67,8.52h-14.64V84.6h17.62l-12.07,10.91l20.35,16.24l10.03-9.07v12.44h27.93v-14.97l12.84,10.25l19.12-17.29l-10.67-8.52
			h14.64L538.39,60.88L538.39,60.88z M488.49,89.83c-11.1,0-20.11-7.65-20.11-17.08s9-17.08,20.11-17.08s20.11,7.65,20.11,17.08
			C508.6,82.18,499.59,89.83,488.49,89.83z"/>
	</g>
	<g>
		<g>
			<path class="st7" d="M722.58,217.22c0,35.78-34.14,64.78-76.25,64.78s-76.25-29-76.25-64.78s34.14-64.78,76.25-64.78
				C688.44,152.43,722.58,181.44,722.58,217.22z"/>
		</g>
		<g>
			<g>
				<g>
					<polygon class="st5" points="665.04,255.32 596.17,217.78 665.04,180.43 669.25,186.03 610.68,217.79 669.26,249.73 					"/>
				</g>
			</g>
			<path class="st8" d="M650.2,181.9c0,7.95,7.59,14.4,16.94,14.4c9.36,0,16.95-6.45,16.95-14.4s-7.59-14.4-16.95-14.4
				C657.79,167.51,650.2,173.95,650.2,181.9z"/>
			<path class="st8" d="M587.09,216.55c0,9.3,8.87,16.84,19.81,16.84s19.81-7.54,19.81-16.84s-8.87-16.83-19.81-16.83
				S587.09,207.25,587.09,216.55z"/>
			<path class="st8" d="M650.2,252.53c0,7.95,7.59,14.4,16.94,14.4c9.36,0,16.95-6.45,16.95-14.4c0-7.95-7.59-14.4-16.95-14.4
				C657.79,238.13,650.2,244.58,650.2,252.53z"/>
		</g>
	</g>
	<g>
		<g>
			<rect x="134.27" y="308.26" class="st10" width="19.92" height="107.79"/>
			<rect x="33.93" y="352.99" class="st6" width="19.92" height="63.06"/>
			<rect x="100.82" y="322.83" class="st9" width="19.92" height="93.22"/>
			<rect x="67.38" y="336.11" class="st10" width="19.92" height="79.94"/>
			<rect x="0.48" y="365.05" class="st3" width="19.92" height="51"/>
		</g>
		<g>
			<line class="st13" x1="4.2" y1="348.82" x2="123.69" y2="292.8"/>
			<polygon class="st10" points="121.4,307.51 129.59,289.38 106.85,287.4 			"/>
		</g>
	</g>
	<g>
		<rect x="550.3" y="300.56" class="st3" width="249.7" height="51.17"/>
		<rect x="731.96" y="300.56" class="st5" width="68.04" height="51.17"/>
		<path class="st7" d="M780.74,324.64c4.43-4.41,3.82-11.04-1.37-14.81s-13-3.24-17.43,1.17c-3.78,3.76-3.88,9.13-0.61,12.96
			l-16.01,15.93l4.5,3.27l16.03-15.94C770.8,329.31,776.98,328.38,780.74,324.64z M766.12,322.82c-3.31-2.4-3.7-6.62-0.87-9.43
			c2.82-2.81,7.79-3.14,11.1-0.74c3.31,2.4,3.7,6.62,0.87,9.43C774.4,324.89,769.43,325.22,766.12,322.82z"/>
		<g>
			<g>
				<path class="st5" d="M578.83,341.92v-7.34c1.05,0.77,2.07,1.36,3.08,1.74c1.01,0.39,2.03,0.58,3.05,0.58
					c1.41,0,2.52-0.31,3.32-0.94c0.81-0.63,1.21-1.49,1.21-2.57c0-1.34-1.09-2.8-3.28-4.36c-0.61-0.44-1.06-0.78-1.37-1.02
					c-2.55-1.94-4.3-3.68-5.25-5.22s-1.43-3.29-1.43-5.25c0-3.05,1.01-5.52,3.04-7.41c2.03-1.88,4.67-2.82,7.95-2.82
					c1.16,0,2.31,0.14,3.44,0.42s2.33,0.72,3.58,1.32v6.25c-1.46-0.6-2.6-1.01-3.41-1.24c-0.81-0.23-1.53-0.34-2.15-0.34
					c-1.2,0-2.18,0.32-2.94,0.96c-0.76,0.64-1.14,1.47-1.14,2.51c0,0.91,0.28,1.75,0.86,2.53c0.57,0.78,1.9,1.94,4,3.48
					c2.8,2.04,4.59,3.73,5.39,5.08c0.8,1.35,1.2,2.98,1.2,4.88c0,3.22-1.07,5.76-3.21,7.62c-2.14,1.87-5.06,2.8-8.74,2.8
					c-1.41,0-2.71-0.14-3.89-0.41C580.94,342.9,579.84,342.48,578.83,341.92z"/>
				<path class="st5" d="M608.14,333.02v0.19c0,1.78,0.37,3.14,1.11,4.1c0.74,0.95,1.8,1.43,3.17,1.43c0.87,0,1.62-0.23,2.24-0.68
					c0.62-0.45,1.12-1.14,1.5-2.06h6.65c-0.61,2.38-1.87,4.23-3.78,5.58c-1.91,1.34-4.26,2.01-7.03,2.01c-3.48,0-6.25-1.11-8.3-3.32
					c-2.05-2.21-3.08-5.2-3.08-8.97c0-3.81,1.03-6.83,3.08-9.04c2.05-2.21,4.82-3.32,8.3-3.32c3.69,0,6.48,1.09,8.36,3.27
					s2.82,5.41,2.82,9.67v1.14H608.14z M616.38,329.24c-0.06-1.73-0.42-3.01-1.1-3.84s-1.69-1.25-3.04-1.25
					c-1.33,0-2.35,0.44-3.05,1.31s-1.06,2.14-1.06,3.8L616.38,329.24z"/>
				<path class="st5" d="M647.82,343.15h-7.25v-3.51c-0.82,1.31-1.75,2.3-2.81,2.96s-2.22,0.99-3.5,0.99c-2.66,0-4.7-1.05-6.12-3.15
					s-2.13-5.15-2.13-9.14c0-3.88,0.73-6.88,2.18-8.99c1.46-2.12,3.49-3.18,6.12-3.18c1.24,0,2.36,0.31,3.38,0.95
					c1.02,0.63,1.97,1.61,2.87,2.93v-3.64h7.25v23.78H647.82z M640.58,330.89c0-2.17-0.3-3.77-0.9-4.82
					c-0.6-1.05-1.53-1.58-2.78-1.58c-1.12,0-1.94,0.5-2.44,1.51s-0.76,2.65-0.76,4.93c0,2.26,0.28,3.96,0.84,5.08
					s1.41,1.68,2.55,1.68c1.22,0,2.1-0.54,2.65-1.62C640.3,334.99,640.58,333.26,640.58,330.89z"/>
				<path class="st5" d="M653.61,343.15v-23.78h7.19v4.22c0.63-1.55,1.46-2.71,2.51-3.48c1.05-0.77,2.31-1.16,3.79-1.18v6.25h-0.51
					c-2.04,0-3.42,0.41-4.15,1.22c-0.73,0.82-1.1,2.67-1.1,5.56v11.17h-7.73V343.15z"/>
				<path class="st5" d="M685.06,326.14c-0.61-0.39-1.2-0.67-1.77-0.85s-1.14-0.27-1.71-0.27c-1.48,0-2.66,0.55-3.54,1.64
					c-0.88,1.09-1.31,2.57-1.31,4.42c0,1.96,0.44,3.46,1.33,4.52c0.88,1.06,2.13,1.59,3.75,1.59c0.61,0,1.18-0.1,1.71-0.3
					c0.53-0.2,1.05-0.51,1.54-0.93v6.25c-0.8,0.47-1.64,0.82-2.53,1.04c-0.88,0.23-1.81,0.34-2.78,0.34c-3.27,0-5.87-1.11-7.8-3.32
					c-1.93-2.21-2.9-5.23-2.9-9.04c0-3.76,0.97-6.75,2.91-8.97c1.94-2.21,4.54-3.32,7.79-3.32c0.93,0,1.84,0.08,2.71,0.23
					c0.88,0.15,1.74,0.38,2.6,0.69L685.06,326.14L685.06,326.14z"/>
				<path class="st5" d="M701.89,343.15v-14.4c0-1.36-0.19-2.29-0.57-2.8c-0.38-0.51-1.03-0.76-1.94-0.76c-0.99,0-1.7,0.3-2.14,0.9
					s-0.66,1.58-0.66,2.96v14.11h-7.73v-37.57h7.73v16.68c1.04-1.07,2.15-1.85,3.32-2.36c1.17-0.51,2.45-0.76,3.84-0.76
					c2.19,0,3.71,0.52,4.56,1.55c0.86,1.03,1.28,3.11,1.28,6.23v16.24h-7.69V343.15z"/>
			</g>
		</g>
	</g>
</g>
<rect x="862.82" y="118.09" class="st1" width="36.04" height="173.38"/>
</svg>
