<?xml version="1.0" encoding="utf-8"?>
<!-- Generator: Adobe Illustrator 23.0.1, SVG Export Plug-In . SVG Version: 6.00 Build 0)  -->
<svg version="1.1" id="Layer_1" xmlns="http://www.w3.org/2000/svg" xmlns:xlink="http://www.w3.org/1999/xlink" x="0px" y="0px"
	 viewBox="0 0 800 500" style="enable-background:new 0 0 800 500;" xml:space="preserve">
<style type="text/css">
	.st0{opacity:0.5;}
	.st1{fill:#6D6D6D;}
	.st2{opacity:0.16;fill:#8C8E90;enable-background:new    ;}
</style>
<g class="st0">
	<path class="st1" d="M799.6,460.2c-3.2,10.3-21.7,23.8-32.1,28.1c-13.1,5.5-27.4,8.7-41.9,9.8c-17.2,1.3-33.8,2.7-51,1.3
		c-19.3-1.6-38.8-2.4-58-4.6c-44-5.1-88-5.5-132.3-5.5c-43.2,0-86.4-0.9-129.6,1.7c-45.9,2.7-91.9,2.8-137.9,2.7
		c-22.5,0-44.9,1.2-67.4,2c-24.2,0.9-47.6,2.5-71.8,2.2c-22-0.3-55.6-5.9-71.3-20.2c-9.3-8.5-8.1-28.9,1.3-37.1
		c4.1-3.6,10.7-6.4,16-8.1c4.8-1.5,9.7-2.6,14.6-3.3c10.6-1.6,21.4-1.6,32.3-1.7c11.2-0.1,22.9,1.9,33.7,4.6
		c9.6,2.5,19.5,3.3,29.3,4.8c13.2,2.1,28,2.4,41.3,1.1c2.2-0.2,4.3-0.4,6.5-0.6c6.3-0.5,12.7-0.9,19-1.3c5.8-0.4,11.5-0.7,17.3-1.1
		c0.4,0,0.8-0.1,1.2-0.1c0.8,0,1.5-0.1,2.3-0.2c6.7-0.6,13.4-1.3,20-2.1c9.7-1.2,19.4-2.4,29.1-3.2c4.7-0.4,9.3-1.1,14-1.8
		c4.1-0.6,8.2-1.2,12.3-1.7c23.4-2.3,46.8-2.8,70.2-2.8c6.6,0,13.3,0,19.9,0c6.4,0,12.8,0.1,19.2,0.1c15.8,0,31.5-0.1,47.3,0
		c24.3,0.2,48.6,0.7,72.8,2.7c9.6,0.8,19.1,0.3,28.5,2.1c8.3,1.6,16.7,3.1,25.2,3.6c1.2,0.1,2.4,0.1,3.6,0.2
		c12.8,0.4,25.6,0.4,38.5,0.3c10.4-0.1,20.7-0.2,31.1-0.3c10.5,0,50.6-0.2,86.2,3.4C773.7,438.9,804,445.9,799.6,460.2z"/>
</g>
<g>
	<g>
		<g>
			<path d="M403.8,454.1c0,7.1-4.7,13-10.6,13l-109.5,0.2c-5.9,0-10.6-5.8-10.6-12.9V454c0-6.2,3.5-11.3,8.2-12.6
				c-0.7-3-0.4-6.5,1.3-10.4c0.5-1.2,1.2-2.3,1.9-3.3c2.1-2.8,4.8-4.9,7.4-6.9c3.8-3,7.6-6.2,10.3-10.8c5-8.6,0.8-18.1,3.7-27.3
				c1.8-5.8,5.3-8.2,9.4-9.1l0.5-6.4c-9.3-0.6-16.8-1.1-20.1-1.3c-1.1-0.1-2.1-0.9-2.5-2.1l-7.7-21.5c-0.4-1.1-0.3-2.4,0.3-3.4
				l38.8-69.6l1.1-7.9l-38.7,9.4c0,0-4.3,6.8-5.2,15.1c-1,8.3-14.7,8.2-14.7,8.2l-1.3-2.2l-14.2-24.5c0,0,7.7-15.5,13.1-30.1
				c3.7-10,6.5-19.6,5-23.5c-3.6-9.6-5.1-13.8-5.1-13.8s13.7-11.1,33.7-17.6l0.8-29.2c0-1.5,1.9-1.9,2.7-0.6l15.7,25.7
				c0.4,0.7,9.5,1.6,11,2.2c10.7,4.7,20.6,11.4,29.3,19.6c19,17.9,32.6,43.4,38,72.9c1.1,6,9,71.7,4.1,73.2c0,0-2.4,0.7-5.3,1.5
				c0,0,0,0-0.1,0c-0.1,0-0.3,0.1-0.5,0.1c-0.1,0-0.2,0.1-0.4,0.1c-0.2,0-0.4,0.1-0.6,0.2c-0.3,0.1-0.7,0.2-1.2,0.3
				c-0.2,0.1-0.5,0.1-0.7,0.2c-0.3,0.1-0.7,0.2-1.1,0.3c0,0,0,0-0.1,0c-0.2,0-0.3,0.1-0.5,0.1c-2.8,0.8-5,1.4-5,1.4
				c-0.2,10.5-1,17.2-1.8,18.1c-0.9,1-9.9,1.1-21.9,0.8h0l0.5,5.2c4.2,0.7,7.5,2.5,9.6,9c2.9,9.1-1.3,18.7,3.8,27.3
				c2.7,4.5,6.5,7.7,10.3,10.7c0.7,0.5,1.3,1,2,1.6c2.9,2.3,5.8,4.9,7.4,8.7c0.8,1.8,1.4,3.7,1.5,5.7c0.1,1.3,0,2.5-0.2,3.6
				c4.7,1.3,8.1,6.4,8.1,12.6L403.8,454.1z"/>
			<polygon class="st2" points="361.3,374.7 315.7,369.1 315.7,367.3 360.8,369.5 360.8,369.5 			"/>
			<polygon class="st2" points="157.5,337.4 92,331.5 92,329.5 156.8,331.9 156.8,331.9 			"/>
			<path class="st2" d="M394.6,347.8c0,0,0,0-0.1,0c-0.1,0-0.3,0.1-0.5,0.1c-0.1,0-0.2,0.1-0.4,0.1c-0.2,0-0.4,0.1-0.6,0.2
				c-0.3,0.1-0.7,0.2-1.2,0.3c-0.2,0.1-0.5,0.1-0.7,0.2c-0.3,0.1-0.7,0.2-1.1,0.3c0,0,0,0-0.1,0c-0.2,0-0.3,0.1-0.5,0.1
				c-2.5,0.7-5,1.4-5,1.4c1-0.3-2.4-32.2-2.8-35.4c-1.4-12.1-3.3-24.1-6.2-35.7c-5.9-23.9-15.8-46.9-32.1-62.5
				c-11.2-10.7-25.2-20.2-39.9-20.2c11-0.1,22.5,1.6,33,5.8c18.9,7.5,31.6,29.5,40.5,50c8.3,19.2,13.6,40.2,15.5,61.8
				C392.7,316.8,395.9,347.3,394.6,347.8z"/>
		</g>
	</g>
</g>
<g>
	<g>
		<g>
			<path d="M221.9,445v0.3c0,1.4-0.1,2.7-0.4,3.9c-1.6,7.5-7.9,13.2-15.3,13.2l-162.3,0.3c-8.7,0-15.7-7.6-15.8-17.1v-0.4
				c0-7.3,4.2-13.6,10.2-16c0.6-0.3,1.3-0.5,2-0.7c-1.1-4-0.6-8.6,1.9-13.7c3-6.1,8.6-9.8,13.9-13.5c5.7-3.9,11.3-8.2,15.3-14.2
				c7.5-11.3,1.2-23.9,5.5-36c2.7-7.6,7.8-10.8,13.9-12l9.2-107.5h-3.8c-3,0-15.5-3.6-15.5-7.4v-0.1c0-3.9,2.5-7,5.5-7h1.2
				c-0.3-0.7-0.4-1.4-0.4-2.1v-0.1c0-2.8,2.1-5.1,4.6-5.1l10.3,0l1.5-17.2l-12.6,0c-2.6,0-4.7-2.2-4.7-5v-0.1c0-2.8,2.1-5.1,4.6-5.1
				l4.4,0l-4.6-8.6l-6.7-12.6L64,123.7c-2.2-5.2,0.6-11.2,5.7-12.5l20.7-5.2c4.1-1,8.2-1.9,12.3-2.5v-0.7c0-5.3,4-9.6,8.8-9.6h0.3
				l2.6-11.8l-20.6,0c-2.8,0-5-2.4-5-5.4l0-24.8c0-3,2.2-5.5,5-5.5l17.7,0l-3.3-24c-0.2-1.1,0.2-2.1,0.9-2.9l13.2-13.7
				c1.2-1.2,3-1.2,4.2,0l13.3,13.7c0.7,0.7,1.1,1.8,0.9,2.9l-3.2,24.1l17.7,0c2.8,0,5,2.4,5,5.4l0,24.8c0,3-2.2,5.5-5,5.5l-20.6,0
				l2.6,11.8h0.4c4.9,0,8.9,4.3,8.9,9.6v0.9c3.5,0.6,7,1.2,10.5,2.1l22.4,5.4c5.1,1.2,7.9,7.3,5.8,12.5l-28,50.9l-4.3,7.9l4.3,0
				c2.6,0,4.7,2.3,4.7,5.1v0.1c0,2.8-2.1,5.1-4.6,5.1l-13.2,0l0.5,4.8l1.3,12.4l12.2,0c2.6,0,4.7,2.2,4.7,5v0.1
				c0,0.8-0.2,1.5-0.4,2.1h2.5c0.2,0,0.4,0,0.5,0c2.8,0.4,4.9,3.3,5,6.9v0.1c0,1.7-2.6,3.4-5.7,4.8c-3.8,1.6-8.4,2.7-10.1,2.7
				l-6.5,0l11.1,109c6.3,1,11.1,3.3,14.2,11.9v0c2,5.5,1.7,11.2,1.6,16.7c-0.1,4.7-0.1,9.3,1.3,13.7c0.6,1.9,1.4,3.7,2.6,5.5
				c3.9,5.9,9.6,10.2,15.3,14.1c2.8,1.9,5.7,3.9,8.3,6.3c2.3,2.1,4.3,4.4,5.7,7.2c1.1,2.3,2,4.9,2.2,7.5c0.1,1.7,0,3.3-0.3,4.7
				c3.8,1,7,3.4,9.2,6.7c1.1,1.7,2,3.7,2.4,5.8C221.7,442.2,221.9,443.6,221.9,445z"/>
		</g>
	</g>
</g>
<path d="M748.2,455.7v0.3c-0.1,7.7-5.2,13.8-11.5,13.8l-112.7-1.2c-6.3-0.1-11.4-6.4-11.3-14v-0.3c0-6.6,3.9-12.1,9-13.4
	c-0.6-2.6-0.5-5.5,0.5-8.6c0.3-0.8,0.6-1.7,1-2.5c2.2-4.9,6.3-7.9,10.2-10.9c4.1-3.2,8.3-6.6,11.2-11.4c2.9-4.9,8.9-39.1,13.7-69.8
	l-13.7-0.2c-3,0-4.7-4.2-2.9-7.1c4.2-6.7,9-12.4,14.2-16.7c-9-9.2-14.6-23.1-14.5-38.5c0.2-27.4,18.6-49.4,41.1-49.1
	c22.5,0.3,40.5,22.7,40.2,50.1c-0.1,15.4-6,29.1-15.1,38.1c5.2,4.5,9.9,10.3,13.9,17.1c1.7,2.9,0,7.1-3,7l-14.6-0.2
	c4.8,31.3,10.6,66.2,13.5,71.2c2.8,4.8,6.9,8.4,11,11.6c3.8,3,7.9,6.2,10,11.1c0.4,1,0.8,2.1,1.1,3.2c0.2,1,0.4,1.9,0.4,2.9
	c0.1,1.4-0.1,2.6-0.3,3.8C744.5,443.6,748.2,449.1,748.2,455.7z"/>
<g>
	<path d="M589.8,454.3v0.3c-0.1,8.4-5.7,15.2-12.7,15.1l-124-1.3c-6.9-0.1-12.5-7-12.5-15.4v-0.3c0-7.3,4.3-13.3,9.9-14.8
		c-0.8-3.6-0.4-7.7,1.6-12.2c0.4-0.8,0.8-1.6,1.3-2.4c2.5-4,6.3-6.8,9.9-9.6c4.5-3.5,9.1-7.2,12.3-12.5
		c2.8-4.6,10.9-88.3,13.7-132.3h-18.2v-12.3h-9.8l-6.1-67.8h26.9l3.6,20.2H499v-20.2h32.4v20.2h13.4l3.6-20.2h24.4l-3.6,67.8h-9.8
		V269h-17.5c0.1,3.2,0.3,6.6,0.5,10.2c2.7,45.5,10.8,119.8,13.3,124.2c3.1,5.3,7.6,9.2,12.1,12.8c4.2,3.3,8.7,6.8,11,12.2
		c0.5,1.1,0.9,2.2,1.2,3.4c0.3,1.1,0.5,2.3,0.5,3.4c0.1,1.5-0.1,2.9-0.3,4.2C585.8,441,589.8,447.1,589.8,454.3z"/>
	<g>
		<polygon class="st2" points="542.5,279.2 542.4,279.2 489.4,269 541.9,269 541.9,269 		"/>
	</g>
	<g>
		<polygon class="st2" points="143.9,204.6 143.9,204.6 100.8,195.2 143.5,195.2 143.5,195.2 		"/>
	</g>
</g>
</svg>
