<?xml version="1.0" encoding="utf-8"?>
<!-- Generator: Adobe Illustrator 23.0.1, SVG Export Plug-In . SVG Version: 6.00 Build 0)  -->
<svg version="1.1" id="Layer_2" xmlns="http://www.w3.org/2000/svg" xmlns:xlink="http://www.w3.org/1999/xlink" x="0px" y="0px"
	 viewBox="0 0 800 500" style="enable-background:new 0 0 800 500;" xml:space="preserve">
<style type="text/css">
	.st0{opacity:0.4;clip-path:url(#SVGID_2_);fill:#0A0909;}
	.st1{clip-path:url(#SVGID_2_);fill:#FFFFFF;}
	.st2{opacity:0.5;clip-path:url(#SVGID_2_);}
	.st3{fill:#0A0909;}
	.st4{opacity:0.6;}
	.st5{clip-path:url(#SVGID_2_);}
	.st6{fill:#1D2A42;}
</style>
<g>
	<g>
		<defs>
			<path id="SVGID_1_" d="M758.87,500H41.13C18.41,500,0,481.59,0,458.87V41.13C0,18.41,18.41,0,41.13,0h717.75
				C781.59,0,800,18.41,800,41.13v417.75C800,481.59,781.59,500,758.87,500z"/>
		</defs>
		<use xlink:href="#SVGID_1_"  style="overflow:visible;fill:#FFAA00;"/>
		<clipPath id="SVGID_2_">
			<use xlink:href="#SVGID_1_"  style="overflow:visible;"/>
		</clipPath>
		<polygon class="st0" points="234.75,217.54 911.14,-74.49 816.65,691.75 345.56,688.8 206.21,293.7 197.08,259.17 		"/>
		<polygon class="st1" points="234.75,217.54 903.04,21.48 816.65,691.75 398.2,665.18 206.21,293.7 197.08,259.17 		"/>
		<g class="st2">
			<g>
				<path class="st3" d="M-34.24,548.54l3.35-12.66c0.86-3.27,3.98-5.12,6.93-4.18l15.12,4.78c2.98,0.94,4.69,4.32,3.82,7.58
					l-1.18,4.48H3.91l62.88-237.91c2.37-8.97,10.95-14.15,19.16-11.55l175.37,55.45c8.21,2.6,12.94,11.98,10.57,20.95l-45.74,173.06
					h54.35l156.87-593.5h-13.41l-3.29,12.44c-0.86,3.27-3.97,5.12-6.93,4.18l-15.14-4.79c-2.96-0.94-4.69-4.32-3.82-7.58l1.12-4.25
					h-12.88l-9.82,37.17c-2.37,8.98-10.95,14.15-19.16,11.56L199.94-44.96h-91.88l-156.87,593.5H-34.24z M274.79,519.39l-5.92,22.41
					c-0.86,3.26-3.97,5.12-6.93,4.18l-15.14-4.79c-2.96-0.94-4.69-4.32-3.82-7.58l5.92-22.41c0.86-3.26,3.98-5.12,6.93-4.18
					l15.14,4.79C273.93,512.74,275.65,516.12,274.79,519.39z M288.59,467.18l-5.92,22.41c-0.86,3.27-3.97,5.12-6.93,4.18
					l-15.14-4.79c-2.96-0.94-4.69-4.32-3.82-7.58l5.93-22.41c0.86-3.26,3.97-5.12,6.93-4.18l15.14,4.79
					C287.73,460.53,289.45,463.91,288.59,467.18z M302.39,414.97l-5.92,22.41c-0.86,3.26-3.97,5.12-6.93,4.18l-15.14-4.79
					c-2.96-0.94-4.69-4.32-3.82-7.58l5.92-22.41c0.86-3.27,3.98-5.12,6.93-4.18l15.14,4.79
					C301.53,408.32,303.25,411.7,302.39,414.97z M316.19,362.75l-5.92,22.41c-0.86,3.26-3.98,5.12-6.93,4.18l-15.14-4.79
					c-2.96-0.94-4.69-4.32-3.82-7.58l5.93-22.41c0.86-3.26,3.97-5.12,6.93-4.18l15.14,4.79
					C315.33,356.11,317.06,359.49,316.19,362.75z M329.99,310.54l-5.92,22.41c-0.86,3.26-3.97,5.12-6.93,4.18l-15.14-4.79
					c-2.96-0.94-4.69-4.32-3.82-7.58l5.92-22.41c0.86-3.26,3.98-5.12,6.93-4.18l15.14,4.79
					C329.13,303.89,330.86,307.28,329.99,310.54z M343.79,258.33l-5.92,22.41c-0.86,3.27-3.98,5.12-6.93,4.18l-15.14-4.79
					c-2.96-0.94-4.69-4.32-3.82-7.58l5.92-22.41c0.86-3.27,3.97-5.12,6.93-4.18l15.14,4.79
					C342.93,251.68,344.66,255.07,343.79,258.33z M357.59,206.12l-5.92,22.41c-0.86,3.26-3.97,5.12-6.93,4.18l-15.14-4.79
					c-2.96-0.94-4.69-4.32-3.82-7.58l5.92-22.41c0.86-3.26,3.98-5.12,6.93-4.18l15.14,4.79
					C356.73,199.47,358.46,202.85,357.59,206.12z M371.39,153.91l-5.92,22.41c-0.86,3.26-3.97,5.12-6.93,4.18l-15.14-4.79
					c-2.96-0.94-4.69-4.32-3.82-7.58l5.92-22.41c0.86-3.26,3.97-5.12,6.93-4.18l15.14,4.79
					C370.53,147.26,372.26,150.64,371.39,153.91z M380.97,11.5l5.92-22.41c0.86-3.26,3.97-5.12,6.93-4.18l15.14,4.79
					c2.96,0.94,4.69,4.32,3.82,7.58l-5.93,22.41c-0.86,3.26-3.97,5.12-6.93,4.18l-15.14-4.79C381.84,18.15,380.11,14.76,380.97,11.5
					z M367.17,63.71l5.92-22.41c0.86-3.26,3.97-5.12,6.93-4.18l15.14,4.79c2.96,0.94,4.69,4.32,3.82,7.58l-5.92,22.41
					c-0.86,3.26-3.97,5.12-6.93,4.18l-15.14-4.79C368.04,70.36,366.31,66.97,367.17,63.71z M366.23,89.32l15.14,4.79
					c2.96,0.94,4.69,4.32,3.82,7.58l-5.92,22.41c-0.86,3.27-3.97,5.12-6.93,4.18l-15.14-4.79c-2.96-0.94-4.69-4.32-3.82-7.58
					l5.92-22.41C360.16,90.24,363.27,88.39,366.23,89.32z M173.98-33.98l175.37,55.45c8.21,2.59,12.94,11.98,10.56,20.96
					l-74.76,282.83c-2.37,8.98-10.95,14.15-19.16,11.56L90.63,281.37c-8.21-2.6-12.94-11.98-10.56-20.95l74.76-282.83
					C157.2-31.4,165.78-36.57,173.98-33.98z M114.99-16.03l5.92-22.41c0.86-3.26,3.98-5.12,6.93-4.18l15.12,4.78
					c2.98,0.94,4.69,4.32,3.82,7.58l-5.92,22.41c-0.86,3.26-3.95,5.13-6.93,4.18l-15.11-4.78C115.85-9.38,114.13-12.76,114.99-16.03
					z M101.19,36.18l5.92-22.41c0.86-3.27,3.98-5.12,6.93-4.18l15.12,4.78c2.99,0.94,4.69,4.32,3.82,7.58l-5.92,22.41
					c-0.86,3.27-3.95,5.13-6.93,4.18l-15.11-4.78C102.05,42.83,100.33,39.45,101.19,36.18z M87.39,88.39l5.92-22.41
					c0.86-3.26,3.98-5.12,6.93-4.18l15.12,4.78c2.98,0.94,4.69,4.32,3.82,7.58l-5.92,22.41c-0.86,3.26-3.95,5.13-6.93,4.18
					l-15.11-4.78C88.25,95.04,86.53,91.66,87.39,88.39z M73.59,140.61l5.92-22.41c0.86-3.26,3.97-5.12,6.93-4.18l15.11,4.78
					c2.99,0.94,4.69,4.32,3.82,7.58l-5.92,22.41c-0.86,3.26-3.95,5.13-6.93,4.18l-15.11-4.78
					C74.45,147.25,72.73,143.87,73.59,140.61z M59.79,192.82l5.92-22.41c0.86-3.27,3.98-5.12,6.93-4.18L87.76,171
					c2.98,0.94,4.69,4.32,3.82,7.58L85.66,201c-0.86,3.27-3.95,5.13-6.93,4.18l-15.12-4.78C60.65,199.47,58.93,196.08,59.79,192.82z
					 M45.99,245.03l5.92-22.41c0.86-3.26,3.98-5.12,6.93-4.18l15.11,4.78c2.98,0.94,4.69,4.32,3.82,7.58l-5.92,22.41
					c-0.86,3.26-3.95,5.13-6.93,4.18l-15.12-4.78C46.85,251.68,45.12,248.29,45.99,245.03z M32.19,297.24l5.92-22.41
					c0.86-3.26,3.98-5.12,6.93-4.18l15.11,4.78c2.98,0.94,4.69,4.32,3.82,7.58l-5.92,22.41c-0.86,3.26-3.95,5.13-6.93,4.18
					l-15.12-4.78C33.05,303.89,31.32,300.5,32.19,297.24z M18.39,349.45l5.92-22.41c0.86-3.27,3.98-5.12,6.93-4.18l15.11,4.78
					c2.98,0.94,4.69,4.32,3.82,7.58l-5.92,22.41c-0.86,3.26-3.95,5.13-6.93,4.18l-15.11-4.78C19.25,356.1,17.52,352.72,18.39,349.45
					z M4.59,401.66l5.92-22.41c0.86-3.26,3.98-5.12,6.93-4.18l15.12,4.78c2.98,0.94,4.69,4.32,3.82,7.58l-5.92,22.41
					c-0.86,3.27-3.95,5.13-6.93,4.18l-15.12-4.78C5.45,408.31,3.72,404.93,4.59,401.66z M-9.21,453.87l5.93-22.41
					c0.86-3.26,3.97-5.12,6.93-4.18l15.12,4.78c2.98,0.94,4.69,4.32,3.82,7.58l-5.92,22.41c-0.86,3.26-3.95,5.13-6.93,4.18
					l-15.11-4.78C-8.35,460.52-10.08,457.14-9.21,453.87z M-23.01,506.09l5.92-22.41c0.86-3.26,3.98-5.12,6.93-4.18l15.11,4.78
					c2.99,0.94,4.69,4.32,3.82,7.58l-5.92,22.41c-0.86,3.26-3.95,5.13-6.93,4.18l-15.11-4.78
					C-22.15,512.73-23.88,509.35-23.01,506.09z"/>
			</g>
			<g class="st4">
				<path class="st3" d="M226.14,548.54l45.74-173.06c2.37-8.97-2.36-18.36-10.57-20.95L85.95,299.08
					c-8.21-2.6-16.78,2.58-19.16,11.55L3.91,548.54H226.14z"/>
				<path class="st3" d="M173.98-33.98c-8.21-2.6-16.78,2.58-19.16,11.56L80.07,260.41c-2.37,8.98,2.36,18.36,10.56,20.96
					L266,336.82c8.21,2.6,16.78-2.58,19.16-11.56l74.76-282.83c2.37-8.98-2.36-18.36-10.56-20.96L173.98-33.98z"/>
				<path class="st3" d="M199.94-44.96L354.03,3.76c8.21,2.6,16.78-2.58,19.16-11.56l9.82-37.17H199.94z"/>
			</g>
		</g>
		<g class="st5">
			<g>
				<path class="st6" d="M653.93,637.52L838.11-59.33h-34.47l5.39,1.7c3.34,1.05,5.26,4.87,4.29,8.52L782.93,65.86
					c-0.96,3.65-4.45,5.75-7.79,4.7l-71.28-22.54c-3.34-1.06-5.26-4.87-4.29-8.52l26.12-98.83h-4.11l-1.55,5.87
					c-0.35,1.33-1.61,2.08-2.82,1.7l-6.14-1.94c-1.2-0.38-1.9-1.76-1.55-3.08l0.67-2.55h-5.92L520.07,637.52h5.92l0.81-3.05
					c0.35-1.33,1.62-2.08,2.82-1.7l6.14,1.94c1.13,0.36,1.79,1.57,1.6,2.81h4.14l9.54-36.07c0.96-3.65,4.45-5.75,7.79-4.7
					l71.28,22.54c3.34,1.06,5.26,4.87,4.29,8.52l-2.57,9.71h10.65l-2.81-0.89c-1.2-0.38-1.91-1.76-1.55-3.08l2.41-9.11
					c0.35-1.33,1.62-2.08,2.82-1.7l6.15,1.95c1.2,0.38,1.91,1.76,1.55,3.08l-2.41,9.11c-0.06,0.24-0.16,0.45-0.28,0.64H653.93z
					 M556.43,581.03l30.39-114.97c0.96-3.65,4.45-5.75,7.79-4.7l71.28,22.54c3.34,1.05,5.26,4.87,4.29,8.52L639.8,607.39
					c-0.96,3.65-4.45,5.75-7.79,4.7l-71.28-22.54C557.39,588.49,555.47,584.68,556.43,581.03z M705.97,357.04L675.58,472
					c-0.96,3.65-4.45,5.75-7.79,4.7l-71.28-22.54c-3.34-1.06-5.26-4.87-4.29-8.52l30.39-114.97c0.96-3.65,4.45-5.75,7.79-4.7
					l71.28,22.54C705.01,349.57,706.93,353.39,705.97,357.04z M703.58,341.32l-71.28-22.54c-3.34-1.05-5.26-4.87-4.29-8.52
					l30.39-114.97c0.96-3.65,4.45-5.75,7.79-4.7l71.28,22.54c3.34,1.06,5.26,4.87,4.29,8.52l-30.39,114.97
					C710.4,340.27,706.91,342.37,703.58,341.32z M535.23,611.54l6.14,1.94c1.21,0.38,1.91,1.76,1.55,3.08l-2.41,9.11
					c-0.35,1.33-1.6,2.08-2.82,1.7l-6.14-1.94c-1.2-0.38-1.91-1.76-1.55-3.08l2.41-9.11C532.76,611.92,534.03,611.16,535.23,611.54z
					 M540.84,590.32l6.14,1.94c1.21,0.38,1.9,1.76,1.55,3.08l-2.41,9.11c-0.35,1.33-1.61,2.08-2.82,1.7l-6.14-1.94
					c-1.2-0.38-1.91-1.76-1.55-3.08l2.41-9.11C538.37,590.69,539.64,589.94,540.84,590.32z M546.45,569.1l6.14,1.94
					c1.21,0.38,1.91,1.76,1.55,3.08l-2.41,9.11c-0.35,1.33-1.6,2.08-2.82,1.7l-6.14-1.94c-1.2-0.38-1.9-1.76-1.55-3.08l2.41-9.11
					C543.98,569.47,545.24,568.72,546.45,569.1z M552.06,547.87l6.14,1.94c1.21,0.38,1.9,1.76,1.55,3.08l-2.41,9.11
					c-0.35,1.33-1.61,2.08-2.82,1.7l-6.14-1.94c-1.2-0.38-1.91-1.76-1.55-3.08l2.41-9.11C549.59,548.25,550.85,547.49,552.06,547.87
					z M557.67,526.65l6.14,1.94c1.21,0.38,1.91,1.76,1.55,3.08l-2.41,9.11c-0.35,1.33-1.61,2.08-2.82,1.7l-6.14-1.94
					c-1.2-0.38-1.9-1.76-1.55-3.08l2.41-9.11C555.2,527.02,556.46,526.27,557.67,526.65z M563.28,505.43l6.14,1.94
					c1.21,0.38,1.9,1.76,1.55,3.08l-2.41,9.11c-0.35,1.33-1.61,2.08-2.82,1.7l-6.14-1.94c-1.2-0.38-1.91-1.76-1.55-3.08l2.41-9.11
					C560.81,505.8,562.07,505.05,563.28,505.43z M568.89,484.21l6.14,1.94c1.21,0.38,1.91,1.76,1.55,3.08l-2.41,9.11
					c-0.35,1.33-1.6,2.08-2.82,1.7l-6.14-1.94c-1.2-0.38-1.91-1.76-1.55-3.08l2.41-9.11C566.42,484.58,567.68,483.82,568.89,484.21z
					 M574.5,462.98l6.14,1.94c1.21,0.38,1.9,1.76,1.55,3.08l-2.41,9.11c-0.35,1.33-1.61,2.08-2.82,1.7l-6.14-1.94
					c-1.2-0.38-1.91-1.76-1.55-3.08l2.41-9.11C572.03,463.35,573.29,462.6,574.5,462.98z M580.1,441.76l6.14,1.94
					c1.21,0.38,1.9,1.76,1.55,3.08l-2.41,9.11c-0.35,1.33-1.6,2.08-2.82,1.7l-6.14-1.94c-1.2-0.38-1.9-1.76-1.55-3.08l2.41-9.11
					C577.64,442.13,578.9,441.38,580.1,441.76z M585.71,420.54l6.14,1.94c1.21,0.38,1.9,1.76,1.55,3.08l-2.41,9.11
					c-0.35,1.33-1.61,2.08-2.82,1.7l-6.14-1.94c-1.2-0.38-1.91-1.76-1.55-3.08l2.41-9.11C583.25,420.91,584.51,420.16,585.71,420.54
					z M591.32,399.31l6.14,1.94c1.21,0.38,1.91,1.76,1.55,3.08l-2.41,9.11c-0.35,1.33-1.6,2.08-2.82,1.7l-6.14-1.94
					c-1.2-0.38-1.9-1.76-1.55-3.08l2.41-9.11C588.86,399.69,590.12,398.93,591.32,399.31z M596.93,378.09l6.14,1.94
					c1.21,0.38,1.9,1.76,1.55,3.08l-2.41,9.11c-0.35,1.33-1.61,2.08-2.82,1.7l-6.14-1.94c-1.2-0.38-1.91-1.76-1.55-3.08l2.41-9.11
					C594.47,378.46,595.73,377.71,596.93,378.09z M602.54,356.87l6.14,1.94c1.21,0.38,1.9,1.76,1.55,3.08l-2.41,9.11
					c-0.35,1.33-1.61,2.08-2.82,1.7l-6.14-1.94c-1.2-0.38-1.9-1.76-1.55-3.08l2.41-9.11C600.08,357.24,601.34,356.49,602.54,356.87z
					 M608.15,335.64l6.14,1.94c1.21,0.38,1.91,1.76,1.55,3.08l-2.41,9.11c-0.35,1.33-1.61,2.08-2.82,1.7l-6.14-1.94
					c-1.2-0.38-1.91-1.76-1.55-3.08l2.41-9.11C605.69,336.02,606.95,335.26,608.15,335.64z M613.76,314.42l6.14,1.94
					c1.21,0.38,1.9,1.76,1.55,3.08l-2.41,9.11c-0.35,1.33-1.61,2.08-2.82,1.7l-6.14-1.94c-1.2-0.38-1.9-1.76-1.55-3.08l2.41-9.11
					C611.3,314.79,612.56,314.04,613.76,314.42z M619.37,293.2l6.14,1.94c1.21,0.38,1.91,1.76,1.55,3.08l-2.41,9.11
					c-0.35,1.33-1.6,2.08-2.82,1.7l-6.14-1.94c-1.2-0.38-1.91-1.76-1.55-3.08l2.41-9.11C616.9,293.57,618.17,292.82,619.37,293.2z
					 M624.98,271.97l6.14,1.94c1.21,0.38,1.9,1.76,1.55,3.08l-2.41,9.11c-0.35,1.33-1.61,2.08-2.82,1.7l-6.14-1.94
					c-1.2-0.38-1.9-1.76-1.55-3.08l2.41-9.11C622.51,272.35,623.78,271.59,624.98,271.97z M630.59,250.75l6.14,1.94
					c1.21,0.38,1.91,1.76,1.55,3.08l-2.41,9.11c-0.35,1.33-1.61,2.08-2.82,1.7l-6.14-1.94c-1.2-0.38-1.9-1.76-1.55-3.08l2.41-9.11
					C628.12,251.12,629.39,250.37,630.59,250.75z M636.2,229.53l6.14,1.94c1.21,0.38,1.9,1.76,1.55,3.08l-2.41,9.11
					c-0.35,1.33-1.61,2.08-2.82,1.7l-6.14-1.94c-1.2-0.38-1.9-1.76-1.55-3.08l2.41-9.11C633.73,229.9,635,229.15,636.2,229.53z
					 M641.81,208.3l6.14,1.94c1.21,0.38,1.91,1.76,1.55,3.08l-2.41,9.11c-0.35,1.33-1.61,2.08-2.82,1.7l-6.14-1.94
					c-1.2-0.38-1.91-1.76-1.55-3.08l2.41-9.11C639.34,208.68,640.61,207.92,641.81,208.3z M647.42,187.08l6.14,1.94
					c1.21,0.38,1.9,1.76,1.55,3.08l-2.41,9.11c-0.35,1.33-1.61,2.08-2.82,1.7l-6.14-1.94c-1.2-0.38-1.9-1.76-1.55-3.08l2.41-9.11
					C644.95,187.45,646.22,186.7,647.42,187.08z M653.03,165.86l6.14,1.94c1.21,0.38,1.91,1.76,1.55,3.08l-2.41,9.11
					c-0.35,1.33-1.61,2.08-2.82,1.7l-6.14-1.94c-1.2-0.38-1.9-1.76-1.55-3.08l2.41-9.11C650.56,166.23,651.83,165.48,653.03,165.86z
					 M658.64,144.63l6.14,1.94c1.21,0.38,1.91,1.76,1.55,3.08l-2.41,9.11c-0.35,1.33-1.61,2.08-2.82,1.7l-6.14-1.94
					c-1.2-0.38-1.91-1.76-1.55-3.08l2.41-9.11C656.17,145.01,657.44,144.25,658.64,144.63z M664.25,123.41l6.14,1.94
					c1.21,0.38,1.91,1.76,1.55,3.08l-2.41,9.11c-0.35,1.33-1.61,2.08-2.82,1.7l-6.14-1.94c-1.2-0.38-1.9-1.76-1.55-3.08l2.41-9.11
					C661.78,123.78,663.05,123.03,664.25,123.41z M669.86,102.19l6.14,1.94c1.21,0.38,1.9,1.76,1.55,3.08l-2.41,9.11
					c-0.35,1.33-1.61,2.08-2.82,1.7l-6.14-1.94c-1.2-0.38-1.91-1.76-1.55-3.08l2.41-9.11C667.39,102.56,668.66,101.81,669.86,102.19
					z M675.47,80.96l6.14,1.94c1.21,0.38,1.9,1.76,1.55,3.08l-2.41,9.11c-0.35,1.33-1.61,2.08-2.82,1.7l-6.14-1.94
					c-1.2-0.38-1.91-1.76-1.55-3.08l2.41-9.11C673,81.34,674.27,80.58,675.47,80.96z M681.08,59.74l6.14,1.94
					c1.21,0.38,1.91,1.76,1.55,3.08l-2.41,9.11c-0.35,1.33-1.61,2.08-2.82,1.7l-6.14-1.94c-1.2-0.38-1.91-1.76-1.55-3.08l2.41-9.11
					C678.61,60.11,679.88,59.36,681.08,59.74z M686.69,38.52l6.14,1.94c1.21,0.38,1.91,1.76,1.55,3.08l-2.41,9.11
					c-0.35,1.33-1.6,2.08-2.82,1.7l-6.14-1.94c-1.2-0.38-1.9-1.76-1.55-3.08l2.41-9.11C684.22,38.89,685.49,38.14,686.69,38.52z
					 M711.6-30.54l-6.14-1.94c-1.2-0.38-1.91-1.76-1.55-3.08l2.41-9.11c0.35-1.33,1.62-2.08,2.82-1.7l6.14,1.94
					c1.21,0.38,1.91,1.76,1.55,3.08l-2.41,9.11C714.07-30.91,712.81-30.16,711.6-30.54z M705.99-9.32l-6.14-1.94
					c-1.2-0.38-1.9-1.76-1.55-3.08l2.41-9.11c0.35-1.33,1.62-2.08,2.82-1.7l6.14,1.94c1.21,0.38,1.91,1.75,1.55,3.08l-2.41,9.11
					C708.46-9.69,707.2-8.93,705.99-9.32z M700.38,11.91l-6.14-1.94c-1.2-0.38-1.9-1.76-1.55-3.08l2.41-9.11
					c0.35-1.33,1.62-2.08,2.82-1.7l6.14,1.94c1.21,0.38,1.91,1.75,1.55,3.08l-2.41,9.11C702.85,11.53,701.59,12.29,700.38,11.91z
					 M697.59,31.43c-0.35,1.33-1.61,2.08-2.82,1.7l-6.14-1.94c-1.2-0.38-1.91-1.76-1.55-3.08l2.41-9.11
					c0.35-1.33,1.62-2.08,2.82-1.7l6.14,1.94c1.21,0.38,1.9,1.76,1.55,3.08L697.59,31.43z M777.54,86.27l-30.39,114.97
					c-0.96,3.65-4.45,5.75-7.79,4.7l-71.28-22.54c-3.34-1.05-5.26-4.87-4.29-8.52l30.39-114.97c0.96-3.65,4.45-5.75,7.79-4.7
					l71.28,22.54C776.58,78.81,778.5,82.62,777.54,86.27z M825.34-40.57l-6.15-1.95c-1.2-0.38-1.9-1.76-1.55-3.08l2.41-9.11
					c0.35-1.33,1.62-2.08,2.82-1.7l6.15,1.95c1.2,0.38,1.91,1.76,1.55,3.08l-2.41,9.11C827.8-40.94,826.54-40.19,825.34-40.57z
					 M819.73-19.35l-6.15-1.95c-1.2-0.38-1.9-1.76-1.55-3.08l2.41-9.11c0.35-1.33,1.62-2.08,2.82-1.7l6.15,1.95
					c1.2,0.38,1.91,1.76,1.55,3.08l-2.41,9.11C822.19-19.72,820.93-18.97,819.73-19.35z M814.12,1.88l-6.15-1.95
					c-1.2-0.38-1.9-1.76-1.55-3.08l2.41-9.11c0.35-1.33,1.62-2.08,2.82-1.7l6.15,1.95c1.2,0.38,1.91,1.76,1.55,3.08l-2.41,9.11
					C816.58,1.5,815.32,2.26,814.12,1.88z M808.51,23.1l-6.15-1.95c-1.2-0.38-1.9-1.76-1.55-3.08l2.41-9.11
					c0.35-1.33,1.62-2.08,2.82-1.7l6.15,1.95c1.2,0.38,1.91,1.76,1.55,3.08l-2.41,9.11C810.97,22.73,809.71,23.48,808.51,23.1z
					 M802.9,44.32l-6.15-1.95c-1.2-0.38-1.91-1.76-1.55-3.08l2.41-9.11c0.35-1.33,1.62-2.08,2.82-1.7l6.15,1.95
					c1.2,0.38,1.91,1.75,1.55,3.08l-2.41,9.11C805.37,43.95,804.1,44.7,802.9,44.32z M797.29,65.55l-6.15-1.95
					c-1.2-0.38-1.91-1.76-1.55-3.08l2.41-9.11c0.35-1.33,1.62-2.08,2.82-1.7l6.15,1.95c1.2,0.38,1.9,1.76,1.55,3.08l-2.41,9.11
					C799.76,65.17,798.49,65.93,797.29,65.55z M791.68,86.77l-6.15-1.95c-1.2-0.38-1.91-1.76-1.55-3.08l2.41-9.11
					c0.35-1.33,1.62-2.08,2.82-1.7l6.15,1.95c1.2,0.38,1.91,1.76,1.55,3.08l-2.41,9.11C794.15,86.4,792.88,87.15,791.68,86.77z
					 M786.07,107.99l-6.15-1.95c-1.2-0.38-1.9-1.76-1.55-3.08l2.41-9.11c0.35-1.33,1.62-2.08,2.82-1.7l6.15,1.95
					c1.2,0.38,1.9,1.76,1.55,3.08l-2.41,9.11C788.54,107.62,787.27,108.37,786.07,107.99z M780.46,129.22l-6.15-1.95
					c-1.2-0.38-1.91-1.76-1.55-3.08l2.41-9.11c0.35-1.33,1.62-2.08,2.82-1.7l6.15,1.95c1.2,0.38,1.91,1.76,1.55,3.08l-2.41,9.11
					C782.93,128.84,781.66,129.6,780.46,129.22z M774.85,150.44l-6.15-1.95c-1.2-0.38-1.9-1.76-1.55-3.08l2.41-9.11
					c0.35-1.33,1.62-2.08,2.82-1.7l6.15,1.95c1.2,0.38,1.9,1.76,1.55,3.08l-2.41,9.11C777.32,150.07,776.05,150.82,774.85,150.44z
					 M769.24,171.66l-6.15-1.95c-1.2-0.38-1.91-1.76-1.55-3.08l2.41-9.11c0.35-1.33,1.62-2.08,2.82-1.7l6.15,1.95
					c1.2,0.38,1.9,1.76,1.55,3.08l-2.41,9.11C771.71,171.29,770.44,172.04,769.24,171.66z M763.63,192.89l-6.15-1.95
					c-1.2-0.38-1.91-1.76-1.55-3.08l2.41-9.11c0.35-1.33,1.62-2.08,2.82-1.7l6.15,1.95c1.2,0.38,1.91,1.76,1.55,3.08l-2.41,9.11
					C766.1,192.51,764.83,193.27,763.63,192.89z M758.02,214.11l-6.15-1.95c-1.2-0.38-1.91-1.76-1.55-3.08l2.41-9.11
					c0.35-1.33,1.62-2.08,2.82-1.7l6.15,1.95c1.2,0.38,1.91,1.76,1.55,3.08l-2.41,9.11C760.49,213.74,759.22,214.49,758.02,214.11z
					 M752.41,235.33l-6.15-1.95c-1.2-0.38-1.91-1.76-1.55-3.08l2.41-9.11c0.35-1.33,1.62-2.08,2.82-1.7l6.15,1.95
					c1.2,0.38,1.9,1.76,1.55,3.08l-2.41,9.11C754.88,234.96,753.61,235.71,752.41,235.33z M746.8,256.56l-6.15-1.95
					c-1.2-0.38-1.91-1.76-1.55-3.08l2.41-9.11c0.35-1.33,1.62-2.08,2.82-1.7l6.15,1.95c1.2,0.38,1.91,1.76,1.55,3.08l-2.41,9.11
					C749.27,256.18,748,256.94,746.8,256.56z M741.19,277.78l-6.15-1.95c-1.2-0.38-1.91-1.76-1.55-3.08l2.41-9.11
					c0.35-1.33,1.62-2.08,2.82-1.7l6.15,1.95c1.2,0.38,1.9,1.76,1.55,3.08l-2.41,9.11C743.66,277.41,742.39,278.16,741.19,277.78z
					 M735.58,299l-6.15-1.95c-1.2-0.38-1.9-1.76-1.55-3.08l2.41-9.11c0.35-1.33,1.62-2.08,2.82-1.7l6.15,1.95
					c1.2,0.38,1.9,1.76,1.55,3.08l-2.41,9.11C738.05,298.63,736.78,299.38,735.58,299z M729.97,320.23l-6.15-1.95
					c-1.2-0.38-1.91-1.76-1.55-3.08l2.41-9.11c0.35-1.33,1.62-2.08,2.82-1.7l6.15,1.95c1.2,0.38,1.91,1.76,1.55,3.08l-2.41,9.11
					C732.44,319.85,731.17,320.61,729.97,320.23z M724.36,341.45l-6.15-1.95c-1.2-0.38-1.9-1.76-1.55-3.08l2.41-9.11
					c0.35-1.33,1.62-2.08,2.82-1.7l6.15,1.95c1.2,0.38,1.9,1.76,1.55,3.08l-2.41,9.11C726.83,341.08,725.57,341.83,724.36,341.45z
					 M718.75,362.67l-6.15-1.95c-1.2-0.38-1.91-1.76-1.55-3.08l2.41-9.11c0.35-1.33,1.62-2.08,2.82-1.7l6.15,1.95
					c1.2,0.38,1.91,1.76,1.55,3.08l-2.41,9.11C721.22,362.3,719.96,363.05,718.75,362.67z M713.14,383.9l-6.15-1.95
					c-1.2-0.38-1.9-1.76-1.55-3.08l2.41-9.11c0.35-1.33,1.62-2.08,2.82-1.7l6.15,1.95c1.2,0.38,1.9,1.76,1.55,3.08l-2.41,9.11
					C715.61,383.52,714.35,384.28,713.14,383.9z M707.53,405.12l-6.15-1.95c-1.2-0.38-1.91-1.76-1.55-3.08l2.41-9.11
					c0.35-1.33,1.62-2.08,2.82-1.7l6.15,1.95c1.2,0.38,1.91,1.76,1.55,3.08l-2.41,9.11C710,404.75,708.74,405.5,707.53,405.12z
					 M701.92,426.34l-6.15-1.95c-1.2-0.38-1.91-1.76-1.55-3.08l2.41-9.11c0.35-1.33,1.62-2.08,2.82-1.7l6.15,1.95
					c1.2,0.38,1.91,1.76,1.55,3.08l-2.41,9.11C704.39,425.97,703.13,426.72,701.92,426.34z M696.31,447.56l-6.15-1.95
					c-1.2-0.38-1.91-1.76-1.55-3.08l2.41-9.11c0.35-1.33,1.62-2.08,2.82-1.7l6.15,1.95c1.2,0.38,1.91,1.76,1.55,3.08l-2.41,9.11
					C698.78,447.19,697.52,447.95,696.31,447.56z M690.7,468.79l-6.15-1.95c-1.2-0.38-1.9-1.76-1.55-3.08l2.41-9.11
					c0.35-1.33,1.62-2.08,2.82-1.7l6.15,1.95c1.2,0.38,1.91,1.76,1.55,3.08l-2.41,9.11C693.17,468.42,691.91,469.17,690.7,468.79z
					 M685.1,490.01l-6.15-1.95c-1.2-0.38-1.9-1.76-1.55-3.08l2.41-9.11c0.35-1.33,1.62-2.08,2.82-1.7l6.15,1.95
					c1.2,0.38,1.91,1.76,1.55,3.08l-2.41,9.11C687.56,489.64,686.3,490.39,685.1,490.01z M679.49,511.23l-6.15-1.95
					c-1.2-0.38-1.9-1.76-1.55-3.08l2.41-9.11c0.35-1.33,1.62-2.08,2.82-1.7l6.15,1.95c1.2,0.38,1.9,1.76,1.55,3.08l-2.41,9.11
					C681.95,510.86,680.69,511.61,679.49,511.23z M673.88,532.46l-6.15-1.95c-1.2-0.38-1.91-1.76-1.55-3.08l2.41-9.11
					c0.35-1.33,1.62-2.08,2.82-1.7l6.15,1.95c1.2,0.38,1.9,1.76,1.55,3.08l-2.41,9.11C676.34,532.08,675.08,532.84,673.88,532.46z
					 M668.27,553.68l-6.15-1.95c-1.2-0.38-1.9-1.76-1.55-3.08l2.41-9.11c0.35-1.33,1.62-2.08,2.82-1.7l6.15,1.95
					c1.2,0.38,1.9,1.76,1.55,3.08l-2.41,9.11C670.73,553.31,669.47,554.06,668.27,553.68z M662.66,574.9l-6.15-1.95
					c-1.2-0.38-1.91-1.76-1.55-3.08l2.41-9.11c0.35-1.33,1.62-2.08,2.82-1.7l6.15,1.95c1.2,0.38,1.91,1.76,1.55,3.08l-2.41,9.11
					C665.12,574.53,663.86,575.28,662.66,574.9z M657.05,596.13l-6.15-1.95c-1.2-0.38-1.91-1.76-1.55-3.08l2.41-9.11
					c0.35-1.33,1.62-2.08,2.82-1.7l6.15,1.95c1.2,0.38,1.91,1.76,1.55,3.08l-2.41,9.11C659.51,595.75,658.25,596.51,657.05,596.13z
					 M656.66,606.54l-2.41,9.11c-0.35,1.33-1.62,2.08-2.82,1.7l-6.15-1.95c-1.2-0.38-1.91-1.76-1.55-3.08l2.41-9.11
					c0.35-1.33,1.62-2.08,2.82-1.7l6.15,1.95C656.31,603.84,657.02,605.21,656.66,606.54z"/>
			</g>
			<g class="st4">
				<path class="st6" d="M631.83,637.52H541.5l9.53-36.07c0.96-3.65,4.45-5.75,7.79-4.7l71.28,22.54c3.34,1.06,5.26,4.87,4.29,8.52
					L631.83,637.52z"/>
				<path class="st6" d="M594.61,461.36c-3.34-1.06-6.82,1.05-7.79,4.7l-30.39,114.97c-0.96,3.65,0.96,7.46,4.29,8.52l71.28,22.54
					c3.34,1.05,6.82-1.05,7.79-4.7l30.39-114.97c0.96-3.65-0.96-7.46-4.29-8.52L594.61,461.36z"/>
				<path class="st6" d="M630.39,325.98c-3.34-1.05-6.82,1.05-7.79,4.7l-30.39,114.97c-0.96,3.65,0.96,7.46,4.29,8.52l71.28,22.54
					c3.34,1.05,6.82-1.05,7.79-4.7l30.39-114.97c0.96-3.65-0.96-7.46-4.29-8.52L630.39,325.98z"/>
				<path class="st6" d="M666.17,190.6c-3.34-1.06-6.82,1.05-7.79,4.7L628,310.26c-0.96,3.65,0.96,7.46,4.29,8.52l71.28,22.54
					c3.34,1.05,6.82-1.05,7.79-4.7l30.39-114.97c0.96-3.65-0.96-7.46-4.29-8.52L666.17,190.6z"/>
				<path class="st6" d="M701.96,55.21c-3.34-1.06-6.82,1.05-7.79,4.7l-30.39,114.97c-0.96,3.65,0.96,7.46,4.29,8.52l71.28,22.54
					c3.34,1.05,6.82-1.05,7.79-4.7l30.39-114.97c0.96-3.65-0.96-7.46-4.29-8.52L701.96,55.21z"/>
				<path class="st6" d="M725.69-59.33h77.95l5.39,1.7c3.34,1.06,5.26,4.87,4.29,8.52L782.93,65.86c-0.96,3.65-4.45,5.75-7.79,4.7
					l-71.28-22.54c-3.34-1.05-5.26-4.87-4.29-8.52L725.69-59.33z"/>
			</g>
		</g>
		<g class="st5">
			<polygon class="st6" points="77.62,172.37 45.06,153.02 46.79,149.53 79.36,168.88 			"/>
			<path class="st6" d="M52.41,159.66l-10.95-6.51c-0.63-0.37-0.86-1.23-0.52-1.91l2.19-4.42c0.34-0.68,1.12-0.94,1.75-0.57
				l10.95,6.51c0.63,0.37,0.86,1.23,0.52,1.91l-2.19,4.42C53.82,159.78,53.04,160.03,52.41,159.66z"/>
			<polygon class="st6" points="108.7,271.56 83.99,260.48 93.04,236.32 117.76,247.4 			"/>
			<path class="st6" d="M104.39,285.52L78.1,273.73c-2.32-1.04-3.43-3.95-2.48-6.49l4.02-10.73c0.95-2.54,3.61-3.76,5.93-2.71
				l26.29,11.79c2.32,1.04,3.43,3.95,2.48,6.49l-4.02,10.73C109.37,285.34,106.72,286.56,104.39,285.52z"/>
			<polygon class="st6" points="11.49,502.25 5.18,499.43 90.32,272.27 96.63,275.1 			"/>
			<polygon class="st6" points="-60.09,438.59 91.74,263.92 86.8,258.78 -66.86,435.55 			"/>
			<polygon class="st6" points="104.32,512.31 108.32,268.43 101.5,268.3 97.55,509.27 			"/>
			<polygon class="st6" points="86.26,264.12 34.61,255.3 35.4,249.78 87.05,258.59 			"/>
			<path class="st6" d="M36.7,195.61l23.92,10.73c1.52,0.68,3.27-0.11,3.89-1.78l4.2-11.21c0.62-1.67-0.1-3.57-1.63-4.26
				l-23.92-10.73c-1.52-0.68-3.27,0.11-3.89,1.78l-4.2,11.21C34.45,193.02,35.18,194.93,36.7,195.61z"/>
			<path class="st6" d="M44.31,208.65l25.15,11.28c2.11,0.94,4.51-0.16,5.37-2.46l9.52-25.4c0.86-2.3-0.14-4.93-2.25-5.88
				l-25.15-11.28c-2.11-0.94-4.51,0.16-5.37,2.46l-9.52,25.4C41.19,205.07,42.2,207.7,44.31,208.65z"/>
			<polygon class="st6" points="156.7,240.46 186.14,253.66 194.76,230.65 165.32,217.45 			"/>
			<polygon class="st6" points="173.13,234.39 206.21,293.7 234.75,217.54 			"/>
			<path class="st6" d="M152.39,278.16L48.64,231.64c-4.65-2.08-6.87-7.89-4.96-12.97l24.72-65.94c1.9-5.08,7.21-7.51,11.86-5.43
				l103.76,46.52c4.65,2.08,6.87,7.89,4.96,12.97l-24.72,65.94C162.35,277.81,157.04,280.24,152.39,278.16z"/>
			<path class="st6" d="M47.26,260.31l-17.37-2.96c-0.99-0.17-1.67-1.19-1.52-2.27l1-7c0.15-1.08,1.08-1.83,2.08-1.66l17.37,2.96
				c0.99,0.17,1.67,1.19,1.52,2.27l-1,7C49.18,259.74,48.25,260.48,47.26,260.31z"/>
			<g>
				<ellipse class="st6" cx="173.09" cy="163.47" rx="28.1" ry="30.74"/>
				<path class="st6" d="M203.84,134.47c-14.64-18.58-40.27-20.66-57.26-4.64c-16.98,16.01-18.88,44.05-4.25,62.63
					c14.64,18.58,40.27,20.66,57.26,4.64C216.58,181.09,218.48,153.05,203.84,134.47z M198.85,145.1c1.62-1.53,4.1-0.96,5.07,1.12
					c3,6.44,4.26,13.72,3.63,20.92c-0.2,2.33-2.32,3.85-4.34,3.08l-16.71-6.38c-2.38-0.91-2.97-4.29-1.06-6.09L198.85,145.1z
					 M174.85,125.64c6.61,0.38,13,2.82,18.38,7.01c1.74,1.36,1.89,4.13,0.27,5.65l-13.41,12.65c-1.91,1.8-4.88,0.66-5.35-2.04
					l-3.3-19.02C171.03,127.59,172.72,125.52,174.85,125.64z M144,142.89c1.78-3.02,3.96-5.76,6.47-8.12
					c2.51-2.36,5.31-4.31,8.3-5.8c1.94-0.96,4.2,0.28,4.6,2.58l3.31,19.04c0.47,2.71-1.92,4.96-4.3,4.05l-16.73-6.39
					C143.64,147.47,142.84,144.85,144,142.89z M147.32,181.83c-1.62,1.53-4.1,0.96-5.07-1.12c-3-6.44-4.26-13.72-3.63-20.92
					c0.2-2.33,2.32-3.85,4.34-3.08l16.71,6.38c2.38,0.91,2.97,4.29,1.06,6.09L147.32,181.83z M168.7,157.9
					c2.81-2.65,7.06-2.31,9.48,0.77c2.42,3.08,2.11,7.72-0.7,10.37c-2.81,2.65-7.06,2.31-9.48-0.77S165.89,160.55,168.7,157.9z
					 M171.32,201.29c-6.61-0.38-13-2.82-18.38-7.01c-1.74-1.36-1.89-4.13-0.27-5.65l13.41-12.65c1.91-1.8,4.88-0.66,5.35,2.04
					l3.3,19.02C175.15,199.34,173.46,201.41,171.32,201.29z M182.81,195.39l-3.31-19.04c-0.47-2.71,1.92-4.96,4.3-4.05l16.73,6.39
					c2.02,0.77,2.81,3.4,1.65,5.36c-1.78,3.02-3.96,5.76-6.47,8.12c-2.51,2.36-5.31,4.31-8.3,5.8
					C185.46,198.93,183.21,197.68,182.81,195.39z"/>
				<path class="st6" d="M175.24,166.19c-1.38,1.3-3.46,1.13-4.64-0.38c-1.19-1.51-1.03-3.78,0.34-5.08
					c1.38-1.3,3.46-1.13,4.64,0.38C176.77,162.62,176.62,164.9,175.24,166.19z"/>
			</g>
			<g>
				<ellipse class="st6" cx="99.4" cy="132.36" rx="25.39" ry="27.77"/>
				<path class="st6" d="M113.32,95.23c-18.75-8.41-40.17,1.4-47.86,21.91c-7.68,20.5,1.28,43.94,20.03,52.34
					c18.75,8.41,40.17-1.4,47.86-21.91C141.03,127.07,132.06,103.64,113.32,95.23z M113.28,106.02c0.73-1.96,2.94-2.61,4.51-1.37
					c4.82,3.84,8.57,9.14,10.75,15.22c0.71,1.97-0.43,4.14-2.35,4.42l-15.85,2.35c-2.26,0.33-4-2.13-3.13-4.43L113.28,106.02z
					 M86.66,101.1c5.46-2.65,11.53-3.55,17.43-2.59c1.91,0.31,3.06,2.48,2.33,4.43l-6.07,16.19c-0.86,2.3-3.68,2.72-5.08,0.75
					l-9.78-13.84C84.31,104.38,84.9,101.96,86.66,101.1z M68.27,128.81c0.31-3.23,1.03-6.41,2.17-9.44
					c1.13-3.03,2.66-5.85,4.51-8.39c1.2-1.65,3.49-1.65,4.67,0.02l9.79,13.85c1.39,1.97,0.31,4.85-1.94,5.19l-15.86,2.35
					C69.7,132.67,68.07,130.91,68.27,128.81z M85.53,158.7c-0.73,1.96-2.94,2.61-4.51,1.37c-4.82-3.84-8.57-9.14-10.75-15.22
					c-0.71-1.97,0.43-4.14,2.35-4.42l15.85-2.35c2.26-0.33,4,2.13,3.13,4.43L85.53,158.7z M93.78,129.84
					c1.27-3.39,4.82-5.02,7.92-3.63c3.1,1.39,4.59,5.27,3.32,8.67c-1.27,3.39-4.82,5.02-7.92,3.63
					C94,137.11,92.51,133.23,93.78,129.84z M112.15,163.62c-5.46,2.65-11.53,3.55-17.43,2.59c-1.91-0.31-3.06-2.48-2.33-4.43
					l6.07-16.19c0.86-2.3,3.68-2.72,5.08-0.75l9.78,13.84C114.5,160.34,113.91,162.76,112.15,163.62z M119.18,153.72l-9.79-13.85
					c-1.39-1.97-0.31-4.85,1.94-5.19l15.86-2.35c1.91-0.28,3.54,1.48,3.34,3.57c-0.31,3.23-1.03,6.41-2.17,9.44
					c-1.13,3.03-2.66,5.85-4.51,8.39C122.65,155.38,120.36,155.39,119.18,153.72z"/>
				<path class="st6" d="M102.16,133.59c-0.62,1.66-2.36,2.46-3.88,1.78c-1.52-0.68-2.25-2.58-1.62-4.25
					c0.62-1.66,2.36-2.46,3.88-1.78C102.05,130.03,102.78,131.93,102.16,133.59z"/>
			</g>
		</g>
	</g>
	<g>
		<polygon class="st6" points="463.08,250.65 450.99,245.86 442.74,256.66 443.17,242.6 431.23,237.36 443.59,233.46 444.46,219.43 
			451.67,231.07 464.14,227.64 456.24,238.74 		"/>
		<polygon class="st6" points="325.55,338.9 316.07,329.4 304.66,335.9 310,323.1 300.82,313.24 313.6,314.84 319.34,302.25 
			321.9,316.03 334.62,318.11 323.42,325.03 		"/>
		<polygon class="st6" points="374.44,239.82 357.41,231.29 344.26,245.88 346.42,225.53 329.67,216.36 348.04,212.32 
			350.83,192.06 360.02,209.91 378.5,206.56 365.82,221.64 		"/>
		<polygon class="st6" points="468.48,447.01 478.68,433.83 470.84,418.85 485.45,425.39 496.05,412.6 494.88,429.82 509.28,436.9 
			493.94,441 492.23,458.16 483.93,443.48 		"/>
		<polygon class="st6" points="362.24,398.65 388.65,349.37 355.32,305.39 406.33,317.63 434.28,269.37 439.39,326.22 
			489.99,340.37 442.14,363.27 445.47,420.28 410.78,377.57 		"/>
		<polygon class="st6" points="534.55,365.19 541.7,358.06 538.02,348.28 546.42,353.52 553.79,346.67 551.84,357.03 560.07,362.57 
			550.46,363.74 548.18,374.02 544.2,364.38 		"/>
		<polygon class="st6" points="315.05,448.65 325.04,435.92 317.52,421.3 331.68,427.77 342.07,415.42 340.82,432.15 354.77,439.14 
			339.84,443.01 338.06,459.68 330.09,445.34 		"/>
		<polygon class="st6" points="532.87,290.29 524.2,274.99 508.09,278.68 518.71,264.92 510.52,249.3 525.77,256.11 536.82,242.76 
			535.61,260.72 550.63,268.09 534.64,272.39 		"/>
	</g>
</g>
</svg>
