<?xml version="1.0" encoding="utf-8"?>
<!-- Generator: Adobe Illustrator 23.0.1, SVG Export Plug-In . SVG Version: 6.00 Build 0)  -->
<svg version="1.1" id="Layer_1" xmlns="http://www.w3.org/2000/svg" xmlns:xlink="http://www.w3.org/1999/xlink" x="0px" y="0px"
	 viewBox="0 0 800 500" style="enable-background:new 0 0 800 500;" xml:space="preserve">
<style type="text/css">
	.st0{fill:#999999;}
	.st1{fill:#1D2A42;}
	.st2{fill:#054AE2;}
	.st3{fill:#2ADD1B;}
	.st4{fill:#CE000B;}
	.st5{fill:#0C4087;}
	.st6{fill:#F15A24;}
</style>
<g>
	<path class="st0" d="M330.74,400.56c-15.92-4.36-9.26-12.6-3.84-22.18c4.3-7.62,8.62-15.23,12.93-22.83
		c12.1-21.36,24.21-42.73,36.3-64.09c25.2-44.48,50.39-88.96,75.59-133.45c5.73-10.1,11.03-21.73,17.9-30.72
		c-0.05,0.06,9.06,4.27,9.51,4.94c3.08,4.59-0.79,7.22-3.19,12.16c-4.85,9.99-11.08,19.57-16.57,29.26
		c-11.05,19.51-22.1,39.02-33.15,58.53c-22.6,39.9-45.21,79.81-67.82,119.72c-9.19,16.24-18.47,32.43-27.57,48.71
		C330.8,400.58,330.76,400.57,330.74,400.56z"/>
</g>
<path class="st1" d="M757.85,0.13H41.15C18.18,0.13-0.5,19.34-0.5,42.95v414.36c0,23.61,18.68,42.82,41.65,42.82h716.7
	c22.97,0,41.65-19.2,41.65-42.81V42.95C799.5,19.34,780.82,0.13,757.85,0.13z M782.86,457.33c0,14.18-11.22,25.71-25.01,25.71H41.15
	c-13.79,0-25.01-11.54-25.01-25.71V42.96c0-14.18,11.22-25.71,25.01-25.71v-0.01h716.7c13.79,0,25.01,11.54,25.01,25.71V457.33z"/>
<ellipse class="st2" cx="650.31" cy="57.37" rx="18.02" ry="18.12"/>
<ellipse class="st3" cx="701.38" cy="57.37" rx="18.02" ry="18.12"/>
<ellipse class="st4" cx="753.44" cy="57.37" rx="18.02" ry="18.12"/>
<path class="st5" d="M283.43,386.71c0.69,1.15,1.08,2.48,1.08,3.9c0,4.38-3.77,7.94-8.42,7.94c-2.32,0-4.44-0.89-5.96-2.33
	c-37.11-35.1-74.2-70.19-111.3-105.3c-7.58-7.17-15.49-14.89-17.89-24.78c-3.38-13.94,5.24-28.06,15.82-38.27
	c19.91-19.21,40.71-37.65,60.84-56.73c17.41-16.5,34.81-33,52.23-49.5c0-0.01,0.01-0.02,0.02-0.03l0.56-0.53
	c0-0.01,0-0.01,0.01-0.01c1.5-1.29,3.49-2.07,5.67-2.07c4.65,0,8.42,3.55,8.42,7.93c0,1.62-0.52,3.13-1.4,4.38
	c-0.02,0.03-0.03,0.05-0.05,0.06c-0.2,0.25-0.39,0.5-0.61,0.74c-1.35,1.58-2.88,3.03-4.4,4.47
	c-36.16,34.15-72.34,68.29-108.51,102.44c-2.11,1.98-4.27,4.1-6.18,6.34c-3.61,4.25-6.32,8.99-6.07,14.31
	c0.34,7.27,6.13,13.12,11.56,18.26c36.44,34.41,72.86,68.82,109.3,103.23c1.26,1.2,2.53,2.39,3.7,3.67
	C282.4,385.45,282.93,386.07,283.43,386.71z"/>
<path class="st1" d="M281.54,388.06c-0.5-0.7-1.04-1.37-1.6-2.02C280.57,386.62,281.11,387.31,281.54,388.06z"/>
<path class="st6" d="M515.16,386.71c-0.69,1.15-1.08,2.48-1.08,3.9c0,4.38,3.77,7.94,8.42,7.94c2.32,0,4.44-0.89,5.96-2.33
	c37.11-35.1,74.2-70.19,111.3-105.3c7.58-7.17,15.49-14.89,17.89-24.78c3.38-13.94-5.24-28.06-15.82-38.27
	c-19.91-19.21-40.71-37.65-60.84-56.73c-17.41-16.5-34.81-33-52.23-49.5c0-0.01-0.01-0.02-0.02-0.03l-0.56-0.53
	c0-0.01,0-0.01-0.01-0.01c-1.5-1.29-3.49-2.07-5.67-2.07c-4.65,0-8.42,3.55-8.42,7.93c0,1.62,0.52,3.13,1.4,4.38
	c0.02,0.03,0.03,0.05,0.05,0.06c0.2,0.25,0.39,0.5,0.61,0.74c1.35,1.58,2.88,3.03,4.4,4.47c36.16,34.15,72.34,68.29,108.51,102.44
	c2.11,1.98,4.27,4.1,6.18,6.34c3.61,4.25,6.32,8.99,6.07,14.31c-0.34,7.27-6.13,13.12-11.56,18.26
	c-36.44,34.41-72.86,68.82-109.3,103.23c-1.26,1.2-2.53,2.39-3.7,3.67C516.19,385.45,515.66,386.07,515.16,386.71z"/>
</svg>
